G04*
G04 #@! TF.GenerationSoftware,Altium Limited,Altium Designer,25.8.1 (18)*
G04*
G04 Layer_Color=8388736*
%FSLAX44Y44*%
%MOMM*%
G71*
G04*
G04 #@! TF.SameCoordinates,D7C4C725-C8A4-46AB-A62B-07054BF05DDA*
G04*
G04*
G04 #@! TF.FilePolarity,Negative*
G04*
G01*
G75*
%ADD27R,1.0332X1.1432*%
%ADD28R,1.1432X1.0332*%
%ADD29R,1.0032X1.1532*%
%ADD30R,1.1532X1.0032*%
%ADD31R,1.4032X0.5032*%
%ADD32R,0.5032X1.4032*%
%ADD33R,1.6732X1.2232*%
%ADD34R,4.2032X1.2032*%
%ADD35R,1.4032X0.9532*%
%ADD36R,4.3032X4.7032*%
%ADD37R,2.7032X3.8032*%
%ADD38R,1.0632X1.0032*%
%ADD39C,1.8032*%
%ADD40C,1.5532*%
%ADD41R,2.5032X2.5032*%
%ADD42R,1.5532X1.5532*%
%ADD43R,1.8032X1.8032*%
%ADD44R,4.2032X4.2032*%
%ADD45C,0.8032*%
%ADD46C,0.7032*%
D27*
X124400Y154000D02*
D03*
X137600D02*
D03*
X189400Y34000D02*
D03*
X202600D02*
D03*
D28*
X189000Y166200D02*
D03*
X112000Y72000D02*
D03*
X237000Y124000D02*
D03*
X136000Y19400D02*
D03*
X237000Y137200D02*
D03*
X189000Y153000D02*
D03*
X232000Y104000D02*
D03*
Y90800D02*
D03*
X247000Y104000D02*
D03*
Y90800D02*
D03*
X234000Y54400D02*
D03*
Y67600D02*
D03*
X136000Y32600D02*
D03*
X112000Y58800D02*
D03*
D29*
X297000Y75000D02*
D03*
X313000D02*
D03*
X190000Y18000D02*
D03*
X206000D02*
D03*
X211000Y187000D02*
D03*
X195000D02*
D03*
X270000Y155000D02*
D03*
X254000D02*
D03*
X270000Y176000D02*
D03*
X254000D02*
D03*
X234000Y221000D02*
D03*
X218000D02*
D03*
D30*
X203000Y169000D02*
D03*
X250000Y17000D02*
D03*
X223000Y17000D02*
D03*
X277000Y118000D02*
D03*
X250000Y33000D02*
D03*
X218000Y142000D02*
D03*
Y158000D02*
D03*
X203000Y153000D02*
D03*
X277000Y102000D02*
D03*
X250000Y52000D02*
D03*
Y68000D02*
D03*
X223000Y33000D02*
D03*
X173000Y34000D02*
D03*
Y18000D02*
D03*
X255000Y221000D02*
D03*
Y205000D02*
D03*
D31*
X215380Y117500D02*
D03*
X130620Y72500D02*
D03*
X215380Y112500D02*
D03*
Y82500D02*
D03*
X130620Y107500D02*
D03*
Y87500D02*
D03*
X215380Y77500D02*
D03*
X130620Y82500D02*
D03*
X215380Y87500D02*
D03*
Y72500D02*
D03*
Y107500D02*
D03*
Y102500D02*
D03*
X130620Y117500D02*
D03*
Y92500D02*
D03*
Y67500D02*
D03*
X215380Y122500D02*
D03*
Y92500D02*
D03*
X130620Y77500D02*
D03*
Y122500D02*
D03*
X215380Y67500D02*
D03*
Y97500D02*
D03*
X130620D02*
D03*
Y102500D02*
D03*
Y112500D02*
D03*
D32*
X150500Y137380D02*
D03*
X170500Y52620D02*
D03*
X155500Y137380D02*
D03*
X185500D02*
D03*
X180500D02*
D03*
X170500D02*
D03*
X165500Y52620D02*
D03*
X190500D02*
D03*
X150500D02*
D03*
X175500D02*
D03*
X180500D02*
D03*
X200500D02*
D03*
X145500D02*
D03*
Y137380D02*
D03*
X195500D02*
D03*
X175500D02*
D03*
X185500Y52620D02*
D03*
X200500Y137380D02*
D03*
X195500Y52620D02*
D03*
X190500Y137380D02*
D03*
X165500D02*
D03*
X160500D02*
D03*
Y52620D02*
D03*
X155500D02*
D03*
D33*
X154000Y17000D02*
D03*
Y33000D02*
D03*
D34*
X26000Y28000D02*
D03*
Y48000D02*
D03*
Y88000D02*
D03*
Y68000D02*
D03*
Y108000D02*
D03*
D35*
X453000Y184000D02*
D03*
Y209300D02*
D03*
Y196700D02*
D03*
Y222000D02*
D03*
X395000Y184000D02*
D03*
Y222000D02*
D03*
Y209300D02*
D03*
Y196700D02*
D03*
X452900Y129000D02*
D03*
Y154300D02*
D03*
Y141700D02*
D03*
Y167000D02*
D03*
X453000Y337000D02*
D03*
X395000Y299000D02*
D03*
Y311700D02*
D03*
Y324300D02*
D03*
Y337000D02*
D03*
X453000Y299000D02*
D03*
Y311700D02*
D03*
Y324300D02*
D03*
X395000Y244000D02*
D03*
Y256700D02*
D03*
Y269300D02*
D03*
Y282000D02*
D03*
X453000Y269300D02*
D03*
Y256700D02*
D03*
Y244000D02*
D03*
Y282000D02*
D03*
X394900Y129000D02*
D03*
Y167000D02*
D03*
Y154300D02*
D03*
Y141700D02*
D03*
X453000Y107000D02*
D03*
X395000D02*
D03*
Y94300D02*
D03*
Y81700D02*
D03*
Y69000D02*
D03*
X453000Y81700D02*
D03*
Y94300D02*
D03*
Y69000D02*
D03*
X394900Y14000D02*
D03*
X452900Y52000D02*
D03*
Y26700D02*
D03*
Y39300D02*
D03*
Y14000D02*
D03*
X394900Y26700D02*
D03*
Y39300D02*
D03*
Y52000D02*
D03*
D36*
X417900Y203000D02*
D03*
X430000Y148000D02*
D03*
X417900Y318000D02*
D03*
X430100Y263000D02*
D03*
X417900Y88000D02*
D03*
X430000Y33000D02*
D03*
D37*
X365000Y145000D02*
D03*
X321000D02*
D03*
X365000Y30000D02*
D03*
X321000D02*
D03*
X365000Y260000D02*
D03*
X321000D02*
D03*
D38*
X262000Y118000D02*
D03*
Y104000D02*
D03*
D39*
X140000Y220000D02*
D03*
X90000D02*
D03*
X115000D02*
D03*
Y195000D02*
D03*
X140000D02*
D03*
X90000D02*
D03*
X480000Y110000D02*
D03*
Y225000D02*
D03*
Y337000D02*
D03*
X170000Y259600D02*
D03*
D40*
X64000Y144000D02*
D03*
Y164000D02*
D03*
Y184000D02*
D03*
D41*
X480000Y175000D02*
D03*
Y290000D02*
D03*
Y60000D02*
D03*
D42*
X64000Y204000D02*
D03*
D43*
X170000Y310400D02*
D03*
D44*
X275000Y260000D02*
D03*
Y318000D02*
D03*
D45*
X157000Y188000D02*
D03*
D46*
X466000Y144000D02*
D03*
X430000Y132000D02*
D03*
X490000Y156000D02*
D03*
X478000Y204000D02*
D03*
X466000Y132000D02*
D03*
X478000Y144000D02*
D03*
X442000Y132000D02*
D03*
X466000Y180000D02*
D03*
Y156000D02*
D03*
X430000D02*
D03*
X454000Y192000D02*
D03*
X466000D02*
D03*
Y168000D02*
D03*
Y204000D02*
D03*
X454000D02*
D03*
X418000Y156000D02*
D03*
X454000D02*
D03*
X490000Y204000D02*
D03*
Y144000D02*
D03*
X442000Y156000D02*
D03*
X430000Y144000D02*
D03*
X478000Y156000D02*
D03*
X490000Y132000D02*
D03*
X454000Y144000D02*
D03*
Y132000D02*
D03*
X442000Y144000D02*
D03*
Y168000D02*
D03*
X478000Y132000D02*
D03*
X454000Y180000D02*
D03*
X490000Y192000D02*
D03*
X454000Y168000D02*
D03*
X478000Y192000D02*
D03*
X416000Y71000D02*
D03*
Y81000D02*
D03*
Y91000D02*
D03*
Y101000D02*
D03*
X426000Y341000D02*
D03*
Y331000D02*
D03*
Y321000D02*
D03*
Y311000D02*
D03*
Y211000D02*
D03*
Y201000D02*
D03*
Y191000D02*
D03*
Y181000D02*
D03*
X416000Y341000D02*
D03*
Y331000D02*
D03*
Y321000D02*
D03*
Y311000D02*
D03*
Y301000D02*
D03*
Y211000D02*
D03*
Y201000D02*
D03*
Y191000D02*
D03*
Y181000D02*
D03*
X406000Y341000D02*
D03*
Y331000D02*
D03*
Y321000D02*
D03*
Y311000D02*
D03*
Y301000D02*
D03*
Y211000D02*
D03*
Y201000D02*
D03*
Y191000D02*
D03*
Y101000D02*
D03*
Y91000D02*
D03*
Y81000D02*
D03*
Y71000D02*
D03*
X396000Y341000D02*
D03*
Y331000D02*
D03*
Y321000D02*
D03*
Y311000D02*
D03*
Y301000D02*
D03*
Y211000D02*
D03*
Y201000D02*
D03*
Y191000D02*
D03*
Y101000D02*
D03*
Y91000D02*
D03*
Y81000D02*
D03*
Y71000D02*
D03*
X386000Y341000D02*
D03*
Y331000D02*
D03*
Y321000D02*
D03*
Y311000D02*
D03*
Y301000D02*
D03*
Y211000D02*
D03*
Y201000D02*
D03*
Y191000D02*
D03*
Y181000D02*
D03*
Y101000D02*
D03*
Y91000D02*
D03*
Y81000D02*
D03*
Y71000D02*
D03*
X376000Y341000D02*
D03*
Y331000D02*
D03*
Y321000D02*
D03*
Y311000D02*
D03*
Y301000D02*
D03*
Y211000D02*
D03*
Y201000D02*
D03*
Y191000D02*
D03*
Y181000D02*
D03*
Y101000D02*
D03*
Y91000D02*
D03*
Y81000D02*
D03*
Y71000D02*
D03*
X366000Y341000D02*
D03*
Y331000D02*
D03*
Y321000D02*
D03*
Y311000D02*
D03*
Y301000D02*
D03*
Y211000D02*
D03*
Y201000D02*
D03*
Y191000D02*
D03*
Y181000D02*
D03*
Y101000D02*
D03*
Y91000D02*
D03*
Y81000D02*
D03*
Y71000D02*
D03*
X356000Y341000D02*
D03*
Y331000D02*
D03*
Y321000D02*
D03*
Y311000D02*
D03*
Y301000D02*
D03*
Y211000D02*
D03*
Y201000D02*
D03*
Y191000D02*
D03*
Y181000D02*
D03*
Y101000D02*
D03*
Y91000D02*
D03*
Y81000D02*
D03*
X338001Y263001D02*
D03*
Y191000D02*
D03*
Y183000D02*
D03*
Y175000D02*
D03*
Y151000D02*
D03*
Y143000D02*
D03*
Y95000D02*
D03*
Y71000D02*
D03*
Y47000D02*
D03*
Y39000D02*
D03*
Y31000D02*
D03*
X330001Y271001D02*
D03*
Y263001D02*
D03*
Y255000D02*
D03*
Y191000D02*
D03*
Y183000D02*
D03*
Y175000D02*
D03*
Y151000D02*
D03*
Y79000D02*
D03*
Y55000D02*
D03*
Y47000D02*
D03*
Y39000D02*
D03*
Y31000D02*
D03*
X322001Y279001D02*
D03*
Y271001D02*
D03*
Y263001D02*
D03*
Y255000D02*
D03*
Y247001D02*
D03*
Y191000D02*
D03*
Y183000D02*
D03*
Y175000D02*
D03*
Y87000D02*
D03*
Y63000D02*
D03*
Y55000D02*
D03*
Y47000D02*
D03*
Y39000D02*
D03*
Y31000D02*
D03*
X314001Y279001D02*
D03*
Y271001D02*
D03*
Y263001D02*
D03*
Y255000D02*
D03*
Y247001D02*
D03*
Y191000D02*
D03*
Y183000D02*
D03*
Y175000D02*
D03*
Y95000D02*
D03*
Y71000D02*
D03*
Y63000D02*
D03*
Y55000D02*
D03*
Y47000D02*
D03*
Y39000D02*
D03*
X490000Y318000D02*
D03*
Y306000D02*
D03*
Y270000D02*
D03*
Y258000D02*
D03*
Y246000D02*
D03*
X478000Y318000D02*
D03*
Y306000D02*
D03*
Y270000D02*
D03*
Y258000D02*
D03*
Y246000D02*
D03*
X466000Y318000D02*
D03*
Y306000D02*
D03*
Y294000D02*
D03*
Y282000D02*
D03*
Y270000D02*
D03*
Y258000D02*
D03*
Y246000D02*
D03*
X454000Y306000D02*
D03*
Y294000D02*
D03*
Y282000D02*
D03*
Y270000D02*
D03*
Y258000D02*
D03*
Y246000D02*
D03*
X442000Y282000D02*
D03*
Y270000D02*
D03*
Y258000D02*
D03*
Y246000D02*
D03*
X430000Y282000D02*
D03*
Y270000D02*
D03*
Y258000D02*
D03*
Y246000D02*
D03*
X418000Y270000D02*
D03*
Y258000D02*
D03*
Y246000D02*
D03*
X322000Y303000D02*
D03*
X306000D02*
D03*
X98000D02*
D03*
X18000D02*
D03*
X338000D02*
D03*
X50000Y319000D02*
D03*
X194000Y303000D02*
D03*
X306000Y335000D02*
D03*
X66000Y303000D02*
D03*
X34000Y319000D02*
D03*
X242000Y335000D02*
D03*
X34000D02*
D03*
X66000D02*
D03*
X82000Y303000D02*
D03*
X66000Y319000D02*
D03*
X130000D02*
D03*
X18000Y335000D02*
D03*
X210000Y319000D02*
D03*
Y335000D02*
D03*
X194000Y319000D02*
D03*
X242000D02*
D03*
Y303000D02*
D03*
X50000Y335000D02*
D03*
X322000D02*
D03*
X146000Y303000D02*
D03*
X130000D02*
D03*
X114000D02*
D03*
X210000D02*
D03*
X114000Y335000D02*
D03*
X146000D02*
D03*
X98000Y319000D02*
D03*
Y335000D02*
D03*
X50000Y303000D02*
D03*
X322000Y319000D02*
D03*
X338000Y335000D02*
D03*
X82000D02*
D03*
X114000Y319000D02*
D03*
X178000Y335000D02*
D03*
X226000Y319000D02*
D03*
Y335000D02*
D03*
X82000Y319000D02*
D03*
X306000D02*
D03*
X34000Y303000D02*
D03*
X226000D02*
D03*
X162000Y335000D02*
D03*
X18000Y319000D02*
D03*
X194000Y335000D02*
D03*
X146000Y319000D02*
D03*
X338000D02*
D03*
X130000Y335000D02*
D03*
X242000Y271000D02*
D03*
Y255000D02*
D03*
Y239000D02*
D03*
X226000Y271000D02*
D03*
Y255000D02*
D03*
Y239000D02*
D03*
X210000Y271000D02*
D03*
Y255000D02*
D03*
Y239000D02*
D03*
X194000Y271000D02*
D03*
Y255000D02*
D03*
Y239000D02*
D03*
X178000D02*
D03*
X162000D02*
D03*
X146000Y271000D02*
D03*
Y255000D02*
D03*
Y239000D02*
D03*
X130000Y271000D02*
D03*
Y255000D02*
D03*
Y239000D02*
D03*
X114000Y271000D02*
D03*
Y255000D02*
D03*
Y239000D02*
D03*
X98000Y271000D02*
D03*
Y255000D02*
D03*
Y239000D02*
D03*
X82000Y271000D02*
D03*
Y255000D02*
D03*
Y239000D02*
D03*
X66000Y271000D02*
D03*
Y255000D02*
D03*
Y239000D02*
D03*
X50000Y271000D02*
D03*
Y255000D02*
D03*
Y239000D02*
D03*
X34000Y271000D02*
D03*
Y255000D02*
D03*
Y239000D02*
D03*
X18000Y271000D02*
D03*
Y255000D02*
D03*
Y239000D02*
D03*
X490000Y91000D02*
D03*
Y79000D02*
D03*
Y43000D02*
D03*
Y31000D02*
D03*
Y19000D02*
D03*
X478000Y91000D02*
D03*
Y79000D02*
D03*
Y43000D02*
D03*
Y31000D02*
D03*
Y19000D02*
D03*
Y7000D02*
D03*
X466000Y91000D02*
D03*
Y79000D02*
D03*
Y67000D02*
D03*
Y55000D02*
D03*
Y43000D02*
D03*
Y31000D02*
D03*
Y19000D02*
D03*
Y7000D02*
D03*
X454000Y91000D02*
D03*
Y79000D02*
D03*
Y67000D02*
D03*
Y55000D02*
D03*
Y43000D02*
D03*
Y31000D02*
D03*
Y19000D02*
D03*
Y7000D02*
D03*
X442000Y55000D02*
D03*
Y43000D02*
D03*
Y31000D02*
D03*
Y19000D02*
D03*
Y7000D02*
D03*
X430000Y43000D02*
D03*
Y31000D02*
D03*
Y19000D02*
D03*
Y7000D02*
D03*
X418000Y31000D02*
D03*
Y19000D02*
D03*
Y7000D02*
D03*
M02*
