G04*
G04 #@! TF.GenerationSoftware,Altium Limited,Altium Designer,25.8.1 (18)*
G04*
G04 Layer_Physical_Order=2*
G04 Layer_Color=6736896*
%FSLAX44Y44*%
%MOMM*%
G71*
G04*
G04 #@! TF.SameCoordinates,D7C4C725-C8A4-46AB-A62B-07054BF05DDA*
G04*
G04*
G04 #@! TF.FilePolarity,Positive*
G04*
G01*
G75*
%ADD47C,0.3000*%
%ADD48C,0.5000*%
%ADD49C,1.6000*%
%ADD50C,1.3500*%
%ADD51R,2.3000X2.3000*%
%ADD52R,1.3500X1.3500*%
%ADD53R,1.6000X1.6000*%
%ADD54R,4.0000X4.0000*%
%ADD55C,0.6000*%
%ADD56C,0.5000*%
G36*
X500000Y235000D02*
X441926D01*
X441771Y235780D01*
X441329Y236442D01*
X440667Y236884D01*
X439887Y237039D01*
X412039D01*
Y273451D01*
X411884Y274232D01*
X411442Y274893D01*
X411245Y276656D01*
X422589Y288000D01*
X440000D01*
Y305411D01*
X464589Y330000D01*
X472858D01*
X473860Y328998D01*
X476140Y327682D01*
X478684Y327000D01*
X481316D01*
X483860Y327682D01*
X486140Y328998D01*
X487142Y330000D01*
X500000D01*
Y235000D01*
D02*
G37*
G36*
X20000Y350000D02*
X438000Y350000D01*
Y316388D01*
X411612Y290000D01*
X410000D01*
Y288388D01*
X390200Y268588D01*
X350500D01*
X348744Y268239D01*
X347256Y267244D01*
X345006Y264994D01*
X320000Y290000D01*
X0D01*
Y330000D01*
X-0Y331970D01*
X768Y335834D01*
X2276Y339474D01*
X4465Y342749D01*
X7251Y345535D01*
X10526Y347724D01*
X14166Y349231D01*
X18030Y350000D01*
X20000Y350000D01*
D02*
G37*
G36*
X410000Y273451D02*
Y235000D01*
X439887D01*
Y226588D01*
X354545D01*
X353098Y227000D01*
X352710Y228951D01*
X351605Y230605D01*
X351400Y230742D01*
X351855Y232242D01*
X385867D01*
X386049Y232120D01*
X388000Y231732D01*
X389951Y232120D01*
X391605Y233225D01*
X392710Y234879D01*
X393098Y236830D01*
X392710Y238781D01*
X391605Y240435D01*
X389951Y241540D01*
X388000Y241928D01*
X386049Y241540D01*
X385867Y241418D01*
X350000D01*
Y245431D01*
X351500Y245735D01*
X352395Y244395D01*
X354049Y243290D01*
X356000Y242902D01*
X357951Y243290D01*
X359605Y244395D01*
X360710Y246049D01*
X361098Y248000D01*
X360710Y249951D01*
X359605Y251605D01*
X357951Y252710D01*
X356000Y253098D01*
X354049Y252710D01*
X352395Y251605D01*
X351500Y250265D01*
X350000Y250569D01*
Y257011D01*
X352401Y259412D01*
X392100D01*
X393856Y259761D01*
X395345Y260756D01*
X408614Y274025D01*
X410000Y273451D01*
D02*
G37*
G36*
X343564Y263552D02*
X316600Y236588D01*
X276000D01*
X274244Y236239D01*
X272756Y235244D01*
X267511Y230000D01*
X140655D01*
X140000Y230086D01*
X139345Y230000D01*
X115655D01*
X115000Y230086D01*
X114345Y230000D01*
X90655D01*
X90000Y230086D01*
X89345Y230000D01*
X0D01*
Y287961D01*
X319155D01*
X343564Y263552D01*
D02*
G37*
G36*
X347961Y253012D02*
Y250569D01*
X347999Y250375D01*
X347999Y250178D01*
X348076Y249989D01*
X348116Y249788D01*
X348226Y249624D01*
X348301Y249441D01*
X348445Y249296D01*
X348558Y249127D01*
X348722Y249017D01*
X348861Y248877D01*
X349015Y248813D01*
X349063Y248687D01*
X349141Y248000D01*
X349063Y247313D01*
X349015Y247187D01*
X348861Y247123D01*
X348722Y246983D01*
X348558Y246873D01*
X348445Y246703D01*
X348301Y246559D01*
X348226Y246376D01*
X348116Y246212D01*
X348076Y246012D01*
X347999Y245823D01*
X347999Y245625D01*
X347961Y245431D01*
Y241418D01*
X345830D01*
X344074Y241069D01*
X342586Y240074D01*
X322744Y220233D01*
X286767D01*
X280974Y226026D01*
X281548Y227412D01*
X318500D01*
X320256Y227761D01*
X321744Y228756D01*
X346575Y253586D01*
X347961Y253012D01*
D02*
G37*
G36*
X263607Y226461D02*
X263000Y224995D01*
Y223005D01*
X263761Y221168D01*
X265168Y219761D01*
X267005Y219000D01*
X268995D01*
X270832Y219761D01*
X272239Y221168D01*
X272651Y222162D01*
X276962Y226474D01*
X278783Y226230D01*
X278935Y226026D01*
X279090Y225246D01*
X279532Y224584D01*
X279532Y224584D01*
X281971Y222145D01*
X281360Y220645D01*
X279523Y219884D01*
X278116Y218477D01*
X277355Y216639D01*
Y214650D01*
X278116Y212813D01*
X279523Y211406D01*
X281360Y210645D01*
X283349D01*
X283526Y210718D01*
X284375Y209446D01*
X283761Y208832D01*
X283000Y206995D01*
Y205005D01*
X283761Y203168D01*
X285168Y201761D01*
X287005Y201000D01*
X288995D01*
X290832Y201761D01*
X291614Y202543D01*
X292511Y202188D01*
X293000Y201808D01*
Y200005D01*
X293761Y198168D01*
X295168Y196761D01*
X297005Y196000D01*
X298995D01*
X299989Y196412D01*
X302961D01*
Y181877D01*
X301461Y180916D01*
X300478Y181323D01*
X298489D01*
X296651Y180562D01*
X295244Y179156D01*
X294720Y177890D01*
X293097Y177391D01*
X291588Y178901D01*
Y191011D01*
X292000Y192005D01*
Y193995D01*
X291239Y195832D01*
X289832Y197239D01*
X287995Y198000D01*
X286005D01*
X284168Y197239D01*
X282761Y195832D01*
X282000Y193995D01*
Y192005D01*
X282412Y191011D01*
Y177000D01*
X282761Y175244D01*
X283756Y173756D01*
X303755Y153756D01*
X303558Y151994D01*
X303116Y151332D01*
X302961Y150552D01*
Y148232D01*
X301461Y147610D01*
X300832Y148239D01*
X298995Y149000D01*
X297005D01*
X295168Y148239D01*
X293761Y146832D01*
X293000Y144995D01*
Y143005D01*
X293761Y141168D01*
X295168Y139761D01*
X296162Y139349D01*
X303755Y131756D01*
X303558Y129993D01*
X303116Y129332D01*
X302961Y128552D01*
Y128046D01*
X301575Y127472D01*
X283547Y145499D01*
Y146193D01*
X283586Y146704D01*
X283629Y147001D01*
X283685Y147277D01*
X283746Y147508D01*
X283811Y147696D01*
X283873Y147840D01*
X283929Y147941D01*
X283974Y148008D01*
X284217Y148251D01*
X284979Y150088D01*
Y152078D01*
X284217Y153915D01*
X282811Y155322D01*
X280973Y156083D01*
X278984D01*
X277146Y155322D01*
X275740Y153915D01*
X274979Y152078D01*
Y150088D01*
X275740Y148251D01*
X275983Y148008D01*
X276029Y147941D01*
X276084Y147839D01*
X276147Y147696D01*
X276211Y147508D01*
X276273Y147277D01*
X276329Y147001D01*
X276372Y146704D01*
X276410Y146193D01*
Y144021D01*
X276682Y142656D01*
X277455Y141498D01*
X285045Y133908D01*
X284693Y132139D01*
X284055Y131874D01*
X283500Y131320D01*
X282000Y131941D01*
Y132704D01*
X281239Y134542D01*
X279832Y135949D01*
X279333Y136156D01*
X265055Y150434D01*
Y192191D01*
X264706Y193947D01*
X263711Y195436D01*
X246852Y212295D01*
X246440Y213289D01*
X245033Y214696D01*
X243195Y215457D01*
X241206D01*
X239369Y214696D01*
X237962Y213289D01*
X237201Y211452D01*
Y209463D01*
X237962Y207625D01*
X239047Y206540D01*
X239029Y205889D01*
X238865Y205225D01*
X238710Y204917D01*
X237168Y204279D01*
X235761Y202872D01*
X235000Y201035D01*
Y199045D01*
X235761Y197208D01*
X237168Y195801D01*
X239005Y195040D01*
X240995D01*
X242832Y195801D01*
X244239Y197208D01*
X245000Y199045D01*
Y199048D01*
X246500Y199669D01*
X255878Y190291D01*
Y148533D01*
X256228Y146778D01*
X257222Y145289D01*
X272144Y130367D01*
X272761Y128878D01*
X274168Y127471D01*
X276005Y126710D01*
X277995D01*
X279832Y127471D01*
X280387Y128026D01*
X281887Y127404D01*
Y126641D01*
X282648Y124803D01*
X284055Y123397D01*
X285892Y122635D01*
X287882D01*
X289719Y123397D01*
X291126Y124803D01*
X291390Y125442D01*
X293160Y125794D01*
X301431Y117522D01*
Y112514D01*
X301703Y111148D01*
X302477Y109990D01*
X303755Y108712D01*
X303558Y106949D01*
X303116Y106287D01*
X302961Y105507D01*
Y104070D01*
X301461Y103393D01*
X299995Y104000D01*
X298005D01*
X296168Y103239D01*
X294761Y101832D01*
X294000Y99995D01*
Y98005D01*
X294761Y96168D01*
X296168Y94761D01*
X297162Y94349D01*
X303755Y87756D01*
X303558Y85993D01*
X303116Y85332D01*
X302961Y84552D01*
Y34595D01*
X301461Y34296D01*
X301239Y34832D01*
X299832Y36239D01*
X297995Y37000D01*
X296005D01*
X294168Y36239D01*
X292761Y34832D01*
X292000Y32995D01*
Y31346D01*
X291999Y31004D01*
X290809Y29960D01*
X290005D01*
X288168Y29199D01*
X286761Y27792D01*
X286000Y25955D01*
Y23965D01*
X286761Y22128D01*
X288168Y20721D01*
X290005Y19960D01*
X291995D01*
X293832Y20721D01*
X295239Y22128D01*
X296000Y23965D01*
Y25614D01*
X296001Y25956D01*
X297191Y27000D01*
X297995D01*
X299832Y27761D01*
X301239Y29168D01*
X301461Y29704D01*
X302961Y29405D01*
Y0D01*
X18030D01*
X14166Y769D01*
X10526Y2276D01*
X7251Y4465D01*
X4465Y7251D01*
X2276Y10526D01*
X769Y14166D01*
X0Y18030D01*
Y20000D01*
Y52961D01*
X32000D01*
X32780Y53116D01*
X33442Y53558D01*
X33884Y54220D01*
X34039Y55000D01*
Y61000D01*
X33884Y61780D01*
X33442Y62442D01*
X32780Y62884D01*
X32000Y63039D01*
X0D01*
Y227961D01*
X81859D01*
X82433Y226575D01*
X81998Y226140D01*
X80681Y223860D01*
X80000Y221317D01*
Y218683D01*
X80681Y216140D01*
X81998Y213860D01*
X83860Y211998D01*
X86140Y210681D01*
X88684Y210000D01*
X91316D01*
X93860Y210681D01*
X96140Y211998D01*
X98002Y213860D01*
X99319Y216140D01*
X100000Y218683D01*
Y221317D01*
X99319Y223860D01*
X98002Y226140D01*
X97567Y226575D01*
X98141Y227961D01*
X106859D01*
X107433Y226575D01*
X106998Y226140D01*
X105681Y223860D01*
X105000Y221317D01*
Y218683D01*
X105681Y216140D01*
X106998Y213860D01*
X108860Y211998D01*
X111140Y210681D01*
X113684Y210000D01*
X116316D01*
X118860Y210681D01*
X121140Y211998D01*
X123002Y213860D01*
X124319Y216140D01*
X125000Y218683D01*
Y221317D01*
X124319Y223860D01*
X123002Y226140D01*
X122567Y226575D01*
X123141Y227961D01*
X131859D01*
X132433Y226575D01*
X131998Y226140D01*
X130681Y223860D01*
X130000Y221317D01*
Y218683D01*
X130681Y216140D01*
X131998Y213860D01*
X133860Y211998D01*
X136140Y210681D01*
X138684Y210000D01*
X141316D01*
X143860Y210681D01*
X146140Y211998D01*
X148002Y213860D01*
X149319Y216140D01*
X150000Y218683D01*
Y221317D01*
X149319Y223860D01*
X148002Y226140D01*
X147567Y226575D01*
X148141Y227961D01*
X262930D01*
X263607Y226461D01*
D02*
G37*
G36*
X343185Y225575D02*
X343290Y225049D01*
X344395Y223395D01*
X345828Y222438D01*
X346332Y220821D01*
X331100Y205588D01*
X301412D01*
X297329Y209671D01*
X297903Y211057D01*
X324645D01*
X326401Y211406D01*
X327889Y212401D01*
X341558Y226069D01*
X343185Y225575D01*
D02*
G37*
G36*
X282189Y149010D02*
X282040Y148738D01*
X281909Y148435D01*
X281794Y148103D01*
X281698Y147741D01*
X281619Y147350D01*
X281558Y146928D01*
X281488Y145996D01*
X281479Y145485D01*
X278479D01*
X278470Y145996D01*
X278400Y146928D01*
X278338Y147350D01*
X278259Y147741D01*
X278163Y148103D01*
X278049Y148435D01*
X277917Y148738D01*
X277768Y149010D01*
X277602Y149253D01*
X282356D01*
X282189Y149010D01*
D02*
G37*
G36*
X347961Y207512D02*
Y171899D01*
X347962Y171892D01*
X347049Y171710D01*
X345395Y170605D01*
X344290Y168951D01*
X343902Y167000D01*
X344290Y165049D01*
X345395Y163395D01*
X347049Y162290D01*
X347962Y162108D01*
X347961Y162101D01*
Y131609D01*
X347999Y131415D01*
X347999Y131217D01*
X348076Y131028D01*
X348116Y130828D01*
X348226Y130664D01*
X348301Y130481D01*
X348445Y130337D01*
X348558Y130167D01*
X348722Y130057D01*
X348861Y129917D01*
X349050Y129838D01*
X349220Y129725D01*
X349413Y129686D01*
X349595Y129610D01*
X350000Y129528D01*
Y125588D01*
X344901D01*
X305000Y165489D01*
Y196412D01*
X333000D01*
X334756Y196761D01*
X336244Y197756D01*
X346575Y208086D01*
X347961Y207512D01*
D02*
G37*
G36*
X500000Y120000D02*
X441926D01*
Y120000D01*
X441771Y120780D01*
X441329Y121442D01*
X440667Y121884D01*
X439887Y122039D01*
X412039D01*
Y170961D01*
X439887D01*
X440667Y171116D01*
X441329Y171558D01*
X441771Y172220D01*
X441926Y173000D01*
Y215000D01*
X500000D01*
Y120000D01*
D02*
G37*
G36*
X439887Y173000D02*
X410000D01*
Y120000D01*
X439887D01*
Y113588D01*
X350000D01*
Y116412D01*
X388867D01*
X389049Y116290D01*
X391000Y115902D01*
X392951Y116290D01*
X394605Y117395D01*
X395710Y119049D01*
X396098Y121000D01*
X395710Y122951D01*
X394605Y124605D01*
X392951Y125710D01*
X391000Y126098D01*
X389049Y125710D01*
X388867Y125588D01*
X361298D01*
X360591Y126911D01*
X360710Y127089D01*
X361098Y129040D01*
X360710Y130991D01*
X359605Y132645D01*
X357951Y133750D01*
X356000Y134138D01*
X354049Y133750D01*
X352395Y132645D01*
X351500Y131305D01*
X350000Y131609D01*
Y162101D01*
X350951Y162290D01*
X352605Y163395D01*
X353710Y165049D01*
X354098Y167000D01*
X353710Y168951D01*
X352605Y170605D01*
X350951Y171710D01*
X350000Y171899D01*
Y211511D01*
X355900Y217412D01*
X439887D01*
Y173000D01*
D02*
G37*
G36*
X339756Y117756D02*
X341244Y116761D01*
X343000Y116412D01*
X347961D01*
Y113588D01*
X334900D01*
X305000Y143489D01*
Y150552D01*
X306386Y151126D01*
X339756Y117756D01*
D02*
G37*
G36*
X329756Y105756D02*
X331244Y104761D01*
X333000Y104412D01*
X347961D01*
Y76721D01*
X346461Y76100D01*
X308569Y113992D01*
Y119000D01*
X308297Y120366D01*
X307523Y121523D01*
X305000Y124047D01*
Y128552D01*
X306386Y129125D01*
X329756Y105756D01*
D02*
G37*
G36*
X346355Y73292D02*
X347064Y72683D01*
X347405Y72428D01*
X347738Y72207D01*
X348062Y72019D01*
X348378Y71865D01*
X348684Y71744D01*
X348983Y71657D01*
X349272Y71603D01*
X345910Y68241D01*
X345857Y68531D01*
X345769Y68829D01*
X345648Y69136D01*
X345494Y69451D01*
X345307Y69776D01*
X345085Y70108D01*
X344831Y70450D01*
X344221Y71159D01*
X343866Y71526D01*
X345988Y73647D01*
X346355Y73292D01*
D02*
G37*
G36*
X342904Y69563D02*
X343238Y69174D01*
X343418Y68934D01*
X343573Y68699D01*
X343694Y68492D01*
X343781Y68313D01*
X343838Y68168D01*
X343871Y68057D01*
X343905Y67869D01*
X343971Y67705D01*
X344175Y66677D01*
X345280Y65024D01*
X346934Y63918D01*
X347961Y63714D01*
Y58488D01*
X346575Y57914D01*
X305000Y99489D01*
Y105507D01*
X306386Y106081D01*
X342904Y69563D01*
D02*
G37*
G36*
X500000Y20000D02*
Y18030D01*
X499231Y14166D01*
X497724Y10526D01*
X495535Y7251D01*
X492749Y4465D01*
X489473Y2276D01*
X485834Y769D01*
X481970Y0D01*
X412039D01*
Y55961D01*
X438592D01*
X438789Y56000D01*
X438990D01*
X439176Y56077D01*
X439373Y56116D01*
X439540Y56228D01*
X439725Y56304D01*
X439868Y56446D01*
X440034Y56558D01*
X440141Y56717D01*
X441020Y57305D01*
X441162Y57447D01*
X441329Y57558D01*
X441441Y57725D01*
X441583Y57867D01*
X441659Y58053D01*
X441771Y58220D01*
X441810Y58417D01*
X441887Y58602D01*
Y58803D01*
X441926Y59000D01*
Y100000D01*
X500000D01*
Y20000D01*
D02*
G37*
G36*
X439887Y59000D02*
X438756Y58244D01*
X438592Y58000D01*
X410000D01*
Y0D01*
X394569D01*
X394265Y1500D01*
X395605Y2395D01*
X396710Y4049D01*
X397098Y6000D01*
X396710Y7951D01*
X395605Y9605D01*
X393951Y10710D01*
X393736Y10753D01*
X350000Y54489D01*
Y63752D01*
X350836Y63918D01*
X352490Y65024D01*
X353595Y66677D01*
X353983Y68628D01*
X353595Y70579D01*
X352490Y72233D01*
X350836Y73338D01*
X350000Y73505D01*
Y104412D01*
X439887D01*
Y59000D01*
D02*
G37*
G36*
X387247Y4264D02*
X387290Y4049D01*
X388395Y2395D01*
X389735Y1500D01*
X389431Y0D01*
X360978D01*
X360176Y1500D01*
X360710Y2299D01*
X361098Y4250D01*
X360710Y6201D01*
X359605Y7855D01*
X357951Y8960D01*
X356000Y9348D01*
X354049Y8960D01*
X352395Y7855D01*
X351500Y6515D01*
X350000Y6819D01*
Y39552D01*
X351386Y40126D01*
X387247Y4264D01*
D02*
G37*
G36*
X348755Y42756D02*
X348558Y40993D01*
X348116Y40332D01*
X347961Y39552D01*
Y6819D01*
X347999Y6625D01*
X347999Y6428D01*
X348076Y6238D01*
X348116Y6038D01*
X348226Y5874D01*
X348301Y5691D01*
X348445Y5547D01*
X348558Y5377D01*
X348722Y5267D01*
X348861Y5127D01*
X349050Y5048D01*
X349220Y4935D01*
X349413Y4896D01*
X349595Y4820D01*
X350000Y4738D01*
Y0D01*
X305000D01*
Y84552D01*
X306386Y85126D01*
X348755Y42756D01*
D02*
G37*
%LPC*%
G36*
X195995Y221000D02*
X194005D01*
X192168Y220239D01*
X190761Y218832D01*
X190000Y216995D01*
Y215005D01*
X190761Y213168D01*
X192168Y211761D01*
X194005Y211000D01*
X195995D01*
X197832Y211761D01*
X199239Y213168D01*
X200000Y215005D01*
Y216995D01*
X199239Y218832D01*
X197832Y220239D01*
X195995Y221000D01*
D02*
G37*
G36*
X213995Y213000D02*
X212005D01*
X210168Y212239D01*
X208761Y210832D01*
X208000Y208995D01*
Y207005D01*
X208761Y205168D01*
X210168Y203761D01*
X212005Y203000D01*
X213995D01*
X215832Y203761D01*
X217239Y205168D01*
X218000Y207005D01*
Y208995D01*
X217239Y210832D01*
X215832Y212239D01*
X213995Y213000D01*
D02*
G37*
G36*
X72750Y212750D02*
X55250D01*
Y195250D01*
X72750D01*
Y212750D01*
D02*
G37*
G36*
X141316Y205000D02*
X138684D01*
X136140Y204319D01*
X133860Y203002D01*
X131998Y201140D01*
X130681Y198860D01*
X130000Y196317D01*
Y193683D01*
X130681Y191140D01*
X131998Y188860D01*
X133860Y186998D01*
X136140Y185681D01*
X138684Y185000D01*
X141316D01*
X143860Y185681D01*
X146140Y186998D01*
X148002Y188860D01*
X149319Y191140D01*
X150000Y193683D01*
Y196317D01*
X149319Y198860D01*
X148002Y201140D01*
X146140Y203002D01*
X143860Y204319D01*
X141316Y205000D01*
D02*
G37*
G36*
X116316D02*
X113684D01*
X111140Y204319D01*
X108860Y203002D01*
X106998Y201140D01*
X105681Y198860D01*
X105000Y196317D01*
Y193683D01*
X105681Y191140D01*
X106998Y188860D01*
X108860Y186998D01*
X111140Y185681D01*
X113684Y185000D01*
X116316D01*
X118860Y185681D01*
X121140Y186998D01*
X123002Y188860D01*
X124319Y191140D01*
X125000Y193683D01*
Y196317D01*
X124319Y198860D01*
X123002Y201140D01*
X121140Y203002D01*
X118860Y204319D01*
X116316Y205000D01*
D02*
G37*
G36*
X91316D02*
X88684D01*
X86140Y204319D01*
X83860Y203002D01*
X81998Y201140D01*
X80681Y198860D01*
X80000Y196317D01*
Y193683D01*
X80681Y191140D01*
X81998Y188860D01*
X83860Y186998D01*
X86140Y185681D01*
X88684Y185000D01*
X91316D01*
X93860Y185681D01*
X96140Y186998D01*
X98002Y188860D01*
X99319Y191140D01*
X100000Y193683D01*
Y196317D01*
X99319Y198860D01*
X98002Y201140D01*
X96140Y203002D01*
X93860Y204319D01*
X91316Y205000D01*
D02*
G37*
G36*
X223995Y193000D02*
X222005D01*
X220168Y192239D01*
X218761Y190832D01*
X218000Y188995D01*
Y187005D01*
X218761Y185168D01*
X220168Y183761D01*
X222005Y183000D01*
X223995D01*
X225832Y183761D01*
X227239Y185168D01*
X228000Y187005D01*
Y188995D01*
X227239Y190832D01*
X225832Y192239D01*
X223995Y193000D01*
D02*
G37*
G36*
X157995D02*
X156005D01*
X154168Y192239D01*
X152761Y190832D01*
X152000Y188995D01*
Y187005D01*
X152761Y185168D01*
X154168Y183761D01*
X156005Y183000D01*
X157995D01*
X159832Y183761D01*
X161239Y185168D01*
X162000Y187005D01*
Y188995D01*
X161239Y190832D01*
X159832Y192239D01*
X157995Y193000D01*
D02*
G37*
G36*
X65152Y192750D02*
X62848D01*
X60623Y192154D01*
X58627Y191002D01*
X56998Y189373D01*
X55846Y187377D01*
X55250Y185152D01*
Y182848D01*
X55846Y180623D01*
X56998Y178627D01*
X58627Y176998D01*
X60623Y175846D01*
X62848Y175250D01*
X65152D01*
X67377Y175846D01*
X69373Y176998D01*
X71002Y178627D01*
X72154Y180623D01*
X72750Y182848D01*
Y185152D01*
X72154Y187377D01*
X71002Y189373D01*
X69373Y191002D01*
X67377Y192154D01*
X65152Y192750D01*
D02*
G37*
G36*
X242350Y179645D02*
X240360D01*
X238523Y178884D01*
X237116Y177477D01*
X236355Y175640D01*
Y173650D01*
X237116Y171813D01*
X238523Y170406D01*
X240360Y169645D01*
X242350D01*
X244187Y170406D01*
X245594Y171813D01*
X246355Y173650D01*
Y175640D01*
X245594Y177477D01*
X244187Y178884D01*
X242350Y179645D01*
D02*
G37*
G36*
X164995Y179000D02*
X163005D01*
X161168Y178239D01*
X159761Y176832D01*
X159000Y174995D01*
Y173005D01*
X159761Y171168D01*
X161168Y169761D01*
X163005Y169000D01*
X164995D01*
X166832Y169761D01*
X168239Y171168D01*
X169000Y173005D01*
Y174995D01*
X168239Y176832D01*
X166832Y178239D01*
X164995Y179000D01*
D02*
G37*
G36*
X214285Y173000D02*
X212295D01*
X210458Y172239D01*
X209051Y170832D01*
X208290Y168995D01*
Y167005D01*
X209051Y165168D01*
X210458Y163761D01*
X212295Y163000D01*
X214285D01*
X216122Y163761D01*
X217529Y165168D01*
X218290Y167005D01*
Y168995D01*
X217529Y170832D01*
X216122Y172239D01*
X214285Y173000D01*
D02*
G37*
G36*
X174995Y164000D02*
X173005D01*
X171168Y163239D01*
X169761Y161832D01*
X169058Y160135D01*
X168397Y159824D01*
X167500Y159571D01*
X166832Y160239D01*
X164995Y161000D01*
X163005D01*
X161168Y160239D01*
X159761Y158832D01*
X159000Y156995D01*
Y155386D01*
X158998Y155004D01*
X157793Y154000D01*
X157006D01*
X155168Y153239D01*
X153761Y151832D01*
X153000Y149995D01*
Y148006D01*
X153761Y146168D01*
X155168Y144761D01*
X157006Y144000D01*
X158995D01*
X160832Y144761D01*
X162239Y146168D01*
X163000Y148006D01*
Y149614D01*
X163001Y149996D01*
X164207Y151000D01*
X164995D01*
X166832Y151761D01*
X168239Y153168D01*
X168942Y154866D01*
X169603Y155176D01*
X170500Y155429D01*
X171168Y154761D01*
X173005Y154000D01*
X173969Y152500D01*
X173760Y151995D01*
Y150006D01*
X174521Y148168D01*
X175928Y146761D01*
X177765Y146000D01*
X179755D01*
X181592Y146761D01*
X182999Y148168D01*
X183760Y150006D01*
Y151995D01*
X182999Y153832D01*
X181592Y155239D01*
X179755Y156000D01*
X178791Y157500D01*
X179000Y158005D01*
Y159995D01*
X178239Y161832D01*
X176832Y163239D01*
X174995Y164000D01*
D02*
G37*
G36*
X65152Y172750D02*
X62848D01*
X60623Y172154D01*
X58627Y171002D01*
X56998Y169373D01*
X55846Y167377D01*
X55250Y165152D01*
Y162848D01*
X55846Y160623D01*
X56998Y158627D01*
X58627Y156998D01*
X60623Y155846D01*
X62848Y155250D01*
X65152D01*
X67377Y155846D01*
X69373Y156998D01*
X71002Y158627D01*
X72154Y160623D01*
X72750Y162848D01*
Y165152D01*
X72154Y167377D01*
X71002Y169373D01*
X69373Y171002D01*
X67377Y172154D01*
X65152Y172750D01*
D02*
G37*
G36*
X241995Y160040D02*
X240005D01*
X238168Y159279D01*
X236761Y157872D01*
X236000Y156034D01*
Y154045D01*
X236761Y152208D01*
X238168Y150801D01*
X240005Y150040D01*
X241995D01*
X243832Y150801D01*
X245239Y152208D01*
X246000Y154045D01*
Y156034D01*
X245239Y157872D01*
X243832Y159279D01*
X241995Y160040D01*
D02*
G37*
G36*
X114805Y158431D02*
X112816D01*
X110978Y157670D01*
X109572Y156264D01*
X108811Y154426D01*
Y152437D01*
X109572Y150599D01*
X110978Y149193D01*
X112816Y148431D01*
X114805D01*
X116643Y149193D01*
X118049Y150599D01*
X118811Y152437D01*
Y154426D01*
X118049Y156264D01*
X116643Y157670D01*
X114805Y158431D01*
D02*
G37*
G36*
X65270Y151963D02*
Y145270D01*
X71963D01*
X71473Y147096D01*
X70418Y148924D01*
X68924Y150418D01*
X67096Y151474D01*
X65270Y151963D01*
D02*
G37*
G36*
X62730D02*
X60904Y151474D01*
X59076Y150418D01*
X57582Y148924D01*
X56526Y147096D01*
X56037Y145270D01*
X62730D01*
Y151963D01*
D02*
G37*
G36*
X230995Y153000D02*
X229005D01*
X227168Y152239D01*
X225761Y150832D01*
X225000Y148995D01*
Y147005D01*
X225761Y145168D01*
X227168Y143761D01*
X229005Y143000D01*
X230995D01*
X232832Y143761D01*
X234239Y145168D01*
X235000Y147005D01*
Y148995D01*
X234239Y150832D01*
X232832Y152239D01*
X230995Y153000D01*
D02*
G37*
G36*
X71963Y142730D02*
X65270D01*
Y136037D01*
X67096Y136526D01*
X68924Y137582D01*
X70418Y139076D01*
X71473Y140904D01*
X71963Y142730D01*
D02*
G37*
G36*
X62730D02*
X56037D01*
X56526Y140904D01*
X57582Y139076D01*
X59076Y137582D01*
X60904Y136526D01*
X62730Y136037D01*
Y142730D01*
D02*
G37*
G36*
X208705Y146000D02*
X206715D01*
X204878Y145239D01*
X203471Y143832D01*
X202710Y141995D01*
Y140005D01*
X203471Y138168D01*
X204878Y136761D01*
X206715Y136000D01*
X208705D01*
X210542Y136761D01*
X211949Y138168D01*
X212710Y140005D01*
Y141995D01*
X211949Y143832D01*
X210542Y145239D01*
X208705Y146000D01*
D02*
G37*
G36*
X248995Y142000D02*
X247005D01*
X245168Y141239D01*
X243761Y139832D01*
X243000Y137995D01*
Y136005D01*
X243761Y134168D01*
X245168Y132761D01*
X247005Y132000D01*
X248995D01*
X250832Y132761D01*
X252239Y134168D01*
X253000Y136005D01*
Y137995D01*
X252239Y139832D01*
X250832Y141239D01*
X248995Y142000D01*
D02*
G37*
G36*
X262995Y133000D02*
X261005D01*
X259168Y132239D01*
X257761Y130832D01*
X257000Y128995D01*
Y127005D01*
X257761Y125168D01*
X259168Y123761D01*
X261005Y123000D01*
X262995D01*
X264832Y123761D01*
X266239Y125168D01*
X267000Y127005D01*
Y128995D01*
X266239Y130832D01*
X264832Y132239D01*
X262995Y133000D01*
D02*
G37*
G36*
X104995Y127000D02*
X103005D01*
X101168Y126239D01*
X99761Y124832D01*
X99000Y122995D01*
Y121005D01*
X99575Y119618D01*
X98303Y118768D01*
X97832Y119239D01*
X95995Y120000D01*
X94005D01*
X92168Y119239D01*
X90761Y117832D01*
X90000Y115995D01*
Y114005D01*
X90761Y112168D01*
X92168Y110761D01*
X94005Y110000D01*
X95995D01*
X97832Y110761D01*
X99239Y112168D01*
X100000Y114005D01*
Y115995D01*
X99425Y117382D01*
X100697Y118232D01*
X101168Y117761D01*
X103005Y117000D01*
X104995D01*
X106832Y117761D01*
X108239Y119168D01*
X109000Y121005D01*
Y122995D01*
X108239Y124832D01*
X106832Y126239D01*
X104995Y127000D01*
D02*
G37*
G36*
X181942Y129052D02*
X179953D01*
X178116Y128291D01*
X176709Y126885D01*
X175948Y125047D01*
Y123058D01*
X176709Y121220D01*
X178116Y119813D01*
X179953Y119052D01*
X181942D01*
X183780Y119813D01*
X184500Y120534D01*
X186000Y119912D01*
Y119005D01*
X186761Y117168D01*
X188168Y115761D01*
X190005Y115000D01*
X191995D01*
X193635Y115680D01*
X193887Y115740D01*
X195351Y115158D01*
X195761Y114168D01*
X197168Y112761D01*
X199005Y112000D01*
X200995D01*
X202832Y112761D01*
X204239Y114168D01*
X205000Y116005D01*
Y117995D01*
X204239Y119832D01*
X202832Y121239D01*
X200995Y122000D01*
X199005D01*
X197365Y121320D01*
X197113Y121260D01*
X195649Y121842D01*
X195239Y122832D01*
X193832Y124239D01*
X191995Y125000D01*
X190005D01*
X188168Y124239D01*
X187448Y123519D01*
X185948Y124140D01*
Y125047D01*
X185187Y126885D01*
X183780Y128291D01*
X181942Y129052D01*
D02*
G37*
G36*
X229995Y120000D02*
X228005D01*
X226168Y119239D01*
X224761Y117832D01*
X224000Y115995D01*
Y114005D01*
X224761Y112168D01*
X226168Y110761D01*
X228005Y110000D01*
X229995D01*
X231832Y110761D01*
X233239Y112168D01*
X234000Y114005D01*
Y115995D01*
X233239Y117832D01*
X231832Y119239D01*
X229995Y120000D01*
D02*
G37*
G36*
X59995Y118000D02*
X58005D01*
X56168Y117239D01*
X54761Y115832D01*
X54000Y113995D01*
Y112005D01*
X54761Y110168D01*
X56168Y108761D01*
X58005Y108000D01*
X59995D01*
X61832Y108761D01*
X63239Y110168D01*
X64000Y112005D01*
Y113995D01*
X63239Y115832D01*
X61832Y117239D01*
X59995Y118000D01*
D02*
G37*
G36*
X198995Y110000D02*
X197005D01*
X195168Y109239D01*
X193761Y107832D01*
X193000Y105995D01*
Y104005D01*
X193761Y102168D01*
X195168Y100761D01*
X197005Y100000D01*
X198995D01*
X200832Y100761D01*
X202239Y102168D01*
X203000Y104005D01*
Y105995D01*
X202239Y107832D01*
X200832Y109239D01*
X198995Y110000D01*
D02*
G37*
G36*
X59402Y105593D02*
X57413D01*
X55575Y104831D01*
X54169Y103425D01*
X53407Y101587D01*
Y99598D01*
X54169Y97760D01*
X55575Y96354D01*
X57413Y95593D01*
X59402D01*
X61240Y96354D01*
X62646Y97760D01*
X63407Y99598D01*
Y101587D01*
X62646Y103425D01*
X61240Y104831D01*
X59402Y105593D01*
D02*
G37*
G36*
X60995Y93000D02*
X59005D01*
X57168Y92239D01*
X55761Y90832D01*
X55000Y88995D01*
Y87005D01*
X55761Y85168D01*
X57168Y83761D01*
X59005Y83000D01*
X60995D01*
X62832Y83761D01*
X64239Y85168D01*
X65000Y87005D01*
Y88995D01*
X64239Y90832D01*
X62832Y92239D01*
X60995Y93000D01*
D02*
G37*
G36*
X187995Y89000D02*
X186005D01*
X184168Y88239D01*
X182761Y86832D01*
X182000Y84995D01*
Y83006D01*
X182761Y81168D01*
X184168Y79761D01*
X186005Y79000D01*
X187995D01*
X189832Y79761D01*
X191239Y81168D01*
X192000Y83006D01*
Y84995D01*
X191239Y86832D01*
X189832Y88239D01*
X187995Y89000D01*
D02*
G37*
G36*
X95995Y86000D02*
X94005D01*
X92168Y85239D01*
X90761Y83832D01*
X90000Y81995D01*
Y80005D01*
X90761Y78168D01*
X92168Y76761D01*
X94005Y76000D01*
X95995D01*
X97832Y76761D01*
X99239Y78168D01*
X100000Y80005D01*
Y81995D01*
X99239Y83832D01*
X97832Y85239D01*
X95995Y86000D01*
D02*
G37*
G36*
X163995Y72000D02*
X162005D01*
X160168Y71239D01*
X158761Y69832D01*
X157167Y69904D01*
X156832Y70239D01*
X154995Y71000D01*
X153006D01*
X151168Y70239D01*
X150126Y69197D01*
X148736Y69287D01*
X148404Y69434D01*
X148239Y69832D01*
X146832Y71239D01*
X144995Y72000D01*
X143005D01*
X141168Y71239D01*
X139761Y69832D01*
X139000Y67995D01*
Y66005D01*
X139761Y64168D01*
X141168Y62761D01*
X143005Y62000D01*
X144995D01*
X146832Y62761D01*
X147874Y63803D01*
X149264Y63713D01*
X149596Y63566D01*
X149761Y63168D01*
X151168Y61761D01*
X153006Y61000D01*
X154995D01*
X156832Y61761D01*
X158239Y63168D01*
X159833Y63096D01*
X160168Y62761D01*
X162005Y62000D01*
X163995D01*
X165832Y62761D01*
X167239Y64168D01*
X168000Y66006D01*
Y67995D01*
X167239Y69832D01*
X165832Y71239D01*
X163995Y72000D01*
D02*
G37*
G36*
X268995Y88000D02*
X267005D01*
X265168Y87239D01*
X263761Y85832D01*
X263000Y83995D01*
Y82005D01*
X263761Y80168D01*
X265168Y78761D01*
X266398Y78252D01*
Y76628D01*
X265458Y76239D01*
X264051Y74832D01*
X263290Y72994D01*
Y71005D01*
X264051Y69168D01*
X265458Y67761D01*
X267295Y67000D01*
X269285D01*
X271122Y67761D01*
X272529Y69168D01*
X273290Y71005D01*
Y72994D01*
X272529Y74832D01*
X271122Y76239D01*
X269892Y76748D01*
Y78372D01*
X270832Y78761D01*
X272239Y80168D01*
X273000Y82005D01*
Y83995D01*
X272239Y85832D01*
X270832Y87239D01*
X268995Y88000D01*
D02*
G37*
G36*
X202995Y74000D02*
X201005D01*
X199168Y73239D01*
X197761Y71832D01*
X197000Y69995D01*
Y68005D01*
X197761Y66168D01*
X199168Y64761D01*
X201005Y64000D01*
X202995D01*
X204832Y64761D01*
X206239Y66168D01*
X207000Y68005D01*
Y69995D01*
X206239Y71832D01*
X204832Y73239D01*
X202995Y74000D01*
D02*
G37*
G36*
X171995Y84000D02*
X170005D01*
X168168Y83239D01*
X166761Y81832D01*
X166000Y79995D01*
Y78005D01*
X166761Y76168D01*
X168168Y74761D01*
X170005Y74000D01*
X171995D01*
X173193Y74496D01*
X174042Y73225D01*
X173691Y72874D01*
X172930Y71036D01*
Y69047D01*
X173691Y67209D01*
X175098Y65802D01*
X176935Y65041D01*
X178925D01*
X180762Y65802D01*
X181675Y66715D01*
X182790Y66109D01*
X183000Y65919D01*
Y64005D01*
X183761Y62168D01*
X185168Y60761D01*
X187005Y60000D01*
X188995D01*
X190832Y60761D01*
X192239Y62168D01*
X193000Y64005D01*
Y65995D01*
X192239Y67832D01*
X190832Y69239D01*
X188995Y70000D01*
X187005D01*
X185168Y69239D01*
X184255Y68326D01*
X183140Y68932D01*
X182930Y69122D01*
Y71036D01*
X182169Y72874D01*
X180762Y74280D01*
X178925Y75041D01*
X176935D01*
X175737Y74545D01*
X174888Y75817D01*
X175239Y76168D01*
X176000Y78005D01*
Y79995D01*
X175239Y81832D01*
X173832Y83239D01*
X171995Y84000D01*
D02*
G37*
G36*
X100995Y64000D02*
X99005D01*
X97168Y63239D01*
X95761Y61832D01*
X95000Y59995D01*
Y58005D01*
X95761Y56168D01*
X97168Y54761D01*
X99005Y54000D01*
X100995D01*
X102832Y54761D01*
X104239Y56168D01*
X105000Y58005D01*
Y59995D01*
X104239Y61832D01*
X102832Y63239D01*
X100995Y64000D01*
D02*
G37*
G36*
X208995Y61000D02*
X207006D01*
X205168Y60239D01*
X203761Y58832D01*
X203000Y56995D01*
Y55005D01*
X203761Y53168D01*
X205168Y51761D01*
X207006Y51000D01*
X208995D01*
X210832Y51761D01*
X212239Y53168D01*
X213000Y55005D01*
Y56995D01*
X212239Y58832D01*
X210832Y60239D01*
X208995Y61000D01*
D02*
G37*
G36*
X236995Y47000D02*
X235005D01*
X233168Y46239D01*
X231761Y44832D01*
X231000Y42995D01*
Y41005D01*
X231761Y39168D01*
X233168Y37761D01*
X235005Y37000D01*
X236995D01*
X238832Y37761D01*
X240239Y39168D01*
X241000Y41005D01*
Y42995D01*
X240239Y44832D01*
X238832Y46239D01*
X236995Y47000D01*
D02*
G37*
G36*
X123995Y38000D02*
X122005D01*
X120168Y37239D01*
X118761Y35832D01*
X118000Y33995D01*
Y32005D01*
X118761Y30168D01*
X120168Y28761D01*
X122005Y28000D01*
X123995D01*
X125832Y28761D01*
X127239Y30168D01*
X128000Y32005D01*
Y33995D01*
X127239Y35832D01*
X125832Y37239D01*
X123995Y38000D01*
D02*
G37*
%LPD*%
D47*
X305000Y112514D02*
Y119000D01*
Y112514D02*
X348885Y68628D01*
X279979Y144021D02*
X305000Y119000D01*
X279979Y144021D02*
Y151083D01*
D48*
X392000Y6000D02*
Y6000D01*
X299000Y99000D02*
X392000Y6000D01*
X350500Y264000D02*
X392100D01*
X276000Y232000D02*
X318500D01*
X350500Y264000D01*
X392100D02*
X465000Y336900D01*
Y337000D01*
X242201Y210457D02*
X260467Y192191D01*
Y148533D02*
Y192191D01*
X287000Y177000D02*
X343000Y121000D01*
X391000D01*
X287000Y177000D02*
Y193000D01*
X260467Y148533D02*
X276809Y132191D01*
Y131901D02*
Y132191D01*
Y131901D02*
X277000Y131710D01*
X298000Y144000D02*
X333000Y109000D01*
X464729D02*
X466729Y107000D01*
X333000Y109000D02*
X464729D01*
X466729Y107000D02*
X467000D01*
X268000Y224000D02*
X276000Y232000D01*
X282355Y215645D02*
X324645D01*
X345830Y236830D01*
X388000D01*
X354000Y222000D02*
X465000D01*
X333000Y201000D02*
X354000Y222000D01*
X298000Y201000D02*
X333000D01*
D49*
X140000Y220000D02*
D03*
X90000D02*
D03*
X115000D02*
D03*
Y195000D02*
D03*
X140000D02*
D03*
X90000D02*
D03*
X480000Y110000D02*
D03*
Y225000D02*
D03*
Y337000D02*
D03*
X170000Y259600D02*
D03*
D50*
X64000Y144000D02*
D03*
Y164000D02*
D03*
Y184000D02*
D03*
D51*
X480000Y175000D02*
D03*
Y290000D02*
D03*
Y60000D02*
D03*
D52*
X64000Y204000D02*
D03*
D53*
X170000Y310400D02*
D03*
D54*
X275000Y260000D02*
D03*
Y318000D02*
D03*
D55*
X134000Y165000D02*
D03*
X157000Y188000D02*
D03*
X299000Y17040D02*
D03*
X100000Y72000D02*
D03*
X248000Y124000D02*
D03*
X297000Y63000D02*
D03*
X286000Y75000D02*
D03*
X297000Y87000D02*
D03*
X154000Y6000D02*
D03*
X124000Y19000D02*
D03*
X288000Y117000D02*
D03*
X113811Y153431D02*
D03*
X349000Y167000D02*
D03*
X299483Y176323D02*
D03*
X236000Y42000D02*
D03*
X286887Y127635D02*
D03*
X229000Y115000D02*
D03*
X268000Y83000D02*
D03*
X356000Y129040D02*
D03*
X158000Y149000D02*
D03*
X59000Y113000D02*
D03*
X356000Y4250D02*
D03*
X268290Y72000D02*
D03*
X95000Y81000D02*
D03*
X187000Y84000D02*
D03*
X180948Y124052D02*
D03*
X202000Y69000D02*
D03*
X174000Y159000D02*
D03*
X163000Y67000D02*
D03*
X154000Y66000D02*
D03*
X213290Y168000D02*
D03*
X60000Y88000D02*
D03*
X171000Y79000D02*
D03*
X177930Y70041D02*
D03*
X208000Y56000D02*
D03*
X95000Y115000D02*
D03*
X123000Y33000D02*
D03*
X58407Y100593D02*
D03*
X291000Y24960D02*
D03*
X248000Y137000D02*
D03*
X100000Y59000D02*
D03*
X262000Y128000D02*
D03*
X198000Y105000D02*
D03*
X297000Y32000D02*
D03*
X200000Y117000D02*
D03*
X178760Y151000D02*
D03*
X164000Y174000D02*
D03*
X144000Y67000D02*
D03*
X188000Y65000D02*
D03*
X207710Y141000D02*
D03*
X104000Y122000D02*
D03*
X356000Y248000D02*
D03*
X191000Y120000D02*
D03*
X164000Y156000D02*
D03*
X392000Y6000D02*
D03*
X348885Y68628D02*
D03*
X465000Y337000D02*
D03*
X277000Y131710D02*
D03*
X348000Y227000D02*
D03*
X242201Y210457D02*
D03*
X467000Y107000D02*
D03*
X298000Y144000D02*
D03*
X279979Y151083D02*
D03*
X282355Y215645D02*
D03*
X388000Y236830D02*
D03*
X391000Y121000D02*
D03*
X299000Y99000D02*
D03*
X241000Y155040D02*
D03*
X230000Y148000D02*
D03*
X465000Y222000D02*
D03*
X241355Y174645D02*
D03*
X268000Y224000D02*
D03*
X298000Y201000D02*
D03*
X287000Y193000D02*
D03*
X288000Y206000D02*
D03*
X240000Y200040D02*
D03*
X223000Y188000D02*
D03*
X195000Y216000D02*
D03*
X213000Y208000D02*
D03*
D56*
X277000Y76000D02*
D03*
X269000Y60000D02*
D03*
X261000Y44000D02*
D03*
X269000Y28000D02*
D03*
X229000Y204000D02*
D03*
X237000Y28000D02*
D03*
X157000Y124000D02*
D03*
X133000Y44000D02*
D03*
X117000D02*
D03*
Y12000D02*
D03*
X101000Y172000D02*
D03*
Y44000D02*
D03*
X109000Y28000D02*
D03*
X101000Y12000D02*
D03*
X93000Y124000D02*
D03*
X85000Y76000D02*
D03*
Y44000D02*
D03*
X93000Y28000D02*
D03*
X85000Y12000D02*
D03*
X77000Y124000D02*
D03*
Y60000D02*
D03*
X69000Y44000D02*
D03*
X77000Y28000D02*
D03*
X69000Y12000D02*
D03*
X61000Y124000D02*
D03*
X53000Y76000D02*
D03*
X61000Y60000D02*
D03*
X53000Y44000D02*
D03*
X61000Y28000D02*
D03*
X53000Y12000D02*
D03*
X37000Y204000D02*
D03*
X45000Y188000D02*
D03*
X37000Y172000D02*
D03*
X45000Y156000D02*
D03*
X37000Y140000D02*
D03*
X45000Y124000D02*
D03*
X37000Y12000D02*
D03*
X21000Y204000D02*
D03*
X29000Y188000D02*
D03*
X21000Y172000D02*
D03*
X29000Y156000D02*
D03*
X21000Y140000D02*
D03*
X29000Y124000D02*
D03*
X21000Y12000D02*
D03*
X466000Y144000D02*
D03*
X430000Y132000D02*
D03*
X490000Y156000D02*
D03*
X478000Y204000D02*
D03*
X466000Y132000D02*
D03*
X478000Y144000D02*
D03*
X442000Y132000D02*
D03*
X466000Y180000D02*
D03*
Y156000D02*
D03*
X430000D02*
D03*
X454000Y192000D02*
D03*
X466000D02*
D03*
Y168000D02*
D03*
Y204000D02*
D03*
X454000D02*
D03*
X418000Y156000D02*
D03*
X454000D02*
D03*
X490000Y204000D02*
D03*
Y144000D02*
D03*
X442000Y156000D02*
D03*
X430000Y144000D02*
D03*
X478000Y156000D02*
D03*
X490000Y132000D02*
D03*
X454000Y144000D02*
D03*
Y132000D02*
D03*
X442000Y144000D02*
D03*
Y168000D02*
D03*
X478000Y132000D02*
D03*
X454000Y180000D02*
D03*
X490000Y192000D02*
D03*
X454000Y168000D02*
D03*
X478000Y192000D02*
D03*
X416000Y71000D02*
D03*
Y81000D02*
D03*
Y91000D02*
D03*
Y101000D02*
D03*
X426000Y341000D02*
D03*
Y331000D02*
D03*
Y321000D02*
D03*
Y311000D02*
D03*
Y211000D02*
D03*
Y201000D02*
D03*
Y191000D02*
D03*
Y181000D02*
D03*
X416000Y341000D02*
D03*
Y331000D02*
D03*
Y321000D02*
D03*
Y311000D02*
D03*
Y301000D02*
D03*
Y211000D02*
D03*
Y201000D02*
D03*
Y191000D02*
D03*
Y181000D02*
D03*
X406000Y341000D02*
D03*
Y331000D02*
D03*
Y321000D02*
D03*
Y311000D02*
D03*
Y301000D02*
D03*
Y211000D02*
D03*
Y201000D02*
D03*
Y191000D02*
D03*
Y101000D02*
D03*
Y91000D02*
D03*
Y81000D02*
D03*
Y71000D02*
D03*
X396000Y341000D02*
D03*
Y331000D02*
D03*
Y321000D02*
D03*
Y311000D02*
D03*
Y301000D02*
D03*
Y211000D02*
D03*
Y201000D02*
D03*
Y191000D02*
D03*
Y101000D02*
D03*
Y91000D02*
D03*
Y81000D02*
D03*
Y71000D02*
D03*
X386000Y341000D02*
D03*
Y331000D02*
D03*
Y321000D02*
D03*
Y311000D02*
D03*
Y301000D02*
D03*
Y211000D02*
D03*
Y201000D02*
D03*
Y191000D02*
D03*
Y181000D02*
D03*
Y101000D02*
D03*
Y91000D02*
D03*
Y81000D02*
D03*
Y71000D02*
D03*
X376000Y341000D02*
D03*
Y331000D02*
D03*
Y321000D02*
D03*
Y311000D02*
D03*
Y301000D02*
D03*
Y211000D02*
D03*
Y201000D02*
D03*
Y191000D02*
D03*
Y181000D02*
D03*
Y101000D02*
D03*
Y91000D02*
D03*
Y81000D02*
D03*
Y71000D02*
D03*
X366000Y341000D02*
D03*
Y331000D02*
D03*
Y321000D02*
D03*
Y311000D02*
D03*
Y301000D02*
D03*
Y211000D02*
D03*
Y201000D02*
D03*
Y191000D02*
D03*
Y181000D02*
D03*
Y101000D02*
D03*
Y91000D02*
D03*
Y81000D02*
D03*
Y71000D02*
D03*
X356000Y341000D02*
D03*
Y331000D02*
D03*
Y321000D02*
D03*
Y311000D02*
D03*
Y301000D02*
D03*
Y211000D02*
D03*
Y201000D02*
D03*
Y191000D02*
D03*
Y181000D02*
D03*
Y101000D02*
D03*
Y91000D02*
D03*
Y81000D02*
D03*
X338001Y263001D02*
D03*
Y191000D02*
D03*
Y183000D02*
D03*
Y175000D02*
D03*
Y151000D02*
D03*
Y143000D02*
D03*
Y95000D02*
D03*
Y71000D02*
D03*
Y47000D02*
D03*
Y39000D02*
D03*
Y31000D02*
D03*
X330001Y271001D02*
D03*
Y263001D02*
D03*
Y255000D02*
D03*
Y191000D02*
D03*
Y183000D02*
D03*
Y175000D02*
D03*
Y151000D02*
D03*
Y79000D02*
D03*
Y55000D02*
D03*
Y47000D02*
D03*
Y39000D02*
D03*
Y31000D02*
D03*
X322001Y279001D02*
D03*
Y271001D02*
D03*
Y263001D02*
D03*
Y255000D02*
D03*
Y247001D02*
D03*
Y191000D02*
D03*
Y183000D02*
D03*
Y175000D02*
D03*
Y87000D02*
D03*
Y63000D02*
D03*
Y55000D02*
D03*
Y47000D02*
D03*
Y39000D02*
D03*
Y31000D02*
D03*
X314001Y279001D02*
D03*
Y271001D02*
D03*
Y263001D02*
D03*
Y255000D02*
D03*
Y247001D02*
D03*
Y191000D02*
D03*
Y183000D02*
D03*
Y175000D02*
D03*
Y95000D02*
D03*
Y71000D02*
D03*
Y63000D02*
D03*
Y55000D02*
D03*
Y47000D02*
D03*
Y39000D02*
D03*
X490000Y318000D02*
D03*
Y306000D02*
D03*
Y270000D02*
D03*
Y258000D02*
D03*
Y246000D02*
D03*
X478000Y318000D02*
D03*
Y306000D02*
D03*
Y270000D02*
D03*
Y258000D02*
D03*
Y246000D02*
D03*
X466000Y318000D02*
D03*
Y306000D02*
D03*
Y294000D02*
D03*
Y282000D02*
D03*
Y270000D02*
D03*
Y258000D02*
D03*
Y246000D02*
D03*
X454000Y306000D02*
D03*
Y294000D02*
D03*
Y282000D02*
D03*
Y270000D02*
D03*
Y258000D02*
D03*
Y246000D02*
D03*
X442000Y282000D02*
D03*
Y270000D02*
D03*
Y258000D02*
D03*
Y246000D02*
D03*
X430000Y282000D02*
D03*
Y270000D02*
D03*
Y258000D02*
D03*
Y246000D02*
D03*
X418000Y270000D02*
D03*
Y258000D02*
D03*
Y246000D02*
D03*
X322000Y303000D02*
D03*
X306000D02*
D03*
X98000D02*
D03*
X18000D02*
D03*
X338000D02*
D03*
X50000Y319000D02*
D03*
X194000Y303000D02*
D03*
X306000Y335000D02*
D03*
X66000Y303000D02*
D03*
X34000Y319000D02*
D03*
X242000Y335000D02*
D03*
X34000D02*
D03*
X66000D02*
D03*
X82000Y303000D02*
D03*
X66000Y319000D02*
D03*
X130000D02*
D03*
X18000Y335000D02*
D03*
X210000Y319000D02*
D03*
Y335000D02*
D03*
X194000Y319000D02*
D03*
X242000D02*
D03*
Y303000D02*
D03*
X50000Y335000D02*
D03*
X322000D02*
D03*
X146000Y303000D02*
D03*
X130000D02*
D03*
X114000D02*
D03*
X210000D02*
D03*
X114000Y335000D02*
D03*
X146000D02*
D03*
X98000Y319000D02*
D03*
Y335000D02*
D03*
X50000Y303000D02*
D03*
X322000Y319000D02*
D03*
X338000Y335000D02*
D03*
X82000D02*
D03*
X114000Y319000D02*
D03*
X178000Y335000D02*
D03*
X226000Y319000D02*
D03*
Y335000D02*
D03*
X82000Y319000D02*
D03*
X306000D02*
D03*
X34000Y303000D02*
D03*
X226000D02*
D03*
X162000Y335000D02*
D03*
X18000Y319000D02*
D03*
X194000Y335000D02*
D03*
X146000Y319000D02*
D03*
X338000D02*
D03*
X130000Y335000D02*
D03*
X242000Y271000D02*
D03*
Y255000D02*
D03*
Y239000D02*
D03*
X226000Y271000D02*
D03*
Y255000D02*
D03*
Y239000D02*
D03*
X210000Y271000D02*
D03*
Y255000D02*
D03*
Y239000D02*
D03*
X194000Y271000D02*
D03*
Y255000D02*
D03*
Y239000D02*
D03*
X178000D02*
D03*
X162000D02*
D03*
X146000Y271000D02*
D03*
Y255000D02*
D03*
Y239000D02*
D03*
X130000Y271000D02*
D03*
Y255000D02*
D03*
Y239000D02*
D03*
X114000Y271000D02*
D03*
Y255000D02*
D03*
Y239000D02*
D03*
X98000Y271000D02*
D03*
Y255000D02*
D03*
Y239000D02*
D03*
X82000Y271000D02*
D03*
Y255000D02*
D03*
Y239000D02*
D03*
X66000Y271000D02*
D03*
Y255000D02*
D03*
Y239000D02*
D03*
X50000Y271000D02*
D03*
Y255000D02*
D03*
Y239000D02*
D03*
X34000Y271000D02*
D03*
Y255000D02*
D03*
Y239000D02*
D03*
X18000Y271000D02*
D03*
Y255000D02*
D03*
Y239000D02*
D03*
X490000Y91000D02*
D03*
Y79000D02*
D03*
Y43000D02*
D03*
Y31000D02*
D03*
Y19000D02*
D03*
X478000Y91000D02*
D03*
Y79000D02*
D03*
Y43000D02*
D03*
Y31000D02*
D03*
Y19000D02*
D03*
Y7000D02*
D03*
X466000Y91000D02*
D03*
Y79000D02*
D03*
Y67000D02*
D03*
Y55000D02*
D03*
Y43000D02*
D03*
Y31000D02*
D03*
Y19000D02*
D03*
Y7000D02*
D03*
X454000Y91000D02*
D03*
Y79000D02*
D03*
Y67000D02*
D03*
Y55000D02*
D03*
Y43000D02*
D03*
Y31000D02*
D03*
Y19000D02*
D03*
Y7000D02*
D03*
X442000Y55000D02*
D03*
Y43000D02*
D03*
Y31000D02*
D03*
Y19000D02*
D03*
Y7000D02*
D03*
X430000Y43000D02*
D03*
Y31000D02*
D03*
Y19000D02*
D03*
Y7000D02*
D03*
X418000Y31000D02*
D03*
Y19000D02*
D03*
Y7000D02*
D03*
M02*
