G04*
G04 #@! TF.GenerationSoftware,Altium Limited,Altium Designer,25.8.1 (18)*
G04*
G04 Layer_Color=128*
%FSLAX44Y44*%
%MOMM*%
G71*
G04*
G04 #@! TF.SameCoordinates,D7C4C725-C8A4-46AB-A62B-07054BF05DDA*
G04*
G04*
G04 #@! TF.FilePolarity,Positive*
G04*
G01*
G75*
%ADD15R,0.8300X0.9400*%
%ADD16R,0.9400X0.8300*%
%ADD17R,0.8000X0.9500*%
%ADD18R,0.9500X0.8000*%
%ADD21R,1.4700X1.0200*%
%ADD22R,4.0000X1.0000*%
%ADD57R,1.2500X0.6000*%
%ADD58R,1.5000X0.4500*%
D15*
X410600Y143000D02*
D03*
X196600Y52000D02*
D03*
X154800Y53000D02*
D03*
X145800Y79000D02*
D03*
X397400Y143000D02*
D03*
X183400Y52000D02*
D03*
X168000Y53000D02*
D03*
X159000Y79000D02*
D03*
D16*
X275000Y180600D02*
D03*
Y193400D02*
D03*
Y206600D02*
D03*
X198000Y80400D02*
D03*
Y93600D02*
D03*
X275000Y154600D02*
D03*
Y141400D02*
D03*
Y167400D02*
D03*
D17*
X200000Y36000D02*
D03*
X143000Y95000D02*
D03*
X152000Y36000D02*
D03*
X200000Y19000D02*
D03*
X143000Y112000D02*
D03*
X159000D02*
D03*
X184000Y19000D02*
D03*
Y36000D02*
D03*
X168000D02*
D03*
X152000Y20000D02*
D03*
X168000D02*
D03*
X159000Y95000D02*
D03*
D18*
X231000Y101000D02*
D03*
X129000Y89000D02*
D03*
X277000Y102000D02*
D03*
Y118000D02*
D03*
X129000Y105000D02*
D03*
X181000Y97000D02*
D03*
Y113000D02*
D03*
X231000Y85000D02*
D03*
X216000Y65000D02*
D03*
Y49000D02*
D03*
Y78000D02*
D03*
Y94000D02*
D03*
D21*
X172000Y204000D02*
D03*
Y188000D02*
D03*
D22*
X26000Y108000D02*
D03*
Y88000D02*
D03*
Y68000D02*
D03*
Y48000D02*
D03*
Y28000D02*
D03*
D57*
X420500Y172000D02*
D03*
X399500Y181500D02*
D03*
Y162500D02*
D03*
D58*
X198000Y194250D02*
D03*
X256000Y181250D02*
D03*
Y148750D02*
D03*
Y155250D02*
D03*
Y168250D02*
D03*
Y174750D02*
D03*
Y187750D02*
D03*
Y194250D02*
D03*
Y207250D02*
D03*
X198000D02*
D03*
Y200750D02*
D03*
X256000Y161750D02*
D03*
X198000Y187750D02*
D03*
Y174750D02*
D03*
Y161750D02*
D03*
Y148750D02*
D03*
Y181250D02*
D03*
Y168250D02*
D03*
Y155250D02*
D03*
X256000Y200750D02*
D03*
M02*
