G04*
G04 #@! TF.GenerationSoftware,Altium Limited,Altium Designer,25.8.1 (18)*
G04*
G04 Layer_Color=65535*
%FSLAX44Y44*%
%MOMM*%
G71*
G04*
G04 #@! TF.SameCoordinates,D7C4C725-C8A4-46AB-A62B-07054BF05DDA*
G04*
G04*
G04 #@! TF.FilePolarity,Positive*
G04*
G01*
G75*
%ADD10C,0.2500*%
%ADD11C,0.1500*%
%ADD12C,0.2000*%
%ADD13C,0.2540*%
%ADD14C,0.1016*%
D10*
X139250Y47750D02*
G03*
X139250Y47750I-1250J0D01*
G01*
X220000Y285000D02*
G03*
X220000Y285000I-50000J0D01*
G01*
X311000Y166000D02*
X375000D01*
X311000Y124000D02*
X375000D01*
X311000Y51000D02*
X375000D01*
X311000Y9000D02*
X375000D01*
X311000Y239000D02*
X375000D01*
X311000Y281000D02*
X375000D01*
D11*
X393000Y228500D02*
X424700D01*
X436400D02*
X454000D01*
X436400Y177500D02*
X454000D01*
X393000D02*
X424700D01*
X393000Y292500D02*
X424700D01*
X436400D02*
X454000D01*
X436400Y343500D02*
X454000D01*
X393000D02*
X424700D01*
X423300Y237500D02*
X455000D01*
X394000D02*
X411600D01*
X394000Y288500D02*
X411600D01*
X423300D02*
X455000D01*
X423200Y173500D02*
X454900D01*
X393900D02*
X411500D01*
X393900Y122500D02*
X411500D01*
X423200D02*
X454900D01*
X393000Y113500D02*
X424700D01*
X436400D02*
X454000D01*
X436400Y62500D02*
X454000D01*
X393000D02*
X424700D01*
X423200Y58500D02*
X454900D01*
X393900D02*
X411500D01*
X393900Y7500D02*
X411500D01*
X423200D02*
X454900D01*
D12*
X247000Y25000D02*
X253000D01*
X305000Y72000D02*
Y78000D01*
X215000Y150000D02*
X221000D01*
X200000Y161000D02*
X206000D01*
X274000Y110000D02*
X280000D01*
X247000Y60000D02*
X253000D01*
X220000Y25000D02*
X226000D01*
X198000Y15000D02*
Y21000D01*
X170000Y26000D02*
X176000D01*
X141500Y63500D02*
X204500D01*
Y126500D01*
X141500D02*
X204500D01*
X141500Y63500D02*
Y126500D01*
X203000Y184000D02*
Y190000D01*
X262000Y152000D02*
Y158000D01*
Y173000D02*
Y179000D01*
X252000Y213000D02*
X258000D01*
X226000Y218000D02*
Y224000D01*
X1500Y223500D02*
X64000D01*
X1500Y124500D02*
Y223500D01*
Y124500D02*
X77500D01*
D13*
X1000Y18000D02*
X51000D01*
X1000Y118000D02*
X51000D01*
Y18000D02*
Y118000D01*
D14*
X298652Y83461D02*
Y88539D01*
X301191D01*
X302038Y87693D01*
Y86000D01*
X301191Y85154D01*
X298652D01*
X300345D02*
X302038Y83461D01*
X303730D02*
X305423D01*
X304577D01*
Y88539D01*
X303730Y87693D01*
X311348Y83461D02*
X307962D01*
X311348Y86846D01*
Y87693D01*
X310502Y88539D01*
X308809D01*
X307962Y87693D01*
X166962Y286722D02*
X166115Y287568D01*
X164422D01*
X163576Y286722D01*
Y283336D01*
X164422Y282490D01*
X166115D01*
X166962Y283336D01*
X168654Y282490D02*
X170347D01*
X169501D01*
Y287568D01*
X168654Y286722D01*
X176272Y282490D02*
X172886D01*
X176272Y285876D01*
Y286722D01*
X175425Y287568D01*
X173733D01*
X172886Y286722D01*
X286499Y107461D02*
Y112539D01*
X289038D01*
X289884Y111693D01*
Y110000D01*
X289038Y109154D01*
X286499D01*
X288191D02*
X289884Y107461D01*
X291577D02*
X293270D01*
X292423D01*
Y112539D01*
X291577Y111693D01*
X295809Y107461D02*
X297502D01*
X296655D01*
Y112539D01*
X295809Y111693D01*
X258768Y22461D02*
Y27539D01*
X261307D01*
X262154Y26693D01*
Y25000D01*
X261307Y24154D01*
X258768D01*
X260461D02*
X262154Y22461D01*
X263846Y27539D02*
X267232D01*
Y26693D01*
X263846Y23307D01*
Y22461D01*
X259768Y57461D02*
Y62539D01*
X262307D01*
X263154Y61693D01*
Y60000D01*
X262307Y59154D01*
X259768D01*
X261461D02*
X263154Y57461D01*
X268232Y62539D02*
X266539Y61693D01*
X264846Y60000D01*
Y58307D01*
X265693Y57461D01*
X267386D01*
X268232Y58307D01*
Y59154D01*
X267386Y60000D01*
X264846D01*
X219768Y3461D02*
Y8539D01*
X222307D01*
X223154Y7693D01*
Y6000D01*
X222307Y5154D01*
X219768D01*
X221461D02*
X223154Y3461D01*
X227386D02*
Y8539D01*
X224846Y6000D01*
X228232D01*
X193768Y2461D02*
Y7539D01*
X196307D01*
X197154Y6693D01*
Y5000D01*
X196307Y4154D01*
X193768D01*
X195461D02*
X197154Y2461D01*
X198846Y6693D02*
X199693Y7539D01*
X201386D01*
X202232Y6693D01*
Y5846D01*
X201386Y5000D01*
X200539D01*
X201386D01*
X202232Y4154D01*
Y3307D01*
X201386Y2461D01*
X199693D01*
X198846Y3307D01*
X169614Y3461D02*
Y8539D01*
X172154D01*
X173000Y7693D01*
Y6000D01*
X172154Y5154D01*
X169614D01*
X171307D02*
X173000Y3461D01*
X174693D02*
X176386D01*
X175539D01*
Y8539D01*
X174693Y7693D01*
X337229Y56461D02*
Y61539D01*
X339768D01*
X340614Y60693D01*
Y59000D01*
X339768Y58154D01*
X337229D01*
X338922D02*
X340614Y56461D01*
X345693D02*
X342307D01*
X345693Y59846D01*
Y60693D01*
X344846Y61539D01*
X343154D01*
X342307Y60693D01*
X347386Y57307D02*
X348232Y56461D01*
X349925D01*
X350771Y57307D01*
Y60693D01*
X349925Y61539D01*
X348232D01*
X347386Y60693D01*
Y59846D01*
X348232Y59000D01*
X350771D01*
X312229Y113461D02*
Y118539D01*
X314768D01*
X315614Y117693D01*
Y116000D01*
X314768Y115154D01*
X312229D01*
X313922D02*
X315614Y113461D01*
X320693D02*
X317307D01*
X320693Y116846D01*
Y117693D01*
X319846Y118539D01*
X318154D01*
X317307Y117693D01*
X324925Y113461D02*
Y118539D01*
X322386Y116000D01*
X325771D01*
X308610Y288332D02*
Y293410D01*
X311149D01*
X311996Y292564D01*
Y290871D01*
X311149Y290025D01*
X308610D01*
X310303D02*
X311996Y288332D01*
X313688D02*
X315381D01*
X314535D01*
Y293410D01*
X313688Y292564D01*
X317920Y289178D02*
X318767Y288332D01*
X320460D01*
X321306Y289178D01*
Y292564D01*
X320460Y293410D01*
X318767D01*
X317920Y292564D01*
Y291718D01*
X318767Y290871D01*
X321306D01*
X212652Y170461D02*
Y175539D01*
X215191D01*
X216038Y174693D01*
Y173000D01*
X215191Y172154D01*
X212652D01*
X214345D02*
X216038Y170461D01*
X217730D02*
X219423D01*
X218577D01*
Y175539D01*
X217730Y174693D01*
X221962D02*
X222809Y175539D01*
X224502D01*
X225348Y174693D01*
Y173846D01*
X224502Y173000D01*
X225348Y172154D01*
Y171307D01*
X224502Y170461D01*
X222809D01*
X221962Y171307D01*
Y172154D01*
X222809Y173000D01*
X221962Y173846D01*
Y174693D01*
X222809Y173000D02*
X224502D01*
X173229Y184461D02*
Y189539D01*
X175768D01*
X176614Y188693D01*
Y187000D01*
X175768Y186154D01*
X173229D01*
X174922D02*
X176614Y184461D01*
X181693D02*
X178307D01*
X181693Y187846D01*
Y188693D01*
X180846Y189539D01*
X179154D01*
X178307Y188693D01*
X186771Y184461D02*
X183386D01*
X186771Y187846D01*
Y188693D01*
X185925Y189539D01*
X184232D01*
X183386Y188693D01*
X196652Y218461D02*
Y223539D01*
X199191D01*
X200038Y222693D01*
Y221000D01*
X199191Y220154D01*
X196652D01*
X198345D02*
X200038Y218461D01*
X201730D02*
X203423D01*
X202577D01*
Y223539D01*
X201730Y222693D01*
X205962Y223539D02*
X209348D01*
Y222693D01*
X205962Y219307D01*
Y218461D01*
X225652Y155461D02*
Y160539D01*
X228191D01*
X229038Y159693D01*
Y158000D01*
X228191Y157154D01*
X225652D01*
X227345D02*
X229038Y155461D01*
X230730D02*
X232423D01*
X231577D01*
Y160539D01*
X230730Y159693D01*
X238348Y160539D02*
X236655Y159693D01*
X234962Y158000D01*
Y156307D01*
X235809Y155461D01*
X237502D01*
X238348Y156307D01*
Y157154D01*
X237502Y158000D01*
X234962D01*
X281229Y152461D02*
Y157539D01*
X283768D01*
X284614Y156693D01*
Y155000D01*
X283768Y154154D01*
X281229D01*
X282922D02*
X284614Y152461D01*
X289693D02*
X286307D01*
X289693Y155846D01*
Y156693D01*
X288846Y157539D01*
X287154D01*
X286307Y156693D01*
X294771Y157539D02*
X291386D01*
Y155000D01*
X293078Y155846D01*
X293925D01*
X294771Y155000D01*
Y153307D01*
X293925Y152461D01*
X292232D01*
X291386Y153307D01*
X281229Y173461D02*
Y178539D01*
X283768D01*
X284614Y177693D01*
Y176000D01*
X283768Y175154D01*
X281229D01*
X282922D02*
X284614Y173461D01*
X289693D02*
X286307D01*
X289693Y176846D01*
Y177693D01*
X288846Y178539D01*
X287154D01*
X286307Y177693D01*
X291386D02*
X292232Y178539D01*
X293925D01*
X294771Y177693D01*
Y174307D01*
X293925Y173461D01*
X292232D01*
X291386Y174307D01*
Y177693D01*
X262652Y210461D02*
Y215539D01*
X265191D01*
X266038Y214693D01*
Y213000D01*
X265191Y212154D01*
X262652D01*
X264345D02*
X266038Y210461D01*
X267730D02*
X269423D01*
X268577D01*
Y215539D01*
X267730Y214693D01*
X275348Y215539D02*
X271962D01*
Y213000D01*
X273655Y213846D01*
X274502D01*
X275348Y213000D01*
Y211307D01*
X274502Y210461D01*
X272809D01*
X271962Y211307D01*
X380154Y58307D02*
Y61693D01*
X379307Y62539D01*
X377615D01*
X376768Y61693D01*
Y58307D01*
X377615Y57461D01*
X379307D01*
X378461Y59154D02*
X380154Y57461D01*
X379307D02*
X380154Y58307D01*
X385232Y62539D02*
X383539Y61693D01*
X381846Y60000D01*
Y58307D01*
X382693Y57461D01*
X384386D01*
X385232Y58307D01*
Y59154D01*
X384386Y60000D01*
X381846D01*
X380154Y171307D02*
Y174693D01*
X379307Y175539D01*
X377615D01*
X376768Y174693D01*
Y171307D01*
X377615Y170461D01*
X379307D01*
X378461Y172154D02*
X380154Y170461D01*
X379307D02*
X380154Y171307D01*
X384386Y170461D02*
Y175539D01*
X381846Y173000D01*
X385232D01*
X381154Y287307D02*
Y290693D01*
X380307Y291539D01*
X378615D01*
X377768Y290693D01*
Y287307D01*
X378615Y286461D01*
X380307D01*
X379461Y288154D02*
X381154Y286461D01*
X380307D02*
X381154Y287307D01*
X386232Y286461D02*
X382846D01*
X386232Y289846D01*
Y290693D01*
X385386Y291539D01*
X383693D01*
X382846Y290693D01*
X379154Y109307D02*
Y112693D01*
X378307Y113539D01*
X376614D01*
X375768Y112693D01*
Y109307D01*
X376614Y108461D01*
X378307D01*
X377461Y110154D02*
X379154Y108461D01*
X378307D02*
X379154Y109307D01*
X384232Y113539D02*
X380846D01*
Y111000D01*
X382539Y111846D01*
X383386D01*
X384232Y111000D01*
Y109307D01*
X383386Y108461D01*
X381693D01*
X380846Y109307D01*
X379154Y219307D02*
Y222693D01*
X378307Y223539D01*
X376614D01*
X375768Y222693D01*
Y219307D01*
X376614Y218461D01*
X378307D01*
X377461Y220154D02*
X379154Y218461D01*
X378307D02*
X379154Y219307D01*
X380846Y222693D02*
X381693Y223539D01*
X383386D01*
X384232Y222693D01*
Y221846D01*
X383386Y221000D01*
X382539D01*
X383386D01*
X384232Y220154D01*
Y219307D01*
X383386Y218461D01*
X381693D01*
X380846Y219307D01*
X381000Y345307D02*
Y348693D01*
X380154Y349539D01*
X378461D01*
X377614Y348693D01*
Y345307D01*
X378461Y344461D01*
X380154D01*
X379307Y346154D02*
X381000Y344461D01*
X380154D02*
X381000Y345307D01*
X382693Y344461D02*
X384386D01*
X383539D01*
Y349539D01*
X382693Y348693D01*
X258614Y132539D02*
Y127461D01*
X262000D01*
X263693D02*
X265386D01*
X264539D01*
Y132539D01*
X263693Y131693D01*
X39454Y176570D02*
X37761D01*
X38607D01*
Y172338D01*
X37761Y171492D01*
X36914D01*
X36068Y172338D01*
X41146Y171492D02*
X42839D01*
X41993D01*
Y176570D01*
X41146Y175724D01*
X46058Y10708D02*
X44365D01*
X45211D01*
Y6476D01*
X44365Y5630D01*
X43518D01*
X42672Y6476D01*
X51136Y5630D02*
X47750D01*
X51136Y9016D01*
Y9862D01*
X50290Y10708D01*
X48597D01*
X47750Y9862D01*
X123498Y137539D02*
X125191D01*
X124345D01*
Y132461D01*
X123498D01*
X125191D01*
X131116Y136693D02*
X130270Y137539D01*
X128577D01*
X127730Y136693D01*
Y133307D01*
X128577Y132461D01*
X130270D01*
X131116Y133307D01*
X132809Y132461D02*
X134502D01*
X133655D01*
Y137539D01*
X132809Y136693D01*
X258154Y92693D02*
X257307Y93539D01*
X255614D01*
X254768Y92693D01*
Y89307D01*
X255614Y88461D01*
X257307D01*
X258154Y89307D01*
X259846D02*
X260693Y88461D01*
X262386D01*
X263232Y89307D01*
Y92693D01*
X262386Y93539D01*
X260693D01*
X259846Y92693D01*
Y91846D01*
X260693Y91000D01*
X263232D01*
X233154Y115698D02*
X232307Y116545D01*
X230614D01*
X229768Y115698D01*
Y112313D01*
X230614Y111466D01*
X232307D01*
X233154Y112313D01*
X234846Y115698D02*
X235693Y116545D01*
X237386D01*
X238232Y115698D01*
Y114852D01*
X237386Y114005D01*
X238232Y113159D01*
Y112313D01*
X237386Y111466D01*
X235693D01*
X234846Y112313D01*
Y113159D01*
X235693Y114005D01*
X234846Y114852D01*
Y115698D01*
X235693Y114005D02*
X237386D01*
X107272Y155658D02*
X106425Y156504D01*
X104732D01*
X103886Y155658D01*
Y152272D01*
X104732Y151426D01*
X106425D01*
X107272Y152272D01*
X108964Y156504D02*
X112350D01*
Y155658D01*
X108964Y152272D01*
Y151426D01*
X94318Y67012D02*
X93471Y67858D01*
X91778D01*
X90932Y67012D01*
Y63626D01*
X91778Y62780D01*
X93471D01*
X94318Y63626D01*
X99396Y67858D02*
X97703Y67012D01*
X96010Y65319D01*
Y63626D01*
X96857Y62780D01*
X98549D01*
X99396Y63626D01*
Y64473D01*
X98549Y65319D01*
X96010D01*
X248154Y131693D02*
X247307Y132539D01*
X245614D01*
X244768Y131693D01*
Y128307D01*
X245614Y127461D01*
X247307D01*
X248154Y128307D01*
X253232Y132539D02*
X249846D01*
Y130000D01*
X251539Y130846D01*
X252386D01*
X253232Y130000D01*
Y128307D01*
X252386Y127461D01*
X250693D01*
X249846Y128307D01*
X138154Y7693D02*
X137307Y8539D01*
X135615D01*
X134768Y7693D01*
Y4307D01*
X135615Y3461D01*
X137307D01*
X138154Y4307D01*
X139846Y7693D02*
X140693Y8539D01*
X142386D01*
X143232Y7693D01*
Y6846D01*
X142386Y6000D01*
X141539D01*
X142386D01*
X143232Y5154D01*
Y4307D01*
X142386Y3461D01*
X140693D01*
X139846Y4307D01*
X233154Y79693D02*
X232307Y80539D01*
X230614D01*
X229768Y79693D01*
Y76307D01*
X230614Y75461D01*
X232307D01*
X233154Y76307D01*
X238232Y75461D02*
X234846D01*
X238232Y78846D01*
Y79693D01*
X237386Y80539D01*
X235693D01*
X234846Y79693D01*
X212000Y48693D02*
X211154Y49539D01*
X209461D01*
X208614Y48693D01*
Y45307D01*
X209461Y44461D01*
X211154D01*
X212000Y45307D01*
X213693Y44461D02*
X215386D01*
X214539D01*
Y49539D01*
X213693Y48693D01*
X171038Y168693D02*
X170191Y169539D01*
X168498D01*
X167652Y168693D01*
Y165307D01*
X168498Y164461D01*
X170191D01*
X171038Y165307D01*
X172730Y164461D02*
X174423D01*
X173577D01*
Y169539D01*
X172730Y168693D01*
X180348Y169539D02*
X178655Y168693D01*
X176962Y167000D01*
Y165307D01*
X177809Y164461D01*
X179502D01*
X180348Y165307D01*
Y166154D01*
X179502Y167000D01*
X176962D01*
X114130Y27642D02*
X113283Y28488D01*
X111590D01*
X110744Y27642D01*
Y24256D01*
X111590Y23410D01*
X113283D01*
X114130Y24256D01*
X115822Y23410D02*
X117515D01*
X116669D01*
Y28488D01*
X115822Y27642D01*
X122593Y23410D02*
Y28488D01*
X120054Y25949D01*
X123440D01*
M02*
