M48
;Layer_Color=9474304
;FILE_FORMAT=4:4
METRIC,LZ
;TYPE=PLATED
T01F00S00C0.3000
T02F00S00C0.9000
T03F00S00C1.0000
T04F00S00C1.5000
T05F00S00C2.7000
%
T01
X00021Y00012
X00037
X00053
X00069
X00085
X00101
X00117
X00124Y00019
X00123Y00033
X00117Y00044
X00133
X00101
X00085
X00069
X00053
X00061Y0006
X00077
X00085Y00076
X00095Y00081
X001Y00072
Y00059
X00093Y00028
X00109
X00077
X00061
X00053Y00076
X0006Y00088
X00058407Y00100593
X00059Y00113
X00061Y00124
X00077
X00093
X00095Y00115
X00104Y00122
X00113811Y00153431
X00101Y00172
X00134Y00165
X00045Y00156
X00029
X00021Y00172
X00037
Y0014
X00021
X00029Y00124
X00045
X00157
X00180948Y00124052
X00191Y0012
X002Y00117
X00198Y00105
X00187Y00084
X00188Y00065
X0017793Y00070041
X00171Y00079
X00163Y00067
X00154Y00066
X00144Y00067
X00202Y00069
X00208Y00056
X00236Y00042
X00237Y00028
X00269
X00261Y00044
X00269Y0006
X0026829Y00072
X00268Y00083
X00277Y00076
X00286Y00075
X00297Y00063
X00314001Y00063
X00322001
Y00055
X00330001
Y00047
X00338001
Y00039
Y00031
X00330001
Y00039
X00322001
Y00047
X00314001
Y00055
Y00071
X00338001
X00348885Y00068628
X00366Y00071
X00376
X00386
X00396
X00406
X00416
Y00081
Y00091
Y00101
X00406
Y00091
Y00081
X00396
Y00091
Y00101
X00386
Y00091
Y00081
X00376
Y00091
Y00101
X00366
Y00091
Y00081
X00356
Y00091
Y00101
X00338001Y00095
X00330001Y00079
X00322001Y00087
X00314001Y00095
X00299Y00099
X00297Y00087
X00288Y00117
X00286887Y00127635
X00277Y0013171
X00262Y00128
X00248Y00124
Y00137
X00241Y0015504
X0023Y00148
X0020771Y00141
X0021329Y00168
X00241355Y00174645
X00299483Y00176323
X00314001Y00175
X00322001
X00330001
X00338001
Y00183
X00330001
X00322001
X00314001
X00356Y00181
X00366
X00376
X00386
X00416
X00426
X0043Y00156
X00418
X00442
X00454
X00466
Y00144
Y00132
X00454
X00442
X0043
Y00144
X00442
X00454
X00478
X0049
Y00156
X00478
X00466Y00168
Y0018
X00454
Y00168
X00442
X00478Y00132
X0049
X0049Y00091
Y00079
X00478
Y00091
X00466
Y00079
Y00067
Y00055
Y00043
X00478
X0049
Y00031
Y00019
X00478
Y00031
X00466
Y00019
Y00007
X00478
X00454
Y00019
Y00031
Y00043
Y00055
Y00067
Y00079
Y00091
X00467Y00107
X00442Y00055
Y00043
Y00031
Y00019
Y00007
X0043
Y00019
Y00031
Y00043
X00418Y00031
Y00019
Y00007
X00392Y00006
X00356Y0000425
X00322001Y00031
X00314001Y00039
X00297Y00032
X00291Y0002496
X00299Y0001704
X00298Y00144
X00279979Y00151083
X00330001Y00151
X00338001
Y00143
X00356Y0012904
X00391Y00121
X00349Y00167
X00229Y00115
X0017876Y00151
X00174Y00159
X00164Y00156
X00158Y00149
X00164Y00174
X00154Y00006
X00157Y00188
X00162Y00239
X00178
X00194
X0021
X00226
X00242
Y00255
Y00271
X00226
Y00255
X0021
Y00271
X00194
Y00255
X00195Y00216
X00213Y00208
X00229Y00204
X0024Y0020004
X00242201Y00210457
X00268Y00224
X00282355Y00215645
X00288Y00206
X00287Y00193
X00298Y00201
X00314001Y00191
X00322001
X00330001
X00338001
X00356Y00191
X00366
X00376
X00386
X00396
X00406
X00416
X00426
Y00201
Y00211
X00416
Y00201
X00406
Y00211
X00396
Y00201
X00386
Y00211
X00376
Y00201
X00366
Y00211
X00356
Y00201
X00348Y00227
X00356Y00248
X00338001Y00263001
X00330001
Y00271001
X00322001
Y00279001
X00314001
Y00271001
Y00263001
X00322001
Y00255
X00330001
X00322001Y00247001
X00314001
Y00255
X00322Y00303
X00306
Y00319
Y00335
X00322
Y00319
X00338
Y00303
X00356Y00301
X00366
X00376
X00386
X00396
X00406
X00416
Y00311
X00426
Y00321
Y00331
Y00341
X00416
Y00331
Y00321
X00406
Y00331
Y00341
X00396
Y00331
Y00321
Y00311
X00406
X00386
Y00321
Y00331
Y00341
X00376
Y00331
Y00321
Y00311
X00366
Y00321
Y00331
Y00341
X00356
Y00331
Y00321
Y00311
X00338Y00335
X00242
Y00319
Y00303
X00226
X0021
X00194
Y00319
X0021
Y00335
X00226
Y00319
X00194Y00335
X00178
X00162
X00146
Y00319
Y00303
Y00271
Y00255
Y00239
X00223Y00188
X00388Y0023683
X00418Y00246
X0043
X00442
X00454
X00466
X00478
X0049
Y00258
Y0027
X00478
Y00258
X00466
Y0027
Y00282
Y00294
Y00306
X00478
X0049
Y00318
X00478
X00466
X00465Y00337
X00454Y00306
Y00294
Y00282
Y0027
Y00258
X00442
Y0027
Y00282
X0043
Y0027
Y00258
X00418
Y0027
X00465Y00222
X00466Y00204
X00478
X0049
Y00192
X00478
X00466
X00454
Y00204
X0013Y00239
Y00255
Y00271
X00114
Y00255
Y00239
X00098
Y00255
Y00271
X00082
Y00255
Y00239
X00066
Y00255
Y00271
X0005
Y00255
Y00239
X00034
Y00255
Y00271
X00018
Y00255
Y00239
X00021Y00204
X00037
X00045Y00188
X00029
X00034Y00303
X00018
Y00319
X00034
X0005
X00066
Y00303
X00082
X00098
X00114
X0013
Y00319
X00114
Y00335
X00098
Y00319
X00082
Y00335
X00066
X0005
X00034
X00018
X0005Y00303
X0013Y00335
T02
X00064Y00144
Y00164
Y00184
Y00204
T03
X0048Y0011
Y00225
Y00337
X0017Y003104
Y002596
X0014Y0022
X00115
X0009
Y00195
X00115
X0014
T04
X0048Y0006
Y00175
Y0029
T05
X00275Y0026
Y00318
M30
