G04*
G04 #@! TF.GenerationSoftware,Altium Limited,Altium Designer,25.8.1 (18)*
G04*
G04 Layer_Color=8421504*
%FSLAX44Y44*%
%MOMM*%
G71*
G04*
G04 #@! TF.SameCoordinates,D7C4C725-C8A4-46AB-A62B-07054BF05DDA*
G04*
G04*
G04 #@! TF.FilePolarity,Positive*
G04*
G01*
G75*
%ADD15R,0.8300X0.9400*%
%ADD16R,0.9400X0.8300*%
%ADD17R,0.8000X0.9500*%
%ADD18R,0.9500X0.8000*%
%ADD19R,1.2000X0.3000*%
%ADD20R,0.3000X1.2000*%
%ADD21R,1.4700X1.0200*%
%ADD22R,4.0000X1.0000*%
%ADD23R,1.2000X0.7500*%
%ADD24R,4.1000X4.5000*%
%ADD25R,2.5000X3.6000*%
%ADD26R,0.8600X0.8000*%
D15*
X124400Y154000D02*
D03*
X137600D02*
D03*
X189400Y34000D02*
D03*
X202600D02*
D03*
D16*
X189000Y166200D02*
D03*
X112000Y72000D02*
D03*
X237000Y124000D02*
D03*
X136000Y19400D02*
D03*
X237000Y137200D02*
D03*
X189000Y153000D02*
D03*
X232000Y104000D02*
D03*
Y90800D02*
D03*
X247000Y104000D02*
D03*
Y90800D02*
D03*
X234000Y54400D02*
D03*
Y67600D02*
D03*
X136000Y32600D02*
D03*
X112000Y58800D02*
D03*
D17*
X297000Y75000D02*
D03*
X313000D02*
D03*
X190000Y18000D02*
D03*
X206000D02*
D03*
X211000Y187000D02*
D03*
X195000D02*
D03*
X270000Y155000D02*
D03*
X254000D02*
D03*
X270000Y176000D02*
D03*
X254000D02*
D03*
X234000Y221000D02*
D03*
X218000D02*
D03*
D18*
X203000Y169000D02*
D03*
X250000Y17000D02*
D03*
X223000Y17000D02*
D03*
X277000Y118000D02*
D03*
X250000Y33000D02*
D03*
X218000Y142000D02*
D03*
Y158000D02*
D03*
X203000Y153000D02*
D03*
X277000Y102000D02*
D03*
X250000Y52000D02*
D03*
Y68000D02*
D03*
X223000Y33000D02*
D03*
X173000Y34000D02*
D03*
Y18000D02*
D03*
X255000Y221000D02*
D03*
Y205000D02*
D03*
D19*
X215380Y117500D02*
D03*
X130620Y72500D02*
D03*
X215380Y112500D02*
D03*
Y82500D02*
D03*
X130620Y107500D02*
D03*
Y87500D02*
D03*
X215380Y77500D02*
D03*
X130620Y82500D02*
D03*
X215380Y87500D02*
D03*
Y72500D02*
D03*
Y107500D02*
D03*
Y102500D02*
D03*
X130620Y117500D02*
D03*
Y92500D02*
D03*
Y67500D02*
D03*
X215380Y122500D02*
D03*
Y92500D02*
D03*
X130620Y77500D02*
D03*
Y122500D02*
D03*
X215380Y67500D02*
D03*
Y97500D02*
D03*
X130620D02*
D03*
Y102500D02*
D03*
Y112500D02*
D03*
D20*
X150500Y137380D02*
D03*
X170500Y52620D02*
D03*
X155500Y137380D02*
D03*
X185500D02*
D03*
X180500D02*
D03*
X170500D02*
D03*
X165500Y52620D02*
D03*
X190500D02*
D03*
X150500D02*
D03*
X175500D02*
D03*
X180500D02*
D03*
X200500D02*
D03*
X145500D02*
D03*
Y137380D02*
D03*
X195500D02*
D03*
X175500D02*
D03*
X185500Y52620D02*
D03*
X200500Y137380D02*
D03*
X195500Y52620D02*
D03*
X190500Y137380D02*
D03*
X165500D02*
D03*
X160500D02*
D03*
Y52620D02*
D03*
X155500D02*
D03*
D21*
X154000Y17000D02*
D03*
Y33000D02*
D03*
D22*
X26000Y28000D02*
D03*
Y48000D02*
D03*
Y88000D02*
D03*
Y68000D02*
D03*
Y108000D02*
D03*
D23*
X453000Y184000D02*
D03*
Y209300D02*
D03*
Y196700D02*
D03*
Y222000D02*
D03*
X395000Y184000D02*
D03*
Y222000D02*
D03*
Y209300D02*
D03*
Y196700D02*
D03*
X452900Y129000D02*
D03*
Y154300D02*
D03*
Y141700D02*
D03*
Y167000D02*
D03*
X453000Y337000D02*
D03*
X395000Y299000D02*
D03*
Y311700D02*
D03*
Y324300D02*
D03*
Y337000D02*
D03*
X453000Y299000D02*
D03*
Y311700D02*
D03*
Y324300D02*
D03*
X395000Y244000D02*
D03*
Y256700D02*
D03*
Y269300D02*
D03*
Y282000D02*
D03*
X453000Y269300D02*
D03*
Y256700D02*
D03*
Y244000D02*
D03*
Y282000D02*
D03*
X394900Y129000D02*
D03*
Y167000D02*
D03*
Y154300D02*
D03*
Y141700D02*
D03*
X453000Y107000D02*
D03*
X395000D02*
D03*
Y94300D02*
D03*
Y81700D02*
D03*
Y69000D02*
D03*
X453000Y81700D02*
D03*
Y94300D02*
D03*
Y69000D02*
D03*
X394900Y14000D02*
D03*
X452900Y52000D02*
D03*
Y26700D02*
D03*
Y39300D02*
D03*
Y14000D02*
D03*
X394900Y26700D02*
D03*
Y39300D02*
D03*
Y52000D02*
D03*
D24*
X417900Y203000D02*
D03*
X430000Y148000D02*
D03*
X417900Y318000D02*
D03*
X430100Y263000D02*
D03*
X417900Y88000D02*
D03*
X430000Y33000D02*
D03*
D25*
X365000Y145000D02*
D03*
X321000D02*
D03*
X365000Y30000D02*
D03*
X321000D02*
D03*
X365000Y260000D02*
D03*
X321000D02*
D03*
D26*
X262000Y118000D02*
D03*
Y104000D02*
D03*
M02*
