G04*
G04 #@! TF.GenerationSoftware,Altium Limited,Altium Designer,25.8.1 (18)*
G04*
G04 Layer_Physical_Order=4*
G04 Layer_Color=16440176*
%FSLAX44Y44*%
%MOMM*%
G71*
G04*
G04 #@! TF.SameCoordinates,D7C4C725-C8A4-46AB-A62B-07054BF05DDA*
G04*
G04*
G04 #@! TF.FilePolarity,Positive*
G04*
G01*
G75*
%ADD11C,0.1500*%
%ADD47C,0.3000*%
%ADD49C,1.6000*%
%ADD50C,1.3500*%
%ADD51R,2.3000X2.3000*%
%ADD52R,1.3500X1.3500*%
%ADD53R,1.6000X1.6000*%
%ADD54R,4.0000X4.0000*%
%ADD55C,0.6000*%
%ADD56C,0.5000*%
G36*
X500000Y235000D02*
X441926D01*
Y235000D01*
X441771Y235780D01*
X441329Y236442D01*
X440667Y236884D01*
X439887Y237039D01*
X412039D01*
Y287961D01*
X438000D01*
X438197Y288000D01*
X440000D01*
Y289803D01*
X440039Y290000D01*
Y330000D01*
X472858D01*
X473860Y328998D01*
X476140Y327682D01*
X478684Y327000D01*
X481316D01*
X483860Y327682D01*
X486140Y328998D01*
X487142Y330000D01*
X500000D01*
Y235000D01*
D02*
G37*
G36*
X20000Y350000D02*
X438000Y350000D01*
Y290000D01*
X410000D01*
Y235000D01*
X439887D01*
Y173000D01*
X410000D01*
Y120000D01*
X439887D01*
Y59000D01*
X438756Y58244D01*
X438592Y58000D01*
X410000D01*
Y0D01*
X394569D01*
X394265Y1500D01*
X395605Y2395D01*
X396710Y4049D01*
X397098Y6000D01*
X396710Y7951D01*
X395605Y9605D01*
X393951Y10710D01*
X392000Y11098D01*
X390049Y10710D01*
X388395Y9605D01*
X387290Y7951D01*
X386902Y6000D01*
X387290Y4049D01*
X388395Y2395D01*
X389735Y1500D01*
X389431Y0D01*
X360978D01*
X360176Y1500D01*
X360710Y2299D01*
X361098Y4250D01*
X360710Y6201D01*
X359605Y7855D01*
X357951Y8960D01*
X356000Y9348D01*
X354049Y8960D01*
X352395Y7855D01*
X351500Y6515D01*
X350000Y6819D01*
Y63752D01*
X350836Y63918D01*
X352490Y65024D01*
X353595Y66677D01*
X353983Y68628D01*
X353595Y70579D01*
X352490Y72233D01*
X350836Y73338D01*
X350000Y73505D01*
Y126471D01*
X351500Y126775D01*
X352395Y125435D01*
X354049Y124330D01*
X356000Y123942D01*
X357951Y124330D01*
X359605Y125435D01*
X360710Y127089D01*
X361098Y129040D01*
X360710Y130991D01*
X359605Y132645D01*
X357951Y133750D01*
X356000Y134138D01*
X354049Y133750D01*
X352395Y132645D01*
X351500Y131305D01*
X350000Y131609D01*
Y162101D01*
X350951Y162290D01*
X352605Y163395D01*
X353710Y165049D01*
X354098Y167000D01*
X353710Y168951D01*
X352605Y170605D01*
X350951Y171710D01*
X350000Y171899D01*
Y222323D01*
X351605Y223395D01*
X352710Y225049D01*
X353098Y227000D01*
X352710Y228951D01*
X351605Y230605D01*
X350000Y231677D01*
Y245431D01*
X351500Y245735D01*
X352395Y244395D01*
X354049Y243290D01*
X356000Y242902D01*
X357951Y243290D01*
X359605Y244395D01*
X360710Y246049D01*
X361098Y248000D01*
X360710Y249951D01*
X359605Y251605D01*
X357951Y252710D01*
X356000Y253098D01*
X354049Y252710D01*
X352395Y251605D01*
X351500Y250265D01*
X350000Y250569D01*
Y260000D01*
X320000Y290000D01*
X0D01*
Y330000D01*
X-0Y331970D01*
X768Y335834D01*
X2276Y339474D01*
X4465Y342749D01*
X7251Y345535D01*
X10526Y347724D01*
X14166Y349231D01*
X18030Y350000D01*
X20000Y350000D01*
D02*
G37*
G36*
X151431Y230000D02*
X140655D01*
X140000Y230086D01*
X139345Y230000D01*
X115655D01*
X115000Y230086D01*
X114345Y230000D01*
X90655D01*
X90000Y230086D01*
X89345Y230000D01*
X0D01*
Y287961D01*
X151431D01*
Y230000D01*
D02*
G37*
G36*
X151703Y227634D02*
X152477Y226477D01*
X153431Y225522D01*
Y192890D01*
X153393Y192379D01*
X153350Y192082D01*
X153294Y191806D01*
X153232Y191574D01*
X153168Y191387D01*
X153105Y191243D01*
X153050Y191142D01*
X153004Y191075D01*
X152761Y190832D01*
X152000Y188995D01*
Y187005D01*
X152761Y185168D01*
X154168Y183761D01*
X156005Y183000D01*
X157995D01*
X159832Y183761D01*
X161239Y185168D01*
X162000Y187005D01*
Y188995D01*
X161239Y190832D01*
X160996Y191075D01*
X160950Y191142D01*
X160895Y191243D01*
X160832Y191387D01*
X160768Y191574D01*
X160706Y191806D01*
X160650Y192082D01*
X160607Y192379D01*
X160569Y192890D01*
Y227000D01*
X161357Y227961D01*
X262930D01*
X263607Y226461D01*
X263000Y224995D01*
Y223005D01*
X263761Y221168D01*
X265168Y219761D01*
X267005Y219000D01*
X268995D01*
X270832Y219761D01*
X272239Y221168D01*
X273000Y223005D01*
Y224995D01*
X272393Y226461D01*
X273070Y227961D01*
X276155D01*
X281971Y222145D01*
X281360Y220645D01*
X279523Y219884D01*
X278116Y218477D01*
X277355Y216639D01*
Y214650D01*
X278116Y212813D01*
X279523Y211406D01*
X281360Y210645D01*
X283349D01*
X283526Y210718D01*
X284375Y209446D01*
X283761Y208832D01*
X283000Y206995D01*
Y205005D01*
X283761Y203168D01*
X285168Y201761D01*
X287005Y201000D01*
X288995D01*
X290832Y201761D01*
X291614Y202543D01*
X292511Y202188D01*
X293000Y201808D01*
Y200005D01*
X293761Y198168D01*
X295168Y196761D01*
X297005Y196000D01*
X298995D01*
X300832Y196761D01*
X301461Y197390D01*
X302961Y196768D01*
Y181877D01*
X301461Y180916D01*
X300478Y181323D01*
X298489D01*
X296651Y180562D01*
X295244Y179156D01*
X294483Y177318D01*
Y175329D01*
X295244Y173491D01*
X296651Y172085D01*
X298489Y171323D01*
X300478D01*
X301461Y171730D01*
X302961Y170770D01*
Y148232D01*
X301461Y147610D01*
X300832Y148239D01*
X298995Y149000D01*
X297005D01*
X295168Y148239D01*
X293761Y146832D01*
X293000Y144995D01*
Y143005D01*
X293761Y141168D01*
X295168Y139761D01*
X297005Y139000D01*
X298995D01*
X300832Y139761D01*
X301461Y140390D01*
X302961Y139768D01*
Y104070D01*
X301461Y103393D01*
X299995Y104000D01*
X298005D01*
X296168Y103239D01*
X294761Y101832D01*
X294000Y99995D01*
Y98005D01*
X294761Y96168D01*
X296168Y94761D01*
X298005Y94000D01*
X299995D01*
X301461Y94607D01*
X302961Y93930D01*
Y89595D01*
X301461Y89296D01*
X301239Y89832D01*
X299832Y91239D01*
X297995Y92000D01*
X296005D01*
X294168Y91239D01*
X292761Y89832D01*
X292000Y87995D01*
Y86005D01*
X292761Y84168D01*
X294168Y82761D01*
X296005Y82000D01*
X297995D01*
X299832Y82761D01*
X301239Y84168D01*
X301461Y84704D01*
X302961Y84405D01*
Y65595D01*
X301461Y65296D01*
X301239Y65832D01*
X299832Y67239D01*
X297995Y68000D01*
X296005D01*
X294168Y67239D01*
X292761Y65832D01*
X292000Y63995D01*
Y62005D01*
X292761Y60168D01*
X294168Y58761D01*
X296005Y58000D01*
X297995D01*
X299832Y58761D01*
X301239Y60168D01*
X301461Y60704D01*
X302961Y60405D01*
Y34595D01*
X301461Y34296D01*
X301239Y34832D01*
X299832Y36239D01*
X297995Y37000D01*
X296005D01*
X294168Y36239D01*
X292761Y34832D01*
X292000Y32995D01*
Y31005D01*
X292161Y30616D01*
X292153Y30576D01*
X291112Y29230D01*
X290151D01*
X288581Y28580D01*
X287380Y27379D01*
X286904Y26230D01*
X295669D01*
X296400Y27000D01*
X297995D01*
X299832Y27761D01*
X301239Y29168D01*
X301461Y29704D01*
X302961Y29405D01*
Y22110D01*
X301461Y21433D01*
X299995Y22040D01*
X298005D01*
X296168Y21279D01*
X294761Y19872D01*
X294000Y18035D01*
Y16045D01*
X294761Y14208D01*
X296168Y12801D01*
X298005Y12040D01*
X299995D01*
X301461Y12647D01*
X302961Y11970D01*
Y0D01*
X156500D01*
X156202Y1500D01*
X156832Y1761D01*
X158239Y3168D01*
X159000Y5005D01*
Y6995D01*
X158239Y8832D01*
X156832Y10239D01*
X154995Y11000D01*
X153005D01*
X151168Y10239D01*
X149761Y8832D01*
X149000Y6995D01*
Y5005D01*
X149761Y3168D01*
X151168Y1761D01*
X151798Y1500D01*
X151500Y0D01*
X18030D01*
X14166Y769D01*
X10526Y2276D01*
X7251Y4465D01*
X4465Y7251D01*
X2276Y10526D01*
X769Y14166D01*
X0Y18030D01*
Y20000D01*
Y52961D01*
X32000D01*
X32780Y53116D01*
X33442Y53558D01*
X33884Y54220D01*
X34039Y55000D01*
Y61000D01*
X33884Y61780D01*
X33442Y62442D01*
X32780Y62884D01*
X32000Y63039D01*
X0D01*
Y227961D01*
X81859D01*
X82433Y226575D01*
X81998Y226140D01*
X80681Y223860D01*
X80000Y221317D01*
Y218683D01*
X80681Y216140D01*
X81998Y213860D01*
X83860Y211998D01*
X86140Y210681D01*
X88684Y210000D01*
X91316D01*
X93860Y210681D01*
X96140Y211998D01*
X98002Y213860D01*
X99319Y216140D01*
X100000Y218683D01*
Y221317D01*
X99319Y223860D01*
X98002Y226140D01*
X97567Y226575D01*
X98141Y227961D01*
X106859D01*
X107433Y226575D01*
X106998Y226140D01*
X105681Y223860D01*
X105000Y221317D01*
Y218683D01*
X105681Y216140D01*
X106998Y213860D01*
X108860Y211998D01*
X111140Y210681D01*
X113684Y210000D01*
X116316D01*
X118860Y210681D01*
X121140Y211998D01*
X123002Y213860D01*
X124319Y216140D01*
X125000Y218683D01*
Y221317D01*
X124319Y223860D01*
X123002Y226140D01*
X122567Y226575D01*
X123141Y227961D01*
X131859D01*
X132433Y226575D01*
X131998Y226140D01*
X130681Y223860D01*
X130000Y221317D01*
Y218683D01*
X130681Y216140D01*
X131998Y213860D01*
X133860Y211998D01*
X136140Y210681D01*
X138684Y210000D01*
X141316D01*
X143860Y210681D01*
X146140Y211998D01*
X148002Y213860D01*
X149319Y216140D01*
X150000Y218683D01*
Y221317D01*
X149319Y223860D01*
X148002Y226140D01*
X147567Y226575D01*
X148141Y227961D01*
X151431D01*
X151630Y228000D01*
X151703Y227634D01*
D02*
G37*
G36*
X158509Y193087D02*
X158579Y192155D01*
X158640Y191733D01*
X158719Y191342D01*
X158816Y190980D01*
X158930Y190648D01*
X159061Y190345D01*
X159211Y190073D01*
X159377Y189830D01*
X154623D01*
X154789Y190073D01*
X154939Y190345D01*
X155070Y190648D01*
X155184Y190980D01*
X155281Y191342D01*
X155360Y191733D01*
X155421Y192155D01*
X155491Y193087D01*
X155500Y193598D01*
X158500D01*
X158509Y193087D01*
D02*
G37*
G36*
X500000Y120000D02*
X441926D01*
Y120000D01*
X441771Y120780D01*
X441329Y121442D01*
X440667Y121884D01*
X439887Y122039D01*
X412039D01*
Y170961D01*
X439887D01*
X440667Y171116D01*
X441329Y171558D01*
X441771Y172220D01*
X441926Y173000D01*
Y215000D01*
X500000D01*
Y120000D01*
D02*
G37*
G36*
X500000Y20000D02*
Y18030D01*
X499231Y14166D01*
X497724Y10526D01*
X495535Y7251D01*
X492749Y4465D01*
X489473Y2276D01*
X485834Y769D01*
X481970Y0D01*
X412039D01*
Y55961D01*
X438592D01*
X438789Y56000D01*
X438990D01*
X439176Y56077D01*
X439373Y56116D01*
X439540Y56228D01*
X439725Y56304D01*
X439868Y56446D01*
X440034Y56558D01*
X440141Y56717D01*
X441020Y57305D01*
X441162Y57447D01*
X441329Y57558D01*
X441441Y57725D01*
X441583Y57867D01*
X441659Y58053D01*
X441771Y58220D01*
X441810Y58417D01*
X441887Y58602D01*
Y58803D01*
X441926Y59000D01*
Y100000D01*
X500000D01*
Y20000D01*
D02*
G37*
G36*
X347961Y259155D02*
Y250569D01*
X347999Y250375D01*
X347999Y250178D01*
X348076Y249989D01*
X348116Y249788D01*
X348226Y249624D01*
X348301Y249441D01*
X348445Y249296D01*
X348558Y249127D01*
X348722Y249017D01*
X348861Y248877D01*
X349015Y248813D01*
X349063Y248687D01*
X349141Y248000D01*
X349063Y247313D01*
X349015Y247187D01*
X348861Y247123D01*
X348722Y246983D01*
X348558Y246873D01*
X348445Y246703D01*
X348301Y246559D01*
X348226Y246376D01*
X348116Y246212D01*
X348076Y246012D01*
X347999Y245823D01*
X347999Y245625D01*
X347961Y245431D01*
Y232090D01*
X346049Y231710D01*
X344395Y230605D01*
X343290Y228951D01*
X342902Y227000D01*
X343290Y225049D01*
X344395Y223395D01*
X346049Y222290D01*
X347961Y221910D01*
Y171899D01*
X347962Y171892D01*
X347049Y171710D01*
X345395Y170605D01*
X344290Y168951D01*
X343902Y167000D01*
X344290Y165049D01*
X345395Y163395D01*
X347049Y162290D01*
X347962Y162108D01*
X347961Y162101D01*
Y131609D01*
X347999Y131415D01*
X347999Y131217D01*
X348076Y131028D01*
X348116Y130828D01*
X348226Y130664D01*
X348301Y130481D01*
X348445Y130337D01*
X348558Y130167D01*
X348722Y130057D01*
X348861Y129917D01*
X349015Y129853D01*
X349063Y129727D01*
X349141Y129040D01*
X349063Y128353D01*
X349015Y128227D01*
X348861Y128163D01*
X348722Y128023D01*
X348558Y127913D01*
X348445Y127744D01*
X348301Y127599D01*
X348226Y127416D01*
X348116Y127252D01*
X348076Y127051D01*
X347999Y126862D01*
X347999Y126665D01*
X347961Y126471D01*
Y73542D01*
X346934Y73338D01*
X345280Y72233D01*
X344175Y70579D01*
X343787Y68628D01*
X344175Y66677D01*
X345280Y65024D01*
X346934Y63918D01*
X347961Y63714D01*
Y6819D01*
X347999Y6625D01*
X347999Y6428D01*
X348076Y6238D01*
X348116Y6038D01*
X348226Y5874D01*
X348301Y5691D01*
X348445Y5547D01*
X348558Y5377D01*
X348722Y5267D01*
X348861Y5127D01*
X349050Y5048D01*
X349220Y4935D01*
X349413Y4896D01*
X349595Y4820D01*
X350000Y4738D01*
Y0D01*
X305000D01*
Y202000D01*
X277000Y230000D01*
X159047D01*
X158569Y230478D01*
Y287961D01*
X319155D01*
X347961Y259155D01*
D02*
G37*
%LPC*%
G36*
X388000Y241928D02*
X386049Y241540D01*
X384395Y240435D01*
X383290Y238781D01*
X382902Y236830D01*
X383290Y234879D01*
X384395Y233225D01*
X386049Y232120D01*
X388000Y231732D01*
X389951Y232120D01*
X391605Y233225D01*
X392710Y234879D01*
X393098Y236830D01*
X392710Y238781D01*
X391605Y240435D01*
X389951Y241540D01*
X388000Y241928D01*
D02*
G37*
G36*
X391000Y126098D02*
X389049Y125710D01*
X387395Y124605D01*
X386290Y122951D01*
X385902Y121000D01*
X386290Y119049D01*
X387395Y117395D01*
X389049Y116290D01*
X391000Y115902D01*
X392951Y116290D01*
X394605Y117395D01*
X395710Y119049D01*
X396098Y121000D01*
X395710Y122951D01*
X394605Y124605D01*
X392951Y125710D01*
X391000Y126098D01*
D02*
G37*
G36*
X195995Y221000D02*
X194005D01*
X192168Y220239D01*
X190761Y218832D01*
X190000Y216995D01*
Y215005D01*
X190761Y213168D01*
X192168Y211761D01*
X194005Y211000D01*
X195995D01*
X197832Y211761D01*
X199239Y213168D01*
X200000Y215005D01*
Y216995D01*
X199239Y218832D01*
X197832Y220239D01*
X195995Y221000D01*
D02*
G37*
G36*
X72020Y212020D02*
X65270D01*
Y205270D01*
X72020D01*
Y212020D01*
D02*
G37*
G36*
X62730D02*
X55980D01*
Y205270D01*
X62730D01*
Y212020D01*
D02*
G37*
G36*
X213995Y213000D02*
X212005D01*
X210168Y212239D01*
X208761Y210832D01*
X208000Y208995D01*
Y207005D01*
X208761Y205168D01*
X210168Y203761D01*
X212005Y203000D01*
X213995D01*
X215832Y203761D01*
X217239Y205168D01*
X218000Y207005D01*
Y208995D01*
X217239Y210832D01*
X215832Y212239D01*
X213995Y213000D01*
D02*
G37*
G36*
X229895Y208500D02*
X228105D01*
X226451Y207815D01*
X225185Y206549D01*
X224500Y204895D01*
Y203105D01*
X225185Y201451D01*
X226451Y200185D01*
X228105Y199500D01*
X229895D01*
X231549Y200185D01*
X232815Y201451D01*
X233500Y203105D01*
Y204895D01*
X232815Y206549D01*
X231549Y207815D01*
X229895Y208500D01*
D02*
G37*
G36*
X37895D02*
X36105D01*
X34451Y207815D01*
X33185Y206549D01*
X32500Y204895D01*
Y203105D01*
X33185Y201451D01*
X34451Y200185D01*
X36105Y199500D01*
X37895D01*
X39549Y200185D01*
X40815Y201451D01*
X41500Y203105D01*
Y204895D01*
X40815Y206549D01*
X39549Y207815D01*
X37895Y208500D01*
D02*
G37*
G36*
X21895D02*
X20105D01*
X18451Y207815D01*
X17185Y206549D01*
X16500Y204895D01*
Y203105D01*
X17185Y201451D01*
X18451Y200185D01*
X20105Y199500D01*
X21895D01*
X23549Y200185D01*
X24815Y201451D01*
X25500Y203105D01*
Y204895D01*
X24815Y206549D01*
X23549Y207815D01*
X21895Y208500D01*
D02*
G37*
G36*
X72020Y202730D02*
X65270D01*
Y195980D01*
X72020D01*
Y202730D01*
D02*
G37*
G36*
X62730D02*
X55980D01*
Y195980D01*
X62730D01*
Y202730D01*
D02*
G37*
G36*
X243195Y215457D02*
X241206D01*
X239369Y214696D01*
X237962Y213289D01*
X237201Y211452D01*
Y209463D01*
X237962Y207625D01*
X239047Y206540D01*
X239029Y205889D01*
X238865Y205225D01*
X238710Y204917D01*
X237168Y204279D01*
X235761Y202872D01*
X235000Y201035D01*
Y199045D01*
X235405Y198069D01*
X234440Y196569D01*
X228000D01*
X226634Y196297D01*
X225477Y195523D01*
X223934Y193981D01*
X223546Y193647D01*
X223305Y193468D01*
X223071Y193312D01*
X222863Y193192D01*
X222685Y193104D01*
X222540Y193047D01*
X222428Y193015D01*
X222349Y193000D01*
X222005D01*
X220168Y192239D01*
X218761Y190832D01*
X218000Y188995D01*
Y187005D01*
X218761Y185168D01*
X220168Y183761D01*
X222005Y183000D01*
X223995D01*
X225832Y183761D01*
X227239Y185168D01*
X228000Y187005D01*
Y187349D01*
X228015Y187429D01*
X228047Y187540D01*
X228104Y187685D01*
X228192Y187863D01*
X228312Y188071D01*
X228468Y188305D01*
X228647Y188546D01*
X228981Y188934D01*
X229478Y189431D01*
X282110D01*
X282621Y189393D01*
X282918Y189350D01*
X283194Y189294D01*
X283426Y189232D01*
X283613Y189168D01*
X283757Y189105D01*
X283858Y189050D01*
X283925Y189004D01*
X284168Y188761D01*
X286005Y188000D01*
X287995D01*
X289832Y188761D01*
X291239Y190168D01*
X292000Y192005D01*
Y193995D01*
X291239Y195832D01*
X289832Y197239D01*
X287995Y198000D01*
X286005D01*
X284168Y197239D01*
X283925Y196996D01*
X283858Y196950D01*
X283757Y196894D01*
X283613Y196832D01*
X283426Y196768D01*
X283194Y196706D01*
X282918Y196650D01*
X282621Y196607D01*
X282110Y196569D01*
X245560D01*
X244595Y198069D01*
X245000Y199045D01*
Y201035D01*
X244239Y202872D01*
X243154Y203957D01*
X243172Y204608D01*
X243336Y205272D01*
X243491Y205580D01*
X245033Y206218D01*
X246440Y207625D01*
X247201Y209463D01*
Y211452D01*
X246440Y213289D01*
X245033Y214696D01*
X243195Y215457D01*
D02*
G37*
G36*
X141316Y205000D02*
X138684D01*
X136140Y204319D01*
X133860Y203002D01*
X131998Y201140D01*
X130681Y198860D01*
X130000Y196317D01*
Y193683D01*
X130681Y191140D01*
X131998Y188860D01*
X133860Y186998D01*
X136140Y185681D01*
X138684Y185000D01*
X141316D01*
X143860Y185681D01*
X146140Y186998D01*
X148002Y188860D01*
X149319Y191140D01*
X150000Y193683D01*
Y196317D01*
X149319Y198860D01*
X148002Y201140D01*
X146140Y203002D01*
X143860Y204319D01*
X141316Y205000D01*
D02*
G37*
G36*
X116316D02*
X113684D01*
X111140Y204319D01*
X108860Y203002D01*
X106998Y201140D01*
X105681Y198860D01*
X105000Y196317D01*
Y193683D01*
X105681Y191140D01*
X106998Y188860D01*
X108860Y186998D01*
X111140Y185681D01*
X113684Y185000D01*
X116316D01*
X118860Y185681D01*
X121140Y186998D01*
X123002Y188860D01*
X124319Y191140D01*
X125000Y193683D01*
Y196317D01*
X124319Y198860D01*
X123002Y201140D01*
X121140Y203002D01*
X118860Y204319D01*
X116316Y205000D01*
D02*
G37*
G36*
X45895Y192500D02*
X44105D01*
X42451Y191815D01*
X41185Y190549D01*
X40500Y188895D01*
Y187105D01*
X41185Y185451D01*
X42451Y184185D01*
X44105Y183500D01*
X45895D01*
X47549Y184185D01*
X48815Y185451D01*
X49500Y187105D01*
Y188895D01*
X48815Y190549D01*
X47549Y191815D01*
X45895Y192500D01*
D02*
G37*
G36*
X29895D02*
X28105D01*
X26451Y191815D01*
X25185Y190549D01*
X24500Y188895D01*
Y187105D01*
X25185Y185451D01*
X26451Y184185D01*
X28105Y183500D01*
X29895D01*
X31549Y184185D01*
X32815Y185451D01*
X33500Y187105D01*
Y188895D01*
X32815Y190549D01*
X31549Y191815D01*
X29895Y192500D01*
D02*
G37*
G36*
X91316Y205000D02*
X88684D01*
X86140Y204319D01*
X83860Y203002D01*
X81998Y201140D01*
X80681Y198860D01*
X80000Y196317D01*
Y193683D01*
X80681Y191140D01*
X81998Y188860D01*
X83860Y186998D01*
X86140Y185681D01*
X88684Y185000D01*
X89015D01*
X90402Y184801D01*
X91946Y184533D01*
X94695Y183905D01*
X95818Y183568D01*
X96816Y183207D01*
X97665Y182833D01*
X98363Y182456D01*
X98909Y182087D01*
X99208Y181826D01*
X103630Y177405D01*
X102780Y176133D01*
X101895Y176500D01*
X100105D01*
X98451Y175815D01*
X97185Y174549D01*
X96500Y172895D01*
Y171105D01*
X97185Y169451D01*
X98451Y168185D01*
X100105Y167500D01*
X101895D01*
X103549Y168185D01*
X104815Y169451D01*
X105500Y171105D01*
Y172895D01*
X105133Y173780D01*
X106405Y174630D01*
X108474Y172561D01*
X109384Y171953D01*
X110457Y171739D01*
X144295D01*
X158023Y158012D01*
X158151Y157848D01*
X158290Y157638D01*
X158422Y157402D01*
X158546Y157138D01*
X158661Y156844D01*
X158757Y156544D01*
X158942Y155745D01*
X158979Y155500D01*
X158889Y154913D01*
X157793Y154000D01*
X157006D01*
X155168Y153239D01*
X153761Y151832D01*
X153000Y149995D01*
Y148006D01*
X153761Y146168D01*
X155168Y144761D01*
X157006Y144000D01*
X158995D01*
X160832Y144761D01*
X162239Y146168D01*
X163000Y148006D01*
Y149614D01*
X163001Y149996D01*
X164207Y151000D01*
X164995D01*
X166832Y151761D01*
X168239Y153168D01*
X168942Y154866D01*
X169603Y155176D01*
X170500Y155429D01*
X171168Y154761D01*
X173005Y154000D01*
X173969Y152500D01*
X173760Y151995D01*
Y150006D01*
X174521Y148168D01*
X175928Y146761D01*
X177765Y146000D01*
X179755D01*
X181592Y146761D01*
X182999Y148168D01*
X183760Y150006D01*
Y151995D01*
X182999Y153832D01*
X181592Y155239D01*
X179755Y156000D01*
X178791Y157500D01*
X179000Y158005D01*
Y159995D01*
X178239Y161832D01*
X176832Y163239D01*
X174995Y164000D01*
X173005D01*
X171168Y163239D01*
X169761Y161832D01*
X169058Y160135D01*
X168397Y159824D01*
X167500Y159571D01*
X166832Y160239D01*
X164995Y161000D01*
X164635D01*
X164229Y161062D01*
X163839Y161142D01*
X163482Y161234D01*
X163156Y161339D01*
X162862Y161454D01*
X162598Y161578D01*
X162362Y161710D01*
X162152Y161849D01*
X161988Y161977D01*
X147439Y176526D01*
X146530Y177134D01*
X145457Y177347D01*
X111618D01*
X103174Y185792D01*
X102914Y186091D01*
X102544Y186637D01*
X102167Y187335D01*
X101793Y188185D01*
X101432Y189182D01*
X101101Y190287D01*
X100194Y194632D01*
X100000Y195985D01*
Y196317D01*
X99319Y198860D01*
X98002Y201140D01*
X96140Y203002D01*
X93860Y204319D01*
X91316Y205000D01*
D02*
G37*
G36*
X242350Y179645D02*
X240360D01*
X238523Y178884D01*
X237116Y177477D01*
X236355Y175640D01*
Y173650D01*
X237116Y171813D01*
X238523Y170406D01*
X240360Y169645D01*
X242350D01*
X244187Y170406D01*
X245594Y171813D01*
X246355Y173650D01*
Y175640D01*
X245594Y177477D01*
X244187Y178884D01*
X242350Y179645D01*
D02*
G37*
G36*
X164995Y179000D02*
X163005D01*
X161168Y178239D01*
X159761Y176832D01*
X159000Y174995D01*
Y173005D01*
X159761Y171168D01*
X161168Y169761D01*
X163005Y169000D01*
X164995D01*
X166832Y169761D01*
X168239Y171168D01*
X169000Y173005D01*
Y174995D01*
X168239Y176832D01*
X166832Y178239D01*
X164995Y179000D01*
D02*
G37*
G36*
X37895Y176500D02*
X36105D01*
X34451Y175815D01*
X33185Y174549D01*
X32500Y172895D01*
Y171105D01*
X33185Y169451D01*
X34451Y168185D01*
X36105Y167500D01*
X37895D01*
X39549Y168185D01*
X40815Y169451D01*
X41500Y171105D01*
Y172895D01*
X40815Y174549D01*
X39549Y175815D01*
X37895Y176500D01*
D02*
G37*
G36*
X21895D02*
X20105D01*
X18451Y175815D01*
X17185Y174549D01*
X16500Y172895D01*
Y171105D01*
X17185Y169451D01*
X18451Y168185D01*
X20105Y167500D01*
X21895D01*
X23549Y168185D01*
X24815Y169451D01*
X25500Y171105D01*
Y172895D01*
X24815Y174549D01*
X23549Y175815D01*
X21895Y176500D01*
D02*
G37*
G36*
X214285Y173000D02*
X212295D01*
X210458Y172239D01*
X209051Y170832D01*
X208290Y168995D01*
Y167005D01*
X209051Y165168D01*
X210458Y163761D01*
X212295Y163000D01*
X214285D01*
X216122Y163761D01*
X217529Y165168D01*
X218290Y167005D01*
Y168995D01*
X217529Y170832D01*
X216122Y172239D01*
X214285Y173000D01*
D02*
G37*
G36*
X134995Y170000D02*
X133005D01*
X131168Y169239D01*
X129761Y167832D01*
X129000Y165995D01*
Y164005D01*
X129761Y162168D01*
X131168Y160761D01*
X133005Y160000D01*
X134995D01*
X136832Y160761D01*
X138239Y162168D01*
X139000Y164005D01*
Y165995D01*
X138239Y167832D01*
X136832Y169239D01*
X134995Y170000D01*
D02*
G37*
G36*
X115080Y157527D02*
Y154701D01*
X117906D01*
X117430Y155850D01*
X116229Y157051D01*
X115080Y157527D01*
D02*
G37*
G36*
X112541D02*
X111392Y157051D01*
X110191Y155850D01*
X109715Y154701D01*
X112541D01*
Y157527D01*
D02*
G37*
G36*
X45895Y160500D02*
X44105D01*
X42451Y159815D01*
X41185Y158549D01*
X40500Y156895D01*
Y155105D01*
X41185Y153451D01*
X42451Y152185D01*
X44105Y151500D01*
X45895D01*
X47549Y152185D01*
X48815Y153451D01*
X49500Y155105D01*
Y156895D01*
X48815Y158549D01*
X47549Y159815D01*
X45895Y160500D01*
D02*
G37*
G36*
X29895D02*
X28105D01*
X26451Y159815D01*
X25185Y158549D01*
X24500Y156895D01*
Y155105D01*
X25185Y153451D01*
X26451Y152185D01*
X28105Y151500D01*
X29895D01*
X31549Y152185D01*
X32815Y153451D01*
X33500Y155105D01*
Y156895D01*
X32815Y158549D01*
X31549Y159815D01*
X29895Y160500D01*
D02*
G37*
G36*
X241995Y160040D02*
X240005D01*
X238168Y159279D01*
X236761Y157872D01*
X236000Y156034D01*
Y154045D01*
X236761Y152208D01*
X238168Y150801D01*
X240005Y150040D01*
X241995D01*
X243832Y150801D01*
X245239Y152208D01*
X246000Y154045D01*
Y156034D01*
X245239Y157872D01*
X243832Y159279D01*
X241995Y160040D01*
D02*
G37*
G36*
X117906Y152161D02*
X115080D01*
Y149336D01*
X116229Y149811D01*
X117430Y151013D01*
X117906Y152161D01*
D02*
G37*
G36*
X112541D02*
X109715D01*
X110191Y151013D01*
X111392Y149811D01*
X112541Y149336D01*
Y152161D01*
D02*
G37*
G36*
X280973Y156083D02*
X278984D01*
X277146Y155322D01*
X275740Y153915D01*
X274979Y152078D01*
Y150088D01*
X275740Y148251D01*
X277146Y146844D01*
X278984Y146083D01*
X280973D01*
X282811Y146844D01*
X284217Y148251D01*
X284979Y150088D01*
Y152078D01*
X284217Y153915D01*
X282811Y155322D01*
X280973Y156083D01*
D02*
G37*
G36*
X230995Y153000D02*
X229005D01*
X227168Y152239D01*
X225761Y150832D01*
X225000Y148995D01*
Y147005D01*
X225761Y145168D01*
X227168Y143761D01*
X229005Y143000D01*
X230995D01*
X232832Y143761D01*
X234239Y145168D01*
X235000Y147005D01*
Y148995D01*
X234239Y150832D01*
X232832Y152239D01*
X230995Y153000D01*
D02*
G37*
G36*
X249270Y141096D02*
Y138270D01*
X252096D01*
X251620Y139419D01*
X250419Y140620D01*
X249270Y141096D01*
D02*
G37*
G36*
X246730D02*
X245581Y140620D01*
X244380Y139419D01*
X243904Y138270D01*
X246730D01*
Y141096D01*
D02*
G37*
G36*
X37895Y144500D02*
X36105D01*
X34451Y143815D01*
X33185Y142549D01*
X32500Y140895D01*
Y139105D01*
X33185Y137451D01*
X34451Y136185D01*
X36105Y135500D01*
X37895D01*
X39549Y136185D01*
X40815Y137451D01*
X41500Y139105D01*
Y140895D01*
X40815Y142549D01*
X39549Y143815D01*
X37895Y144500D01*
D02*
G37*
G36*
X21895D02*
X20105D01*
X18451Y143815D01*
X17185Y142549D01*
X16500Y140895D01*
Y139105D01*
X17185Y137451D01*
X18451Y136185D01*
X20105Y135500D01*
X21895D01*
X23549Y136185D01*
X24815Y137451D01*
X25500Y139105D01*
Y140895D01*
X24815Y142549D01*
X23549Y143815D01*
X21895Y144500D01*
D02*
G37*
G36*
X65152Y152750D02*
X62848D01*
X60623Y152154D01*
X58627Y151002D01*
X56998Y149373D01*
X55846Y147377D01*
X55250Y145152D01*
Y142848D01*
X55846Y140623D01*
X56998Y138627D01*
X58627Y136998D01*
X60623Y135846D01*
X62848Y135250D01*
X65152D01*
X67377Y135846D01*
X69373Y136998D01*
X71002Y138627D01*
X72154Y140623D01*
X72750Y142848D01*
Y145152D01*
X72154Y147377D01*
X71002Y149373D01*
X69373Y151002D01*
X67377Y152154D01*
X65152Y152750D01*
D02*
G37*
G36*
Y192750D02*
X62848D01*
X60623Y192154D01*
X58627Y191002D01*
X56998Y189373D01*
X55846Y187377D01*
X55250Y185152D01*
Y182848D01*
X55846Y180623D01*
X56998Y178627D01*
X58627Y176998D01*
X60623Y175846D01*
X62848Y175250D01*
X65152D01*
X67377Y175846D01*
X67892Y176143D01*
X108216Y135819D01*
X108166Y134054D01*
X107985Y133804D01*
X98161D01*
X75389Y156577D01*
X75196Y156796D01*
X74886Y157247D01*
X74568Y157818D01*
X74253Y158513D01*
X73949Y159328D01*
X73672Y160221D01*
X72911Y163785D01*
X72750Y164898D01*
Y165152D01*
X72154Y167377D01*
X71002Y169373D01*
X69373Y171002D01*
X67377Y172154D01*
X65152Y172750D01*
X62848D01*
X60623Y172154D01*
X58627Y171002D01*
X56998Y169373D01*
X55846Y167377D01*
X55250Y165152D01*
Y162848D01*
X55846Y160623D01*
X56998Y158627D01*
X58627Y156998D01*
X60623Y155846D01*
X62848Y155250D01*
X63102D01*
X64251Y155084D01*
X65506Y154863D01*
X67760Y154334D01*
X68672Y154051D01*
X69488Y153747D01*
X70182Y153432D01*
X70754Y153115D01*
X71204Y152804D01*
X71424Y152611D01*
X94134Y129901D01*
X93413Y128500D01*
X92105D01*
X90451Y127815D01*
X89185Y126549D01*
X88500Y124895D01*
Y123105D01*
X89185Y121451D01*
X90451Y120185D01*
X90834Y120026D01*
X91186Y118257D01*
X90761Y117832D01*
X90000Y115995D01*
Y114005D01*
X90761Y112168D01*
X92168Y110761D01*
X94005Y110000D01*
X95995D01*
X97832Y110761D01*
X99239Y112168D01*
X100000Y114005D01*
Y115995D01*
X99425Y117382D01*
X100697Y118232D01*
X101168Y117761D01*
X103005Y117000D01*
X104995D01*
X106832Y117761D01*
X108239Y119168D01*
X109000Y121005D01*
Y122995D01*
X108239Y124832D01*
X106832Y126239D01*
X105728Y126696D01*
X106026Y128196D01*
X152711D01*
X153332Y126696D01*
X153185Y126549D01*
X152500Y124895D01*
Y123105D01*
X153185Y121451D01*
X154451Y120185D01*
X156105Y119500D01*
X157895D01*
X159549Y120185D01*
X160815Y121451D01*
X161500Y123105D01*
Y124895D01*
X160815Y126549D01*
X160668Y126696D01*
X161289Y128196D01*
X176061D01*
X176631Y126696D01*
X175948Y125047D01*
Y123058D01*
X176709Y121220D01*
X178116Y119813D01*
X179953Y119052D01*
X181942D01*
X183780Y119813D01*
X184500Y120534D01*
X186000Y119912D01*
Y119005D01*
X186761Y117168D01*
X188168Y115761D01*
X190005Y115000D01*
X191995D01*
X193635Y115680D01*
X193887Y115740D01*
X195351Y115158D01*
X195761Y114168D01*
X197168Y112761D01*
X199005Y112000D01*
X200995D01*
X202832Y112761D01*
X204239Y114168D01*
X205000Y116005D01*
Y117995D01*
X204239Y119832D01*
X202832Y121239D01*
X200995Y122000D01*
X199005D01*
X197365Y121320D01*
X197113Y121260D01*
X195649Y121842D01*
X195239Y122832D01*
X193832Y124239D01*
X191995Y125000D01*
X190005D01*
X188168Y124239D01*
X187448Y123519D01*
X185948Y124140D01*
Y125047D01*
X185265Y126696D01*
X185835Y128196D01*
X211839D01*
X223023Y117012D01*
X223151Y116848D01*
X223290Y116638D01*
X223422Y116402D01*
X223546Y116138D01*
X223661Y115844D01*
X223757Y115545D01*
X223942Y114745D01*
X224000Y114366D01*
Y114005D01*
X224761Y112168D01*
X226168Y110761D01*
X228005Y110000D01*
X229995D01*
X231832Y110761D01*
X233239Y112168D01*
X234000Y114005D01*
Y115995D01*
X233239Y117832D01*
X231832Y119239D01*
X229995Y120000D01*
X229634D01*
X229229Y120062D01*
X228839Y120142D01*
X228482Y120234D01*
X228156Y120339D01*
X227862Y120454D01*
X227598Y120578D01*
X227362Y120710D01*
X227152Y120849D01*
X226988Y120977D01*
X214983Y132983D01*
X214073Y133590D01*
X213000Y133804D01*
X205698D01*
X205517Y134054D01*
X205412Y135304D01*
X205442Y135582D01*
X205744Y136026D01*
X205850Y136110D01*
X205859Y136114D01*
X205931Y136139D01*
X206003Y136155D01*
X206085Y136163D01*
X206183Y136163D01*
X206306Y136149D01*
X206408Y136128D01*
X206715Y136000D01*
X208705D01*
X210542Y136761D01*
X211949Y138168D01*
X212710Y140005D01*
Y141995D01*
X211949Y143832D01*
X210542Y145239D01*
X208705Y146000D01*
X206715D01*
X204878Y145239D01*
X203471Y143832D01*
X202710Y141995D01*
Y141846D01*
X202630Y141573D01*
X202536Y141327D01*
X202423Y141071D01*
X202299Y140828D01*
X202169Y140605D01*
X111360D01*
X71857Y180108D01*
X72154Y180623D01*
X72750Y182848D01*
Y185152D01*
X72154Y187377D01*
X71002Y189373D01*
X69373Y191002D01*
X67377Y192154D01*
X65152Y192750D01*
D02*
G37*
G36*
X252096Y135730D02*
X249270D01*
Y132904D01*
X250419Y133380D01*
X251620Y134581D01*
X252096Y135730D01*
D02*
G37*
G36*
X246730D02*
X243904D01*
X244380Y134581D01*
X245581Y133380D01*
X246730Y132904D01*
Y135730D01*
D02*
G37*
G36*
X263270Y132096D02*
Y129270D01*
X266096D01*
X265620Y130419D01*
X264419Y131620D01*
X263270Y132096D01*
D02*
G37*
G36*
X260730D02*
X259581Y131620D01*
X258380Y130419D01*
X257904Y129270D01*
X260730D01*
Y132096D01*
D02*
G37*
G36*
X266096Y126730D02*
X263270D01*
Y123904D01*
X264419Y124380D01*
X265620Y125581D01*
X266096Y126730D01*
D02*
G37*
G36*
X260730D02*
X257904D01*
X258380Y125581D01*
X259581Y124380D01*
X260730Y123904D01*
Y126730D01*
D02*
G37*
G36*
X77895Y128500D02*
X76105D01*
X74451Y127815D01*
X73185Y126549D01*
X72500Y124895D01*
Y123105D01*
X73185Y121451D01*
X74451Y120185D01*
X76105Y119500D01*
X77895D01*
X79549Y120185D01*
X80815Y121451D01*
X81500Y123105D01*
Y124895D01*
X80815Y126549D01*
X79549Y127815D01*
X77895Y128500D01*
D02*
G37*
G36*
X61895D02*
X60105D01*
X58451Y127815D01*
X57185Y126549D01*
X56500Y124895D01*
Y123105D01*
X57185Y121451D01*
X58451Y120185D01*
X60105Y119500D01*
X61895D01*
X63549Y120185D01*
X64815Y121451D01*
X65500Y123105D01*
Y124895D01*
X64815Y126549D01*
X63549Y127815D01*
X61895Y128500D01*
D02*
G37*
G36*
X45895D02*
X44105D01*
X42451Y127815D01*
X41185Y126549D01*
X40500Y124895D01*
Y123105D01*
X41185Y121451D01*
X42451Y120185D01*
X44105Y119500D01*
X45895D01*
X47549Y120185D01*
X48815Y121451D01*
X49500Y123105D01*
Y124895D01*
X48815Y126549D01*
X47549Y127815D01*
X45895Y128500D01*
D02*
G37*
G36*
X29895D02*
X28105D01*
X26451Y127815D01*
X25185Y126549D01*
X24500Y124895D01*
Y123105D01*
X25185Y121451D01*
X26451Y120185D01*
X28105Y119500D01*
X29895D01*
X31549Y120185D01*
X32815Y121451D01*
X33500Y123105D01*
Y124895D01*
X32815Y126549D01*
X31549Y127815D01*
X29895Y128500D01*
D02*
G37*
G36*
X248995Y129000D02*
X247005D01*
X245168Y128239D01*
X243761Y126832D01*
X243000Y124995D01*
Y123005D01*
X243761Y121168D01*
X245168Y119761D01*
X247005Y119000D01*
X248995D01*
X250832Y119761D01*
X252239Y121168D01*
X253000Y123005D01*
Y124995D01*
X252239Y126832D01*
X250832Y128239D01*
X248995Y129000D01*
D02*
G37*
G36*
X277995Y136710D02*
X276005D01*
X274168Y135949D01*
X272761Y134542D01*
X272000Y132704D01*
Y130715D01*
X272761Y128878D01*
X274168Y127471D01*
X276005Y126710D01*
X277995D01*
X279358Y127275D01*
X280208Y126003D01*
X233477Y79272D01*
X232703Y78114D01*
X232431Y76748D01*
Y46890D01*
X232393Y46379D01*
X232350Y46082D01*
X232294Y45806D01*
X232232Y45574D01*
X232168Y45387D01*
X232106Y45243D01*
X232050Y45142D01*
X232004Y45075D01*
X231761Y44832D01*
X231000Y42995D01*
Y41005D01*
X231761Y39168D01*
X233168Y37761D01*
X235005Y37000D01*
X236995D01*
X238832Y37761D01*
X240239Y39168D01*
X241000Y41005D01*
Y42995D01*
X240239Y44832D01*
X239996Y45075D01*
X239950Y45142D01*
X239895Y45243D01*
X239832Y45387D01*
X239768Y45574D01*
X239706Y45806D01*
X239650Y46082D01*
X239607Y46379D01*
X239569Y46890D01*
Y75270D01*
X281500Y117202D01*
X283000Y116580D01*
Y116005D01*
X283761Y114168D01*
X285168Y112761D01*
X287005Y112000D01*
X288995D01*
X290832Y112761D01*
X292239Y114168D01*
X293000Y116005D01*
Y117995D01*
X292239Y119832D01*
X290832Y121239D01*
X289631Y121736D01*
Y123360D01*
X289719Y123397D01*
X291126Y124803D01*
X291887Y126641D01*
Y128630D01*
X291126Y130468D01*
X289719Y131874D01*
X287882Y132635D01*
X285892D01*
X284055Y131874D01*
X283500Y131320D01*
X282000Y131941D01*
Y132704D01*
X281239Y134542D01*
X279832Y135949D01*
X277995Y136710D01*
D02*
G37*
G36*
X59995Y118000D02*
X58005D01*
X56168Y117239D01*
X54761Y115832D01*
X54000Y113995D01*
Y112005D01*
X54761Y110168D01*
X56168Y108761D01*
X58005Y108000D01*
X59995D01*
X61832Y108761D01*
X63239Y110168D01*
X64000Y112005D01*
Y113995D01*
X63239Y115832D01*
X61832Y117239D01*
X59995Y118000D01*
D02*
G37*
G36*
X59677Y104689D02*
Y101863D01*
X62503D01*
X62027Y103012D01*
X60826Y104213D01*
X59677Y104689D01*
D02*
G37*
G36*
X57137D02*
X55989Y104213D01*
X54787Y103012D01*
X54311Y101863D01*
X57137D01*
Y104689D01*
D02*
G37*
G36*
X198995Y110000D02*
X197005D01*
X195168Y109239D01*
X193761Y107832D01*
X193000Y105995D01*
Y104005D01*
X193761Y102168D01*
X195168Y100761D01*
X197005Y100000D01*
X198995D01*
X200832Y100761D01*
X202239Y102168D01*
X203000Y104005D01*
Y105995D01*
X202239Y107832D01*
X200832Y109239D01*
X198995Y110000D01*
D02*
G37*
G36*
X62503Y99323D02*
X59677D01*
Y96497D01*
X60826Y96973D01*
X62027Y98174D01*
X62503Y99323D01*
D02*
G37*
G36*
X57137D02*
X54311D01*
X54787Y98174D01*
X55989Y96973D01*
X57137Y96497D01*
Y99323D01*
D02*
G37*
G36*
X187995Y89000D02*
X186005D01*
X184168Y88239D01*
X182761Y86832D01*
X182000Y84995D01*
Y83006D01*
X182761Y81168D01*
X184168Y79761D01*
X186005Y79000D01*
X187995D01*
X189832Y79761D01*
X191239Y81168D01*
X192000Y83006D01*
Y84995D01*
X191239Y86832D01*
X189832Y88239D01*
X187995Y89000D01*
D02*
G37*
G36*
X85895Y80500D02*
X84105D01*
X82451Y79815D01*
X81185Y78549D01*
X80500Y76895D01*
Y75105D01*
X81185Y73451D01*
X82451Y72185D01*
X84105Y71500D01*
X85895D01*
X87549Y72185D01*
X88815Y73451D01*
X89500Y75105D01*
Y76895D01*
X88815Y78549D01*
X87549Y79815D01*
X85895Y80500D01*
D02*
G37*
G36*
X53895D02*
X52105D01*
X50451Y79815D01*
X49185Y78549D01*
X48500Y76895D01*
Y75105D01*
X49185Y73451D01*
X50451Y72185D01*
X52105Y71500D01*
X53895D01*
X55549Y72185D01*
X56815Y73451D01*
X57500Y75105D01*
Y76895D01*
X56815Y78549D01*
X55549Y79815D01*
X53895Y80500D01*
D02*
G37*
G36*
X268995Y88000D02*
X267005D01*
X265168Y87239D01*
X263761Y85832D01*
X263000Y83995D01*
Y82005D01*
X263761Y80168D01*
X265168Y78761D01*
X266398Y78252D01*
Y76628D01*
X265458Y76239D01*
X264051Y74832D01*
X263290Y72994D01*
Y71005D01*
X264051Y69168D01*
X265458Y67761D01*
X267295Y67000D01*
X269285D01*
X271122Y67761D01*
X272529Y69168D01*
X273290Y71005D01*
Y71225D01*
X273706Y71569D01*
X274790Y72045D01*
X276105Y71500D01*
X277895D01*
X279549Y72185D01*
X279960Y72596D01*
X281730Y72244D01*
X281761Y72168D01*
X283168Y70761D01*
X285005Y70000D01*
X286995D01*
X288832Y70761D01*
X290239Y72168D01*
X291000Y74005D01*
Y75995D01*
X290239Y77832D01*
X288832Y79239D01*
X286995Y80000D01*
X285005D01*
X283168Y79239D01*
X282450Y78521D01*
X280855Y78548D01*
X280667Y78697D01*
X279549Y79815D01*
X277895Y80500D01*
X276105D01*
X274451Y79815D01*
X273185Y78549D01*
X272529Y76965D01*
X271114Y76445D01*
X270186Y76986D01*
X270226Y78510D01*
X270832Y78761D01*
X272239Y80168D01*
X273000Y82005D01*
Y83995D01*
X272239Y85832D01*
X270832Y87239D01*
X268995Y88000D01*
D02*
G37*
G36*
X163995Y72000D02*
X162005D01*
X160168Y71239D01*
X158761Y69832D01*
X157167Y69904D01*
X156832Y70239D01*
X154995Y71000D01*
X153006D01*
X151168Y70239D01*
X150126Y69197D01*
X148736Y69287D01*
X148404Y69434D01*
X148239Y69832D01*
X146832Y71239D01*
X144995Y72000D01*
X143005D01*
X141168Y71239D01*
X139761Y69832D01*
X139000Y67995D01*
Y66005D01*
X139761Y64168D01*
X141168Y62761D01*
X143005Y62000D01*
X144995D01*
X146832Y62761D01*
X147874Y63803D01*
X149264Y63713D01*
X149596Y63566D01*
X149761Y63168D01*
X151168Y61761D01*
X153006Y61000D01*
X154995D01*
X156832Y61761D01*
X158239Y63168D01*
X159833Y63096D01*
X160168Y62761D01*
X162005Y62000D01*
X163995D01*
X165832Y62761D01*
X167239Y64168D01*
X168000Y66006D01*
Y67995D01*
X167239Y69832D01*
X165832Y71239D01*
X163995Y72000D01*
D02*
G37*
G36*
X202995Y74000D02*
X201005D01*
X199168Y73239D01*
X197761Y71832D01*
X197000Y69995D01*
Y68005D01*
X197761Y66168D01*
X199168Y64761D01*
X201005Y64000D01*
X202995D01*
X204832Y64761D01*
X206239Y66168D01*
X207000Y68005D01*
Y69995D01*
X206239Y71832D01*
X204832Y73239D01*
X202995Y74000D01*
D02*
G37*
G36*
X101270Y63096D02*
Y60270D01*
X104096D01*
X103620Y61419D01*
X102419Y62620D01*
X101270Y63096D01*
D02*
G37*
G36*
X98730D02*
X97581Y62620D01*
X96380Y61419D01*
X95904Y60270D01*
X98730D01*
Y63096D01*
D02*
G37*
G36*
X60995Y93000D02*
X59005D01*
X57168Y92239D01*
X55761Y90832D01*
X55000Y88995D01*
Y87005D01*
X55761Y85168D01*
X57168Y83761D01*
X59005Y83000D01*
X60995D01*
X62832Y83761D01*
X63087Y84016D01*
X63418Y84259D01*
X63749Y84478D01*
X64068Y84665D01*
X64372Y84821D01*
X64661Y84948D01*
X64936Y85047D01*
X65196Y85120D01*
X65443Y85171D01*
X65649Y85196D01*
X90165D01*
X90705Y83696D01*
X90000Y81995D01*
Y80005D01*
X90761Y78168D01*
X92168Y76761D01*
X94005Y76000D01*
X94808D01*
X95154Y75575D01*
X95624Y74500D01*
X95000Y72995D01*
Y71005D01*
X95761Y69168D01*
X97168Y67761D01*
X99005Y67000D01*
X100995D01*
X102832Y67761D01*
X104239Y69168D01*
X105000Y71005D01*
Y72995D01*
X104239Y74832D01*
X102832Y76239D01*
X100995Y77000D01*
X100192D01*
X99846Y77425D01*
X99376Y78500D01*
X100000Y80005D01*
Y81995D01*
X99295Y83696D01*
X99835Y85196D01*
X112734D01*
X120913Y77017D01*
X121822Y76410D01*
X122895Y76196D01*
X165351D01*
X165557Y76171D01*
X165804Y76121D01*
X166064Y76047D01*
X166339Y75948D01*
X166628Y75821D01*
X166908Y75678D01*
X167603Y75243D01*
X167913Y75016D01*
X168168Y74761D01*
X170005Y74000D01*
X171995D01*
X173193Y74496D01*
X174042Y73225D01*
X173691Y72874D01*
X172930Y71036D01*
Y69047D01*
X173691Y67209D01*
X175098Y65802D01*
X176935Y65041D01*
X178925D01*
X180762Y65802D01*
X181675Y66715D01*
X182790Y66109D01*
X183000Y65919D01*
Y64005D01*
X183761Y62168D01*
X185168Y60761D01*
X187005Y60000D01*
X188995D01*
X190832Y60761D01*
X192239Y62168D01*
X193000Y64005D01*
Y65995D01*
X192239Y67832D01*
X190832Y69239D01*
X188995Y70000D01*
X187005D01*
X185168Y69239D01*
X184255Y68326D01*
X183140Y68932D01*
X182930Y69122D01*
Y71036D01*
X182169Y72874D01*
X180762Y74280D01*
X178925Y75041D01*
X176935D01*
X175737Y74545D01*
X174888Y75817D01*
X175239Y76168D01*
X176000Y78005D01*
Y79995D01*
X175239Y81832D01*
X173832Y83239D01*
X171995Y84000D01*
X170005D01*
X168168Y83239D01*
X167913Y82984D01*
X167582Y82741D01*
X167251Y82522D01*
X166932Y82335D01*
X166628Y82179D01*
X166339Y82052D01*
X166064Y81953D01*
X165804Y81880D01*
X165557Y81829D01*
X165351Y81804D01*
X124057D01*
X115878Y89983D01*
X114968Y90590D01*
X113895Y90804D01*
X65649D01*
X65443Y90829D01*
X65196Y90879D01*
X64936Y90953D01*
X64661Y91052D01*
X64372Y91179D01*
X64092Y91322D01*
X63397Y91757D01*
X63087Y91984D01*
X62832Y92239D01*
X60995Y93000D01*
D02*
G37*
G36*
X269895Y64500D02*
X268105D01*
X266451Y63815D01*
X265185Y62549D01*
X264500Y60895D01*
Y59105D01*
X265185Y57451D01*
X266451Y56185D01*
X268105Y55500D01*
X269895D01*
X271549Y56185D01*
X272815Y57451D01*
X273500Y59105D01*
Y60895D01*
X272815Y62549D01*
X271549Y63815D01*
X269895Y64500D01*
D02*
G37*
G36*
X77895D02*
X76105D01*
X74451Y63815D01*
X73185Y62549D01*
X72500Y60895D01*
Y59105D01*
X73185Y57451D01*
X74451Y56185D01*
X76105Y55500D01*
X77895D01*
X79549Y56185D01*
X80815Y57451D01*
X81500Y59105D01*
Y60895D01*
X80815Y62549D01*
X79549Y63815D01*
X77895Y64500D01*
D02*
G37*
G36*
X61895D02*
X60105D01*
X58451Y63815D01*
X57185Y62549D01*
X56500Y60895D01*
Y59105D01*
X57185Y57451D01*
X58451Y56185D01*
X60105Y55500D01*
X61895D01*
X63549Y56185D01*
X64815Y57451D01*
X65500Y59105D01*
Y60895D01*
X64815Y62549D01*
X63549Y63815D01*
X61895Y64500D01*
D02*
G37*
G36*
X104096Y57730D02*
X101270D01*
Y54904D01*
X102419Y55380D01*
X103620Y56581D01*
X104096Y57730D01*
D02*
G37*
G36*
X98730D02*
X95904D01*
X96380Y56581D01*
X97581Y55380D01*
X98730Y54904D01*
Y57730D01*
D02*
G37*
G36*
X208995Y61000D02*
X207006D01*
X205168Y60239D01*
X203761Y58832D01*
X203000Y56995D01*
Y55005D01*
X203761Y53168D01*
X205168Y51761D01*
X207006Y51000D01*
X208995D01*
X210832Y51761D01*
X212239Y53168D01*
X213000Y55005D01*
Y56995D01*
X212239Y58832D01*
X210832Y60239D01*
X208995Y61000D01*
D02*
G37*
G36*
X261895Y48500D02*
X260105D01*
X258451Y47815D01*
X257185Y46549D01*
X256500Y44895D01*
Y43105D01*
X257185Y41451D01*
X258451Y40185D01*
X260105Y39500D01*
X261895D01*
X263549Y40185D01*
X264815Y41451D01*
X265500Y43105D01*
Y44895D01*
X264815Y46549D01*
X263549Y47815D01*
X261895Y48500D01*
D02*
G37*
G36*
X133895D02*
X132105D01*
X130451Y47815D01*
X129185Y46549D01*
X128500Y44895D01*
Y43105D01*
X129185Y41451D01*
X130451Y40185D01*
X132105Y39500D01*
X133895D01*
X135549Y40185D01*
X136815Y41451D01*
X137500Y43105D01*
Y44895D01*
X136815Y46549D01*
X135549Y47815D01*
X133895Y48500D01*
D02*
G37*
G36*
X117895D02*
X116105D01*
X114451Y47815D01*
X113185Y46549D01*
X112500Y44895D01*
Y43105D01*
X113185Y41451D01*
X114451Y40185D01*
X116105Y39500D01*
X117895D01*
X119549Y40185D01*
X120815Y41451D01*
X121500Y43105D01*
Y44895D01*
X120815Y46549D01*
X119549Y47815D01*
X117895Y48500D01*
D02*
G37*
G36*
X101895D02*
X100105D01*
X98451Y47815D01*
X97185Y46549D01*
X96500Y44895D01*
Y43105D01*
X97185Y41451D01*
X98451Y40185D01*
X100105Y39500D01*
X101895D01*
X103549Y40185D01*
X104815Y41451D01*
X105500Y43105D01*
Y44895D01*
X104815Y46549D01*
X103549Y47815D01*
X101895Y48500D01*
D02*
G37*
G36*
X85895D02*
X84105D01*
X82451Y47815D01*
X81185Y46549D01*
X80500Y44895D01*
Y43105D01*
X81185Y41451D01*
X82451Y40185D01*
X84105Y39500D01*
X85895D01*
X87549Y40185D01*
X88815Y41451D01*
X89500Y43105D01*
Y44895D01*
X88815Y46549D01*
X87549Y47815D01*
X85895Y48500D01*
D02*
G37*
G36*
X69895D02*
X68105D01*
X66451Y47815D01*
X65185Y46549D01*
X64500Y44895D01*
Y43105D01*
X65185Y41451D01*
X66451Y40185D01*
X68105Y39500D01*
X69895D01*
X71549Y40185D01*
X72815Y41451D01*
X73500Y43105D01*
Y44895D01*
X72815Y46549D01*
X71549Y47815D01*
X69895Y48500D01*
D02*
G37*
G36*
X53895D02*
X52105D01*
X50451Y47815D01*
X49185Y46549D01*
X48500Y44895D01*
Y43105D01*
X49185Y41451D01*
X50451Y40185D01*
X52105Y39500D01*
X53895D01*
X55549Y40185D01*
X56815Y41451D01*
X57500Y43105D01*
Y44895D01*
X56815Y46549D01*
X55549Y47815D01*
X53895Y48500D01*
D02*
G37*
G36*
X124270Y37096D02*
Y34270D01*
X127096D01*
X126620Y35419D01*
X125419Y36620D01*
X124270Y37096D01*
D02*
G37*
G36*
X121730D02*
X120581Y36620D01*
X119380Y35419D01*
X118904Y34270D01*
X121730D01*
Y37096D01*
D02*
G37*
G36*
X127096Y31730D02*
X124270D01*
Y28904D01*
X125419Y29380D01*
X126620Y30581D01*
X127096Y31730D01*
D02*
G37*
G36*
X121730D02*
X118904D01*
X119380Y30581D01*
X120581Y29380D01*
X121730Y28904D01*
Y31730D01*
D02*
G37*
G36*
X269895Y32500D02*
X268105D01*
X266451Y31815D01*
X265185Y30549D01*
X264500Y28895D01*
Y27105D01*
X265185Y25451D01*
X266451Y24185D01*
X268105Y23500D01*
X269895D01*
X271549Y24185D01*
X272815Y25451D01*
X273500Y27105D01*
Y28895D01*
X272815Y30549D01*
X271549Y31815D01*
X269895Y32500D01*
D02*
G37*
G36*
X237895D02*
X236105D01*
X234451Y31815D01*
X233185Y30549D01*
X232500Y28895D01*
Y27105D01*
X233185Y25451D01*
X234451Y24185D01*
X236105Y23500D01*
X237895D01*
X239549Y24185D01*
X240815Y25451D01*
X241500Y27105D01*
Y28895D01*
X240815Y30549D01*
X239549Y31815D01*
X237895Y32500D01*
D02*
G37*
G36*
X109895D02*
X108105D01*
X106451Y31815D01*
X105185Y30549D01*
X104500Y28895D01*
Y27105D01*
X105185Y25451D01*
X106451Y24185D01*
X108105Y23500D01*
X109895D01*
X111549Y24185D01*
X112815Y25451D01*
X113500Y27105D01*
Y28895D01*
X112815Y30549D01*
X111549Y31815D01*
X109895Y32500D01*
D02*
G37*
G36*
X93895D02*
X92105D01*
X90451Y31815D01*
X89185Y30549D01*
X88500Y28895D01*
Y27105D01*
X89185Y25451D01*
X90451Y24185D01*
X92105Y23500D01*
X93895D01*
X95549Y24185D01*
X96815Y25451D01*
X97500Y27105D01*
Y28895D01*
X96815Y30549D01*
X95549Y31815D01*
X93895Y32500D01*
D02*
G37*
G36*
X77895D02*
X76105D01*
X74451Y31815D01*
X73185Y30549D01*
X72500Y28895D01*
Y27105D01*
X73185Y25451D01*
X74451Y24185D01*
X76105Y23500D01*
X77895D01*
X79549Y24185D01*
X80815Y25451D01*
X81500Y27105D01*
Y28895D01*
X80815Y30549D01*
X79549Y31815D01*
X77895Y32500D01*
D02*
G37*
G36*
X61895D02*
X60105D01*
X58451Y31815D01*
X57185Y30549D01*
X56500Y28895D01*
Y27105D01*
X57185Y25451D01*
X58451Y24185D01*
X60105Y23500D01*
X61895D01*
X63549Y24185D01*
X64815Y25451D01*
X65500Y27105D01*
Y28895D01*
X64815Y30549D01*
X63549Y31815D01*
X61895Y32500D01*
D02*
G37*
G36*
X295096Y23690D02*
X292270D01*
Y20864D01*
X293419Y21340D01*
X294620Y22541D01*
X295096Y23690D01*
D02*
G37*
G36*
X289730D02*
X286904D01*
X287380Y22541D01*
X288581Y21340D01*
X289730Y20864D01*
Y23690D01*
D02*
G37*
G36*
X124995Y24000D02*
X123005D01*
X121168Y23239D01*
X119761Y21832D01*
X119000Y19994D01*
Y18005D01*
X119170Y17596D01*
X118022Y16448D01*
X117895Y16500D01*
X116105D01*
X114451Y15815D01*
X113185Y14549D01*
X112500Y12895D01*
Y11105D01*
X113185Y9451D01*
X114451Y8185D01*
X116105Y7500D01*
X117895D01*
X119549Y8185D01*
X120815Y9451D01*
X121500Y11105D01*
Y12895D01*
X121448Y13022D01*
X122596Y14170D01*
X123005Y14000D01*
X124995D01*
X126832Y14761D01*
X128239Y16168D01*
X129000Y18005D01*
Y19994D01*
X128239Y21832D01*
X126832Y23239D01*
X124995Y24000D01*
D02*
G37*
G36*
X101895Y16500D02*
X100105D01*
X98451Y15815D01*
X97185Y14549D01*
X96500Y12895D01*
Y11105D01*
X97185Y9451D01*
X98451Y8185D01*
X100105Y7500D01*
X101895D01*
X103549Y8185D01*
X104815Y9451D01*
X105500Y11105D01*
Y12895D01*
X104815Y14549D01*
X103549Y15815D01*
X101895Y16500D01*
D02*
G37*
G36*
X85895D02*
X84105D01*
X82451Y15815D01*
X81185Y14549D01*
X80500Y12895D01*
Y11105D01*
X81185Y9451D01*
X82451Y8185D01*
X84105Y7500D01*
X85895D01*
X87549Y8185D01*
X88815Y9451D01*
X89500Y11105D01*
Y12895D01*
X88815Y14549D01*
X87549Y15815D01*
X85895Y16500D01*
D02*
G37*
G36*
X69895D02*
X68105D01*
X66451Y15815D01*
X65185Y14549D01*
X64500Y12895D01*
Y11105D01*
X65185Y9451D01*
X66451Y8185D01*
X68105Y7500D01*
X69895D01*
X71549Y8185D01*
X72815Y9451D01*
X73500Y11105D01*
Y12895D01*
X72815Y14549D01*
X71549Y15815D01*
X69895Y16500D01*
D02*
G37*
G36*
X53895D02*
X52105D01*
X50451Y15815D01*
X49185Y14549D01*
X48500Y12895D01*
Y11105D01*
X49185Y9451D01*
X50451Y8185D01*
X52105Y7500D01*
X53895D01*
X55549Y8185D01*
X56815Y9451D01*
X57500Y11105D01*
Y12895D01*
X56815Y14549D01*
X55549Y15815D01*
X53895Y16500D01*
D02*
G37*
G36*
X37895D02*
X36105D01*
X34451Y15815D01*
X33185Y14549D01*
X32500Y12895D01*
Y11105D01*
X33185Y9451D01*
X34451Y8185D01*
X36105Y7500D01*
X37895D01*
X39549Y8185D01*
X40815Y9451D01*
X41500Y11105D01*
Y12895D01*
X40815Y14549D01*
X39549Y15815D01*
X37895Y16500D01*
D02*
G37*
G36*
X21895D02*
X20105D01*
X18451Y15815D01*
X17185Y14549D01*
X16500Y12895D01*
Y11105D01*
X17185Y9451D01*
X18451Y8185D01*
X20105Y7500D01*
X21895D01*
X23549Y8185D01*
X24815Y9451D01*
X25500Y11105D01*
Y12895D01*
X24815Y14549D01*
X23549Y15815D01*
X21895Y16500D01*
D02*
G37*
%LPD*%
G36*
X285170Y190623D02*
X284927Y190790D01*
X284655Y190939D01*
X284352Y191070D01*
X284020Y191184D01*
X283658Y191281D01*
X283267Y191360D01*
X282845Y191421D01*
X281913Y191491D01*
X281402Y191500D01*
Y194500D01*
X281913Y194509D01*
X282845Y194579D01*
X283267Y194640D01*
X283658Y194719D01*
X284020Y194816D01*
X284352Y194930D01*
X284655Y195061D01*
X284927Y195210D01*
X285170Y195377D01*
Y190623D01*
D02*
G37*
G36*
X228019Y190898D02*
X227664Y190530D01*
X227055Y189821D01*
X226800Y189480D01*
X226579Y189147D01*
X226391Y188823D01*
X226237Y188508D01*
X226116Y188201D01*
X226029Y187903D01*
X225975Y187613D01*
X222613Y190975D01*
X222903Y191029D01*
X223201Y191116D01*
X223508Y191237D01*
X223823Y191391D01*
X224147Y191579D01*
X224480Y191800D01*
X224821Y192055D01*
X225530Y192664D01*
X225898Y193019D01*
X228019Y190898D01*
D02*
G37*
G36*
X98185Y194278D02*
X99122Y189784D01*
X99496Y188541D01*
X99899Y187426D01*
X100334Y186438D01*
X100798Y185578D01*
X101293Y184846D01*
X101819Y184242D01*
X100758Y183181D01*
X100154Y183706D01*
X99422Y184202D01*
X98562Y184666D01*
X97574Y185101D01*
X96459Y185504D01*
X95216Y185878D01*
X92347Y186533D01*
X90722Y186815D01*
X88968Y187067D01*
X97933Y196032D01*
X98185Y194278D01*
D02*
G37*
G36*
X160645Y160439D02*
X160960Y160193D01*
X161300Y159967D01*
X161666Y159763D01*
X162056Y159580D01*
X162472Y159417D01*
X162913Y159275D01*
X163379Y159154D01*
X163871Y159054D01*
X164387Y158975D01*
X161025Y155613D01*
X160946Y156130D01*
X160725Y157087D01*
X160583Y157528D01*
X160420Y157944D01*
X160237Y158334D01*
X160033Y158700D01*
X159807Y159040D01*
X159561Y159355D01*
X159294Y159645D01*
X160355Y160706D01*
X160645Y160439D01*
D02*
G37*
G36*
X70902Y163426D02*
X71697Y159705D01*
X72018Y158668D01*
X72368Y157734D01*
X72745Y156901D01*
X73151Y156170D01*
X73585Y155541D01*
X74047Y155014D01*
X72986Y153953D01*
X72459Y154415D01*
X71830Y154849D01*
X71099Y155255D01*
X70266Y155632D01*
X69331Y155982D01*
X68295Y156303D01*
X65916Y156861D01*
X64574Y157098D01*
X63129Y157306D01*
X70694Y164871D01*
X70902Y163426D01*
D02*
G37*
G36*
X206962Y138095D02*
X206629Y138165D01*
X206304Y138201D01*
X205987Y138203D01*
X205680Y138172D01*
X205381Y138106D01*
X205090Y138007D01*
X204809Y137874D01*
X204535Y137706D01*
X204271Y137506D01*
X204015Y137271D01*
X202954Y138331D01*
X203216Y138609D01*
X203460Y138899D01*
X203687Y139203D01*
X203897Y139520D01*
X204090Y139851D01*
X204265Y140195D01*
X204423Y140552D01*
X204564Y140922D01*
X204794Y141704D01*
X206962Y138095D01*
D02*
G37*
G36*
X225645Y119439D02*
X225960Y119193D01*
X226300Y118968D01*
X226666Y118763D01*
X227056Y118580D01*
X227472Y118417D01*
X227913Y118275D01*
X228379Y118154D01*
X228871Y118054D01*
X229387Y117975D01*
X226025Y114613D01*
X225946Y115129D01*
X225725Y116087D01*
X225583Y116528D01*
X225420Y116944D01*
X225237Y117334D01*
X225033Y117700D01*
X224807Y118040D01*
X224561Y118355D01*
X224294Y118645D01*
X225355Y119706D01*
X225645Y119439D01*
D02*
G37*
G36*
X287274Y124661D02*
X286984Y124607D01*
X286686Y124519D01*
X286379Y124399D01*
X286064Y124244D01*
X285740Y124057D01*
X285407Y123836D01*
X285065Y123581D01*
X284357Y122971D01*
X283989Y122616D01*
X281868Y124738D01*
X282223Y125105D01*
X282833Y125814D01*
X283087Y126155D01*
X283308Y126488D01*
X283496Y126812D01*
X283650Y127128D01*
X283771Y127435D01*
X283858Y127733D01*
X283912Y128022D01*
X287274Y124661D01*
D02*
G37*
G36*
X237509Y47087D02*
X237579Y46155D01*
X237640Y45733D01*
X237719Y45342D01*
X237816Y44980D01*
X237930Y44648D01*
X238061Y44345D01*
X238211Y44073D01*
X238377Y43830D01*
X233623D01*
X233790Y44073D01*
X233939Y44345D01*
X234070Y44648D01*
X234184Y44980D01*
X234281Y45342D01*
X234360Y45733D01*
X234421Y46155D01*
X234491Y47087D01*
X234500Y47598D01*
X237500D01*
X237509Y47087D01*
D02*
G37*
G36*
X62251Y90068D02*
X63085Y89547D01*
X63497Y89336D01*
X63906Y89157D01*
X64311Y89010D01*
X64714Y88896D01*
X65114Y88815D01*
X65511Y88766D01*
X65905Y88750D01*
Y87250D01*
X65511Y87234D01*
X65114Y87185D01*
X64714Y87104D01*
X64311Y86990D01*
X63906Y86843D01*
X63497Y86664D01*
X63085Y86453D01*
X62669Y86209D01*
X62251Y85932D01*
X61830Y85623D01*
Y90377D01*
X62251Y90068D01*
D02*
G37*
G36*
X169170Y76623D02*
X168749Y76932D01*
X167915Y77453D01*
X167503Y77664D01*
X167094Y77843D01*
X166688Y77990D01*
X166286Y78104D01*
X165886Y78185D01*
X165489Y78234D01*
X165095Y78250D01*
Y79750D01*
X165489Y79766D01*
X165886Y79815D01*
X166286Y79896D01*
X166688Y80010D01*
X167094Y80157D01*
X167503Y80336D01*
X167915Y80547D01*
X168331Y80791D01*
X168749Y81068D01*
X169170Y81377D01*
Y76623D01*
D02*
G37*
D11*
X110199Y137801D02*
X203484D01*
X64000Y184000D02*
X110199Y137801D01*
X206683Y141000D02*
X207710D01*
X90000Y195000D02*
X110457Y174543D01*
X145457D01*
X164000Y156000D01*
X64000Y164000D02*
X97000Y131000D01*
X213000D01*
X229000Y115000D01*
X122895Y79000D02*
X171000D01*
X113895Y88000D02*
X122895Y79000D01*
X60000Y88000D02*
X113895D01*
X203484Y137801D02*
X206683Y141000D01*
D47*
X155000Y229000D02*
X157000Y227000D01*
Y188000D02*
Y227000D01*
X155000Y229000D02*
Y295400D01*
X170000Y310400D01*
X236000Y76748D02*
X286887Y127635D01*
X236000Y42000D02*
Y76748D01*
X228000Y193000D02*
X287000D01*
X223000Y188000D02*
X228000Y193000D01*
D49*
X140000Y220000D02*
D03*
X90000D02*
D03*
X115000D02*
D03*
Y195000D02*
D03*
X140000D02*
D03*
X90000D02*
D03*
X480000Y110000D02*
D03*
Y225000D02*
D03*
Y337000D02*
D03*
X170000Y259600D02*
D03*
D50*
X64000Y144000D02*
D03*
Y164000D02*
D03*
Y184000D02*
D03*
D51*
X480000Y175000D02*
D03*
Y290000D02*
D03*
Y60000D02*
D03*
D52*
X64000Y204000D02*
D03*
D53*
X170000Y310400D02*
D03*
D54*
X275000Y260000D02*
D03*
Y318000D02*
D03*
D55*
X134000Y165000D02*
D03*
X157000Y188000D02*
D03*
X299000Y17040D02*
D03*
X100000Y72000D02*
D03*
X248000Y124000D02*
D03*
X297000Y63000D02*
D03*
X286000Y75000D02*
D03*
X297000Y87000D02*
D03*
X154000Y6000D02*
D03*
X124000Y19000D02*
D03*
X288000Y117000D02*
D03*
X113811Y153431D02*
D03*
X349000Y167000D02*
D03*
X299483Y176323D02*
D03*
X236000Y42000D02*
D03*
X286887Y127635D02*
D03*
X229000Y115000D02*
D03*
X268000Y83000D02*
D03*
X356000Y129040D02*
D03*
X158000Y149000D02*
D03*
X59000Y113000D02*
D03*
X356000Y4250D02*
D03*
X268290Y72000D02*
D03*
X95000Y81000D02*
D03*
X187000Y84000D02*
D03*
X180948Y124052D02*
D03*
X202000Y69000D02*
D03*
X174000Y159000D02*
D03*
X163000Y67000D02*
D03*
X154000Y66000D02*
D03*
X213290Y168000D02*
D03*
X60000Y88000D02*
D03*
X171000Y79000D02*
D03*
X177930Y70041D02*
D03*
X208000Y56000D02*
D03*
X95000Y115000D02*
D03*
X123000Y33000D02*
D03*
X58407Y100593D02*
D03*
X291000Y24960D02*
D03*
X248000Y137000D02*
D03*
X100000Y59000D02*
D03*
X262000Y128000D02*
D03*
X198000Y105000D02*
D03*
X297000Y32000D02*
D03*
X200000Y117000D02*
D03*
X178760Y151000D02*
D03*
X164000Y174000D02*
D03*
X144000Y67000D02*
D03*
X188000Y65000D02*
D03*
X207710Y141000D02*
D03*
X104000Y122000D02*
D03*
X356000Y248000D02*
D03*
X191000Y120000D02*
D03*
X164000Y156000D02*
D03*
X392000Y6000D02*
D03*
X348885Y68628D02*
D03*
X465000Y337000D02*
D03*
X277000Y131710D02*
D03*
X348000Y227000D02*
D03*
X242201Y210457D02*
D03*
X467000Y107000D02*
D03*
X298000Y144000D02*
D03*
X279979Y151083D02*
D03*
X282355Y215645D02*
D03*
X388000Y236830D02*
D03*
X391000Y121000D02*
D03*
X299000Y99000D02*
D03*
X241000Y155040D02*
D03*
X230000Y148000D02*
D03*
X465000Y222000D02*
D03*
X241355Y174645D02*
D03*
X268000Y224000D02*
D03*
X298000Y201000D02*
D03*
X287000Y193000D02*
D03*
X288000Y206000D02*
D03*
X240000Y200040D02*
D03*
X223000Y188000D02*
D03*
X195000Y216000D02*
D03*
X213000Y208000D02*
D03*
D56*
X277000Y76000D02*
D03*
X269000Y60000D02*
D03*
X261000Y44000D02*
D03*
X269000Y28000D02*
D03*
X229000Y204000D02*
D03*
X237000Y28000D02*
D03*
X157000Y124000D02*
D03*
X133000Y44000D02*
D03*
X117000D02*
D03*
Y12000D02*
D03*
X101000Y172000D02*
D03*
Y44000D02*
D03*
X109000Y28000D02*
D03*
X101000Y12000D02*
D03*
X93000Y124000D02*
D03*
X85000Y76000D02*
D03*
Y44000D02*
D03*
X93000Y28000D02*
D03*
X85000Y12000D02*
D03*
X77000Y124000D02*
D03*
Y60000D02*
D03*
X69000Y44000D02*
D03*
X77000Y28000D02*
D03*
X69000Y12000D02*
D03*
X61000Y124000D02*
D03*
X53000Y76000D02*
D03*
X61000Y60000D02*
D03*
X53000Y44000D02*
D03*
X61000Y28000D02*
D03*
X53000Y12000D02*
D03*
X37000Y204000D02*
D03*
X45000Y188000D02*
D03*
X37000Y172000D02*
D03*
X45000Y156000D02*
D03*
X37000Y140000D02*
D03*
X45000Y124000D02*
D03*
X37000Y12000D02*
D03*
X21000Y204000D02*
D03*
X29000Y188000D02*
D03*
X21000Y172000D02*
D03*
X29000Y156000D02*
D03*
X21000Y140000D02*
D03*
X29000Y124000D02*
D03*
X21000Y12000D02*
D03*
X466000Y144000D02*
D03*
X430000Y132000D02*
D03*
X490000Y156000D02*
D03*
X478000Y204000D02*
D03*
X466000Y132000D02*
D03*
X478000Y144000D02*
D03*
X442000Y132000D02*
D03*
X466000Y180000D02*
D03*
Y156000D02*
D03*
X430000D02*
D03*
X454000Y192000D02*
D03*
X466000D02*
D03*
Y168000D02*
D03*
Y204000D02*
D03*
X454000D02*
D03*
X418000Y156000D02*
D03*
X454000D02*
D03*
X490000Y204000D02*
D03*
Y144000D02*
D03*
X442000Y156000D02*
D03*
X430000Y144000D02*
D03*
X478000Y156000D02*
D03*
X490000Y132000D02*
D03*
X454000Y144000D02*
D03*
Y132000D02*
D03*
X442000Y144000D02*
D03*
Y168000D02*
D03*
X478000Y132000D02*
D03*
X454000Y180000D02*
D03*
X490000Y192000D02*
D03*
X454000Y168000D02*
D03*
X478000Y192000D02*
D03*
X416000Y71000D02*
D03*
Y81000D02*
D03*
Y91000D02*
D03*
Y101000D02*
D03*
X426000Y341000D02*
D03*
Y331000D02*
D03*
Y321000D02*
D03*
Y311000D02*
D03*
Y211000D02*
D03*
Y201000D02*
D03*
Y191000D02*
D03*
Y181000D02*
D03*
X416000Y341000D02*
D03*
Y331000D02*
D03*
Y321000D02*
D03*
Y311000D02*
D03*
Y301000D02*
D03*
Y211000D02*
D03*
Y201000D02*
D03*
Y191000D02*
D03*
Y181000D02*
D03*
X406000Y341000D02*
D03*
Y331000D02*
D03*
Y321000D02*
D03*
Y311000D02*
D03*
Y301000D02*
D03*
Y211000D02*
D03*
Y201000D02*
D03*
Y191000D02*
D03*
Y101000D02*
D03*
Y91000D02*
D03*
Y81000D02*
D03*
Y71000D02*
D03*
X396000Y341000D02*
D03*
Y331000D02*
D03*
Y321000D02*
D03*
Y311000D02*
D03*
Y301000D02*
D03*
Y211000D02*
D03*
Y201000D02*
D03*
Y191000D02*
D03*
Y101000D02*
D03*
Y91000D02*
D03*
Y81000D02*
D03*
Y71000D02*
D03*
X386000Y341000D02*
D03*
Y331000D02*
D03*
Y321000D02*
D03*
Y311000D02*
D03*
Y301000D02*
D03*
Y211000D02*
D03*
Y201000D02*
D03*
Y191000D02*
D03*
Y181000D02*
D03*
Y101000D02*
D03*
Y91000D02*
D03*
Y81000D02*
D03*
Y71000D02*
D03*
X376000Y341000D02*
D03*
Y331000D02*
D03*
Y321000D02*
D03*
Y311000D02*
D03*
Y301000D02*
D03*
Y211000D02*
D03*
Y201000D02*
D03*
Y191000D02*
D03*
Y181000D02*
D03*
Y101000D02*
D03*
Y91000D02*
D03*
Y81000D02*
D03*
Y71000D02*
D03*
X366000Y341000D02*
D03*
Y331000D02*
D03*
Y321000D02*
D03*
Y311000D02*
D03*
Y301000D02*
D03*
Y211000D02*
D03*
Y201000D02*
D03*
Y191000D02*
D03*
Y181000D02*
D03*
Y101000D02*
D03*
Y91000D02*
D03*
Y81000D02*
D03*
Y71000D02*
D03*
X356000Y341000D02*
D03*
Y331000D02*
D03*
Y321000D02*
D03*
Y311000D02*
D03*
Y301000D02*
D03*
Y211000D02*
D03*
Y201000D02*
D03*
Y191000D02*
D03*
Y181000D02*
D03*
Y101000D02*
D03*
Y91000D02*
D03*
Y81000D02*
D03*
X338001Y263001D02*
D03*
Y191000D02*
D03*
Y183000D02*
D03*
Y175000D02*
D03*
Y151000D02*
D03*
Y143000D02*
D03*
Y95000D02*
D03*
Y71000D02*
D03*
Y47000D02*
D03*
Y39000D02*
D03*
Y31000D02*
D03*
X330001Y271001D02*
D03*
Y263001D02*
D03*
Y255000D02*
D03*
Y191000D02*
D03*
Y183000D02*
D03*
Y175000D02*
D03*
Y151000D02*
D03*
Y79000D02*
D03*
Y55000D02*
D03*
Y47000D02*
D03*
Y39000D02*
D03*
Y31000D02*
D03*
X322001Y279001D02*
D03*
Y271001D02*
D03*
Y263001D02*
D03*
Y255000D02*
D03*
Y247001D02*
D03*
Y191000D02*
D03*
Y183000D02*
D03*
Y175000D02*
D03*
Y87000D02*
D03*
Y63000D02*
D03*
Y55000D02*
D03*
Y47000D02*
D03*
Y39000D02*
D03*
Y31000D02*
D03*
X314001Y279001D02*
D03*
Y271001D02*
D03*
Y263001D02*
D03*
Y255000D02*
D03*
Y247001D02*
D03*
Y191000D02*
D03*
Y183000D02*
D03*
Y175000D02*
D03*
Y95000D02*
D03*
Y71000D02*
D03*
Y63000D02*
D03*
Y55000D02*
D03*
Y47000D02*
D03*
Y39000D02*
D03*
X490000Y318000D02*
D03*
Y306000D02*
D03*
Y270000D02*
D03*
Y258000D02*
D03*
Y246000D02*
D03*
X478000Y318000D02*
D03*
Y306000D02*
D03*
Y270000D02*
D03*
Y258000D02*
D03*
Y246000D02*
D03*
X466000Y318000D02*
D03*
Y306000D02*
D03*
Y294000D02*
D03*
Y282000D02*
D03*
Y270000D02*
D03*
Y258000D02*
D03*
Y246000D02*
D03*
X454000Y306000D02*
D03*
Y294000D02*
D03*
Y282000D02*
D03*
Y270000D02*
D03*
Y258000D02*
D03*
Y246000D02*
D03*
X442000Y282000D02*
D03*
Y270000D02*
D03*
Y258000D02*
D03*
Y246000D02*
D03*
X430000Y282000D02*
D03*
Y270000D02*
D03*
Y258000D02*
D03*
Y246000D02*
D03*
X418000Y270000D02*
D03*
Y258000D02*
D03*
Y246000D02*
D03*
X322000Y303000D02*
D03*
X306000D02*
D03*
X98000D02*
D03*
X18000D02*
D03*
X338000D02*
D03*
X50000Y319000D02*
D03*
X194000Y303000D02*
D03*
X306000Y335000D02*
D03*
X66000Y303000D02*
D03*
X34000Y319000D02*
D03*
X242000Y335000D02*
D03*
X34000D02*
D03*
X66000D02*
D03*
X82000Y303000D02*
D03*
X66000Y319000D02*
D03*
X130000D02*
D03*
X18000Y335000D02*
D03*
X210000Y319000D02*
D03*
Y335000D02*
D03*
X194000Y319000D02*
D03*
X242000D02*
D03*
Y303000D02*
D03*
X50000Y335000D02*
D03*
X322000D02*
D03*
X146000Y303000D02*
D03*
X130000D02*
D03*
X114000D02*
D03*
X210000D02*
D03*
X114000Y335000D02*
D03*
X146000D02*
D03*
X98000Y319000D02*
D03*
Y335000D02*
D03*
X50000Y303000D02*
D03*
X322000Y319000D02*
D03*
X338000Y335000D02*
D03*
X82000D02*
D03*
X114000Y319000D02*
D03*
X178000Y335000D02*
D03*
X226000Y319000D02*
D03*
Y335000D02*
D03*
X82000Y319000D02*
D03*
X306000D02*
D03*
X34000Y303000D02*
D03*
X226000D02*
D03*
X162000Y335000D02*
D03*
X18000Y319000D02*
D03*
X194000Y335000D02*
D03*
X146000Y319000D02*
D03*
X338000D02*
D03*
X130000Y335000D02*
D03*
X242000Y271000D02*
D03*
Y255000D02*
D03*
Y239000D02*
D03*
X226000Y271000D02*
D03*
Y255000D02*
D03*
Y239000D02*
D03*
X210000Y271000D02*
D03*
Y255000D02*
D03*
Y239000D02*
D03*
X194000Y271000D02*
D03*
Y255000D02*
D03*
Y239000D02*
D03*
X178000D02*
D03*
X162000D02*
D03*
X146000Y271000D02*
D03*
Y255000D02*
D03*
Y239000D02*
D03*
X130000Y271000D02*
D03*
Y255000D02*
D03*
Y239000D02*
D03*
X114000Y271000D02*
D03*
Y255000D02*
D03*
Y239000D02*
D03*
X98000Y271000D02*
D03*
Y255000D02*
D03*
Y239000D02*
D03*
X82000Y271000D02*
D03*
Y255000D02*
D03*
Y239000D02*
D03*
X66000Y271000D02*
D03*
Y255000D02*
D03*
Y239000D02*
D03*
X50000Y271000D02*
D03*
Y255000D02*
D03*
Y239000D02*
D03*
X34000Y271000D02*
D03*
Y255000D02*
D03*
Y239000D02*
D03*
X18000Y271000D02*
D03*
Y255000D02*
D03*
Y239000D02*
D03*
X490000Y91000D02*
D03*
Y79000D02*
D03*
Y43000D02*
D03*
Y31000D02*
D03*
Y19000D02*
D03*
X478000Y91000D02*
D03*
Y79000D02*
D03*
Y43000D02*
D03*
Y31000D02*
D03*
Y19000D02*
D03*
Y7000D02*
D03*
X466000Y91000D02*
D03*
Y79000D02*
D03*
Y67000D02*
D03*
Y55000D02*
D03*
Y43000D02*
D03*
Y31000D02*
D03*
Y19000D02*
D03*
Y7000D02*
D03*
X454000Y91000D02*
D03*
Y79000D02*
D03*
Y67000D02*
D03*
Y55000D02*
D03*
Y43000D02*
D03*
Y31000D02*
D03*
Y19000D02*
D03*
Y7000D02*
D03*
X442000Y55000D02*
D03*
Y43000D02*
D03*
Y31000D02*
D03*
Y19000D02*
D03*
Y7000D02*
D03*
X430000Y43000D02*
D03*
Y31000D02*
D03*
Y19000D02*
D03*
Y7000D02*
D03*
X418000Y31000D02*
D03*
Y19000D02*
D03*
Y7000D02*
D03*
M02*
