G04*
G04 #@! TF.GenerationSoftware,Altium Limited,Altium Designer,25.8.1 (18)*
G04*
G04 Layer_Color=32896*
%FSLAX44Y44*%
%MOMM*%
G71*
G04*
G04 #@! TF.SameCoordinates,D7C4C725-C8A4-46AB-A62B-07054BF05DDA*
G04*
G04*
G04 #@! TF.FilePolarity,Positive*
G04*
G01*
G75*
%ADD12C,0.2000*%
%ADD13C,0.2540*%
%ADD14C,0.1016*%
D12*
X409250Y157400D02*
X410750D01*
Y186600D01*
X409250D02*
X410750D01*
X409250Y157400D02*
Y186600D01*
X393250Y157000D02*
X405750D01*
X274000Y110000D02*
X280000D01*
X190250Y143000D02*
X205000D01*
X208500Y145500D02*
Y210500D01*
X245500D01*
Y145500D02*
Y210500D01*
X208500Y145500D02*
X245500D01*
X126000Y97000D02*
X132000D01*
X151000Y109000D02*
Y115000D01*
X178000Y105000D02*
X184000D01*
X228000Y93000D02*
X234000D01*
X213000Y57000D02*
X219000D01*
X192000Y16000D02*
Y22000D01*
Y33000D02*
Y39000D01*
X160000Y33000D02*
Y39000D01*
Y17000D02*
Y23000D01*
X213000Y86000D02*
X219000D01*
X151000Y92000D02*
Y98000D01*
D13*
X1000Y18000D02*
X51000D01*
X1000Y118000D02*
X51000D01*
Y18000D02*
Y118000D01*
D14*
X253348Y90461D02*
Y95539D01*
X250809D01*
X249962Y94693D01*
Y93000D01*
X250809Y92154D01*
X253348D01*
X251655D02*
X249962Y90461D01*
X248270D02*
X246577D01*
X247423D01*
Y95539D01*
X248270Y94693D01*
X244038D02*
X243191Y95539D01*
X241498D01*
X240652Y94693D01*
Y91307D01*
X241498Y90461D01*
X243191D01*
X244038Y91307D01*
Y94693D01*
X220232Y103461D02*
Y108539D01*
X217693D01*
X216846Y107693D01*
Y106000D01*
X217693Y105154D01*
X220232D01*
X218539D02*
X216846Y103461D01*
X215154Y104307D02*
X214307Y103461D01*
X212614D01*
X211768Y104307D01*
Y107693D01*
X212614Y108539D01*
X214307D01*
X215154Y107693D01*
Y106846D01*
X214307Y106000D01*
X211768D01*
X233232Y62461D02*
Y67539D01*
X230693D01*
X229846Y66693D01*
Y65000D01*
X230693Y64154D01*
X233232D01*
X231539D02*
X229846Y62461D01*
X228154Y66693D02*
X227307Y67539D01*
X225614D01*
X224768Y66693D01*
Y65846D01*
X225614Y65000D01*
X224768Y64154D01*
Y63307D01*
X225614Y62461D01*
X227307D01*
X228154Y63307D01*
Y64154D01*
X227307Y65000D01*
X228154Y65846D01*
Y66693D01*
X227307Y65000D02*
X225614D01*
X185232Y124461D02*
Y129539D01*
X182693D01*
X181846Y128693D01*
Y127000D01*
X182693Y126154D01*
X185232D01*
X183539D02*
X181846Y124461D01*
X176768Y129539D02*
X180154D01*
Y127000D01*
X178461Y127846D01*
X177614D01*
X176768Y127000D01*
Y125307D01*
X177614Y124461D01*
X179307D01*
X180154Y125307D01*
X133232Y113461D02*
Y118539D01*
X130693D01*
X129846Y117693D01*
Y116000D01*
X130693Y115154D01*
X133232D01*
X131539D02*
X129846Y113461D01*
X124768D02*
X128154D01*
X124768Y116846D01*
Y117693D01*
X125614Y118539D01*
X127307D01*
X128154Y117693D01*
X142771Y33461D02*
Y38539D01*
X140232D01*
X139386Y37693D01*
Y36000D01*
X140232Y35154D01*
X142771D01*
X141078D02*
X139386Y33461D01*
X134307D02*
X137693D01*
X134307Y36846D01*
Y37693D01*
X135154Y38539D01*
X136846D01*
X137693Y37693D01*
X132614D02*
X131768Y38539D01*
X130075D01*
X129229Y37693D01*
Y36846D01*
X130075Y36000D01*
X129229Y35154D01*
Y34307D01*
X130075Y33461D01*
X131768D01*
X132614Y34307D01*
Y35154D01*
X131768Y36000D01*
X132614Y36846D01*
Y37693D01*
X131768Y36000D02*
X130075D01*
X221771Y33461D02*
Y38539D01*
X219232D01*
X218386Y37693D01*
Y36000D01*
X219232Y35154D01*
X221771D01*
X220078D02*
X218386Y33461D01*
X213307D02*
X216693D01*
X213307Y36846D01*
Y37693D01*
X214154Y38539D01*
X215846D01*
X216693Y37693D01*
X211614D02*
X210768Y38539D01*
X209075D01*
X208229Y37693D01*
Y36846D01*
X209075Y36000D01*
X209922D01*
X209075D01*
X208229Y35154D01*
Y34307D01*
X209075Y33461D01*
X210768D01*
X211614Y34307D01*
X267771Y107461D02*
Y112539D01*
X265232D01*
X264386Y111693D01*
Y110000D01*
X265232Y109154D01*
X267771D01*
X266078D02*
X264386Y107461D01*
X259307D02*
X262693D01*
X259307Y110846D01*
Y111693D01*
X260154Y112539D01*
X261846D01*
X262693Y111693D01*
X257614Y112539D02*
X254229D01*
Y111693D01*
X257614Y108307D01*
Y107461D01*
X142771Y17461D02*
Y22539D01*
X140232D01*
X139386Y21693D01*
Y20000D01*
X140232Y19154D01*
X142771D01*
X141078D02*
X139386Y17461D01*
X134307D02*
X137693D01*
X134307Y20846D01*
Y21693D01*
X135154Y22539D01*
X136846D01*
X137693Y21693D01*
X129229Y22539D02*
X130922Y21693D01*
X132614Y20000D01*
Y18307D01*
X131768Y17461D01*
X130075D01*
X129229Y18307D01*
Y19154D01*
X130075Y20000D01*
X132614D01*
X220925Y17461D02*
Y22539D01*
X218386D01*
X217539Y21693D01*
Y20000D01*
X218386Y19154D01*
X220925D01*
X219232D02*
X217539Y17461D01*
X212461D02*
X215846D01*
X212461Y20846D01*
Y21693D01*
X213307Y22539D01*
X215000D01*
X215846Y21693D01*
X210768Y17461D02*
X209075D01*
X209922D01*
Y22539D01*
X210768Y21693D01*
X172539Y101348D02*
X167461D01*
Y98809D01*
X168307Y97962D01*
X170000D01*
X170846Y98809D01*
Y101348D01*
Y99655D02*
X172539Y97962D01*
Y96270D02*
Y94577D01*
Y95423D01*
X167461D01*
X168307Y96270D01*
X172539Y89498D02*
X167461D01*
X170000Y92037D01*
Y88652D01*
X165348Y122461D02*
Y127539D01*
X162809D01*
X161962Y126693D01*
Y125000D01*
X162809Y124154D01*
X165348D01*
X163655D02*
X161962Y122461D01*
X160270D02*
X158577D01*
X159423D01*
Y127539D01*
X160270Y126693D01*
X156038D02*
X155191Y127539D01*
X153498D01*
X152652Y126693D01*
Y125846D01*
X153498Y125000D01*
X154345D01*
X153498D01*
X152652Y124154D01*
Y123307D01*
X153498Y122461D01*
X155191D01*
X156038Y123307D01*
X389348Y174539D02*
X387655D01*
X388502D01*
Y169461D01*
X389348D01*
X387655D01*
X381730Y173693D02*
X382577Y174539D01*
X384270D01*
X385116Y173693D01*
Y170307D01*
X384270Y169461D01*
X382577D01*
X381730Y170307D01*
X380038Y173693D02*
X379191Y174539D01*
X377498D01*
X376652Y173693D01*
Y172846D01*
X377498Y172000D01*
X378345D01*
X377498D01*
X376652Y171154D01*
Y170307D01*
X377498Y169461D01*
X379191D01*
X380038Y170307D01*
X234348Y220539D02*
X232655D01*
X233501D01*
Y215461D01*
X234348D01*
X232655D01*
X226730Y219693D02*
X227577Y220539D01*
X229270D01*
X230116Y219693D01*
Y216307D01*
X229270Y215461D01*
X227577D01*
X226730Y216307D01*
X221652Y215461D02*
X225038D01*
X221652Y218846D01*
Y219693D01*
X222498Y220539D01*
X224191D01*
X225038Y219693D01*
X200962Y106693D02*
X201809Y107539D01*
X203501D01*
X204348Y106693D01*
Y103307D01*
X203501Y102461D01*
X201809D01*
X200962Y103307D01*
X199270Y102461D02*
X197577D01*
X198423D01*
Y107539D01*
X199270Y106693D01*
X195038D02*
X194191Y107539D01*
X192498D01*
X191652Y106693D01*
Y103307D01*
X192498Y102461D01*
X194191D01*
X195038Y103307D01*
Y106693D01*
X385846Y144693D02*
X386693Y145539D01*
X388386D01*
X389232Y144693D01*
Y141307D01*
X388386Y140461D01*
X386693D01*
X385846Y141307D01*
X381614Y140461D02*
Y145539D01*
X384154Y143000D01*
X380768D01*
X143386Y54693D02*
X144232Y55539D01*
X145925D01*
X146771Y54693D01*
Y51307D01*
X145925Y50461D01*
X144232D01*
X143386Y51307D01*
X138307Y50461D02*
X141693D01*
X138307Y53846D01*
Y54693D01*
X139154Y55539D01*
X140846D01*
X141693Y54693D01*
X136614D02*
X135768Y55539D01*
X134075D01*
X133229Y54693D01*
Y51307D01*
X134075Y50461D01*
X135768D01*
X136614Y51307D01*
Y54693D01*
X193962Y66693D02*
X194809Y67539D01*
X196502D01*
X197348Y66693D01*
Y63307D01*
X196502Y62461D01*
X194809D01*
X193962Y63307D01*
X192270Y62461D02*
X190577D01*
X191423D01*
Y67539D01*
X192270Y66693D01*
X188038D02*
X187191Y67539D01*
X185498D01*
X184652Y66693D01*
Y65846D01*
X185498Y65000D01*
X184652Y64154D01*
Y63307D01*
X185498Y62461D01*
X187191D01*
X188038Y63307D01*
Y64154D01*
X187191Y65000D01*
X188038Y65846D01*
Y66693D01*
X187191Y65000D02*
X185498D01*
X292962Y149693D02*
X293809Y150539D01*
X295501D01*
X296348Y149693D01*
Y146307D01*
X295501Y145461D01*
X293809D01*
X292962Y146307D01*
X291270Y145461D02*
X289577D01*
X290423D01*
Y150539D01*
X291270Y149693D01*
X287038Y146307D02*
X286191Y145461D01*
X284498D01*
X283652Y146307D01*
Y149693D01*
X284498Y150539D01*
X286191D01*
X287038Y149693D01*
Y148846D01*
X286191Y148000D01*
X283652D01*
X291962Y174693D02*
X292809Y175539D01*
X294501D01*
X295348Y174693D01*
Y171307D01*
X294501Y170461D01*
X292809D01*
X291962Y171307D01*
X290270Y170461D02*
X288577D01*
X289423D01*
Y175539D01*
X290270Y174693D01*
X286038Y175539D02*
X282652D01*
Y174693D01*
X286038Y171307D01*
Y170461D01*
X293962Y202693D02*
X294809Y203539D01*
X296502D01*
X297348Y202693D01*
Y199307D01*
X296502Y198461D01*
X294809D01*
X293962Y199307D01*
X292270Y198461D02*
X290577D01*
X291423D01*
Y203539D01*
X292270Y202693D01*
X284652Y203539D02*
X288038D01*
Y201000D01*
X286345Y201846D01*
X285498D01*
X284652Y201000D01*
Y199307D01*
X285498Y198461D01*
X287191D01*
X288038Y199307D01*
X134962Y79693D02*
X135809Y80539D01*
X137501D01*
X138348Y79693D01*
Y76307D01*
X137501Y75461D01*
X135809D01*
X134962Y76307D01*
X133270Y75461D02*
X131577D01*
X132423D01*
Y80539D01*
X133270Y79693D01*
X129038D02*
X128191Y80539D01*
X126498D01*
X125652Y79693D01*
Y78846D01*
X126498Y78000D01*
X127345D01*
X126498D01*
X125652Y77154D01*
Y76307D01*
X126498Y75461D01*
X128191D01*
X129038Y76307D01*
X174116Y217693D02*
X174962Y218539D01*
X176655D01*
X177502Y217693D01*
Y214307D01*
X176655Y213461D01*
X174962D01*
X174116Y214307D01*
X172423Y213461D02*
X170730D01*
X171577D01*
Y218539D01*
X172423Y217693D01*
X168191Y213461D02*
X166498D01*
X167345D01*
Y218539D01*
X168191Y217693D01*
M02*
